<svg width="453" height="448" viewBox="0 0 453 448" fill="none" xmlns="http://www.w3.org/2000/svg">
<rect width="453" height="448" rx="50" fill="white"/>
<path d="M213.084 294.346C212.74 294.348 212.398 294.282 212.079 294.151C211.761 294.02 211.471 293.828 211.227 293.584C210.984 293.34 210.791 293.051 210.66 292.732C210.529 292.413 210.463 292.072 210.466 291.727C211.024 273.573 211.181 254.702 206.66 235.867C199.817 205.353 184.229 174.421 173.912 157.645C173.664 157.249 173.528 156.794 173.517 156.327C173.506 155.861 173.621 155.4 173.849 154.993C174.078 154.585 174.412 154.247 174.816 154.014C175.22 153.78 175.68 153.66 176.146 153.665H190.391C190.828 153.662 191.258 153.77 191.642 153.977C192.027 154.184 192.353 154.485 192.59 154.852C201.72 169.131 216.121 201.548 222.144 231.433H222.964C232.042 214.727 246.478 185.226 246.478 160.682V156.336C246.476 155.986 246.543 155.639 246.675 155.315C246.807 154.991 247.002 154.697 247.249 154.448C247.496 154.2 247.789 154.003 248.112 153.869C248.435 153.734 248.782 153.665 249.131 153.665H261.351C261.701 153.651 262.051 153.708 262.378 153.832C262.706 153.956 263.005 154.146 263.258 154.389C263.511 154.632 263.712 154.923 263.849 155.246C263.986 155.568 264.057 155.915 264.057 156.266V160.473C264.057 186.047 247.979 219.056 228.795 248.139C227.787 249.583 227.346 251.348 227.555 253.096C228.131 264.129 228.166 278.426 228.166 291.745C228.166 292.435 227.892 293.096 227.405 293.584C226.917 294.072 226.255 294.346 225.565 294.346H213.084Z" fill="#2B3825"/>
<path d="M221.812 294.346C221.462 294.348 221.114 294.28 220.791 294.145C220.467 294.01 220.175 293.811 219.93 293.56C219.686 293.309 219.494 293.011 219.368 292.684C219.241 292.357 219.182 292.008 219.194 291.658C219.752 273.503 219.909 254.633 215.388 235.797C208.545 205.353 192.957 174.421 182.64 157.645C182.393 157.249 182.256 156.794 182.245 156.327C182.234 155.861 182.349 155.4 182.577 154.993C182.806 154.585 183.14 154.247 183.544 154.014C183.948 153.78 184.408 153.66 184.875 153.665H199.119C199.556 153.662 199.986 153.77 200.371 153.977C200.755 154.184 201.081 154.485 201.318 154.852C210.448 169.131 224.85 201.548 230.872 231.433H231.693C240.77 214.727 255.206 185.226 255.206 160.682V156.336C255.204 155.986 255.271 155.639 255.403 155.315C255.536 154.991 255.731 154.697 255.977 154.448C256.224 154.2 256.517 154.003 256.84 153.869C257.163 153.734 257.51 153.665 257.86 153.665H270.079C270.429 153.651 270.779 153.708 271.107 153.832C271.434 153.956 271.734 154.146 271.986 154.389C272.239 154.632 272.44 154.923 272.577 155.246C272.714 155.568 272.785 155.915 272.785 156.266V160.473C272.785 186.047 256.707 219.057 237.523 248.139C236.515 249.583 236.074 251.348 236.284 253.096C236.86 264.129 236.895 278.426 236.895 291.745C236.895 292.435 236.62 293.096 236.133 293.584C235.645 294.072 234.983 294.346 234.294 294.346H221.812Z" stroke="#2B3825" stroke-miterlimit="10"/>
<path d="M367.451 224.014C367.455 217.159 366.989 210.312 366.054 203.52C365.664 200.628 365.988 197.683 366.999 194.944C368.009 192.206 369.674 189.756 371.85 187.81L388.468 172.815C391.217 170.347 393.138 167.093 393.972 163.495C394.806 159.897 394.512 156.13 393.129 152.705L392.448 151.064C391.004 147.681 388.555 144.823 385.433 142.878C382.31 140.932 378.666 139.994 374.992 140.189L352.613 141.323C349.704 141.487 346.799 140.936 344.152 139.719C341.505 138.502 339.196 136.655 337.426 134.341C329.148 123.393 319.397 113.641 308.448 105.363C306.134 103.594 304.288 101.284 303.07 98.6373C301.853 95.9901 301.302 93.0853 301.466 90.1763L302.6 67.7973C302.796 64.1237 301.857 60.4789 299.912 57.3565C297.966 54.2342 295.109 51.7851 291.725 50.3409L289.98 49.6601C286.564 48.2908 282.81 48.0035 279.226 48.8371C275.642 49.6707 272.4 51.585 269.94 54.321L254.945 70.9394C252.997 73.1136 250.547 74.7784 247.809 75.7885C245.071 76.7987 242.127 77.1236 239.234 76.7349C225.641 74.873 211.857 74.873 198.264 76.7349C195.371 77.1252 192.426 76.801 189.688 75.7907C186.949 74.7804 184.5 73.1148 182.553 70.9394L167.576 54.321C165.113 51.5712 161.863 49.6469 158.268 48.8098C154.673 47.9727 150.907 48.2635 147.483 49.6427L145.842 50.3235C142.457 51.7669 139.597 54.2153 137.649 57.3374C135.701 60.4595 134.758 64.1047 134.95 67.7798L136.102 90.1589C136.264 93.0677 135.712 95.9719 134.495 98.6189C133.278 101.266 131.433 103.575 129.119 105.346C118.172 113.638 108.42 123.401 100.142 134.358C98.3708 136.672 96.0615 138.517 93.4145 139.734C90.7676 140.951 87.8634 141.503 84.9546 141.341L62.5755 140.206C58.901 140.006 55.2541 140.943 52.1307 142.888C49.0073 144.834 46.5591 147.695 45.1192 151.082L44.4384 152.722C43.0516 156.144 42.7517 159.909 43.5793 163.507C44.407 167.105 46.322 170.361 49.0643 172.832L65.6828 187.827C67.8545 189.776 69.5176 192.226 70.5276 194.964C71.5375 197.702 71.8639 200.645 71.4783 203.538C69.5929 217.13 69.5929 230.916 71.4783 244.508C71.8639 247.401 71.5375 250.344 70.5276 253.082C69.5176 255.82 67.8545 258.269 65.6828 260.219L49.0643 275.231C46.339 277.688 44.4314 280.92 43.5982 284.494C42.7649 288.067 43.0459 291.81 44.4034 295.219L45.0842 296.86C46.5256 300.246 48.9736 303.108 52.0962 305.056C55.2188 307.005 58.865 307.946 62.5406 307.752L84.9197 306.6C87.8282 306.44 90.732 306.992 93.3787 308.209C96.0253 309.426 98.3349 311.271 100.107 313.583C108.388 324.517 118.132 334.262 129.067 342.543C131.379 344.315 133.224 346.624 134.441 349.271C135.657 351.918 136.21 354.821 136.049 357.73L134.88 380.196C134.686 383.872 135.627 387.518 137.576 390.641C139.524 393.763 142.386 396.211 145.773 397.653L147.413 398.333C150.836 399.715 154.6 400.008 158.195 399.174C161.79 398.34 165.041 396.419 167.506 393.673L182.518 377.054C184.467 374.882 186.917 373.219 189.655 372.209C192.393 371.199 195.336 370.873 198.229 371.259C211.821 373.144 225.607 373.144 239.199 371.259C242.092 370.875 245.034 371.202 247.772 372.211C250.509 373.221 252.959 374.884 254.91 377.054L269.905 393.673C272.369 396.419 275.62 398.34 279.215 399.174C282.81 400.008 286.575 399.715 289.997 398.333L291.743 397.653C295.126 396.208 297.984 393.759 299.929 390.637C301.874 387.515 302.813 383.87 302.618 380.196L301.344 355.094C301.121 350.637 299.255 346.421 296.107 343.259L284.585 331.737C282.577 329.753 280.004 328.44 277.219 327.977C274.434 327.514 271.574 327.926 269.032 329.154C251.775 337.402 232.75 341.264 213.643 340.396C155.182 337.847 104.279 286.281 102.393 227.855C101.869 211.922 104.62 196.051 110.475 181.224C116.331 166.397 125.166 152.93 136.435 141.654C147.704 130.379 161.166 121.536 175.99 115.672C190.813 109.808 206.683 107.048 222.615 107.563C281.129 109.448 332.59 160.368 335.157 218.865C336.012 237.98 332.138 257.011 323.88 274.271C322.643 276.813 322.225 279.676 322.685 282.465C323.144 285.254 324.459 287.832 326.446 289.842L337.862 301.259C341.028 304.402 345.242 306.266 349.698 306.496L374.957 307.787C378.632 307.976 382.276 307.033 385.397 305.085C388.519 303.137 390.968 300.278 392.413 296.895L393.094 295.254C394.475 291.831 394.769 288.067 393.935 284.472C393.101 280.877 391.18 277.626 388.433 275.161L371.815 260.149C369.64 258.202 367.974 255.753 366.964 253.014C365.953 250.275 365.629 247.331 366.019 244.438C366.963 237.671 367.441 230.847 367.451 224.014Z" fill="#2B3825"/>
<path d="M130.062 350.957C132.536 352.854 134.51 355.325 135.815 358.157C137.12 360.989 137.715 364.095 137.551 367.209L136.311 391.229C136.093 395.171 137.096 399.084 139.183 402.436C141.269 405.788 144.338 408.415 147.972 409.959L149.718 410.675C153.379 412.159 157.408 412.477 161.257 411.587C165.106 410.696 168.586 408.641 171.224 405.7L187.249 387.842C189.329 385.516 191.947 383.735 194.874 382.654C197.802 381.574 200.949 381.227 204.042 381.645" stroke="#2B3825" stroke-miterlimit="10"/>
<path d="M68.3884 245.939C68.7939 249.029 68.4417 252.17 67.3621 255.093C66.2824 258.015 64.5078 260.631 62.1914 262.715L44.3859 278.775C41.4452 281.412 39.3895 284.893 38.4992 288.742C37.6089 292.59 37.9272 296.62 39.4108 300.281C39.6378 300.875 39.8822 301.468 40.144 302.027C41.6875 305.657 44.3119 308.724 47.6601 310.811C51.0083 312.897 54.918 313.902 58.8572 313.688L82.8073 312.466C85.9204 312.29 89.0291 312.879 91.8621 314.181C94.695 315.483 97.166 317.459 99.0592 319.937" stroke="#2B3825" stroke-miterlimit="10"/>
<path d="M99.0593 128.057C97.1618 130.53 94.6906 132.505 91.859 133.81C89.0275 135.115 85.9208 135.71 82.8074 135.545L58.8573 134.306C54.918 134.092 51.0084 135.096 47.6602 137.183C44.312 139.269 41.6876 142.336 40.1441 145.967C39.8822 146.56 39.6378 147.136 39.4109 147.713C37.9233 151.376 37.6028 155.409 38.4933 159.261C39.3837 163.114 41.4416 166.597 44.386 169.236L62.1915 185.244C64.5105 187.329 66.2867 189.948 67.3664 192.874C68.4462 195.8 68.797 198.945 68.3885 202.037" stroke="#2B3825" stroke-miterlimit="10"/>
<path d="M204.094 66.3834C200.994 66.8007 197.839 66.4543 194.903 65.3743C191.967 64.2943 189.34 62.5133 187.249 60.1864L171.189 42.3809C168.555 39.4509 165.084 37.402 161.246 36.512C157.408 35.622 153.39 35.9341 149.735 37.4058C149.142 37.6328 148.566 37.8772 147.99 38.139C144.359 39.6825 141.292 42.3069 139.206 45.6551C137.119 49.0033 136.115 52.9129 136.329 56.8522L137.568 80.8023C137.733 83.9157 137.137 87.0224 135.833 89.8539C134.528 92.6855 132.553 95.1568 130.079 97.0542" stroke="#2B3825" stroke-miterlimit="10"/>
<path d="M321.959 97.0541C319.482 95.1609 317.506 92.6899 316.203 89.857C314.901 87.024 314.312 83.9152 314.488 80.8022L315.71 56.8521C315.924 52.9128 314.92 49.0032 312.833 45.655C310.747 42.3068 307.68 39.6824 304.049 38.1389C303.473 37.877 302.88 37.6327 302.304 37.4057C298.642 35.9221 294.613 35.6037 290.764 36.4941C286.915 37.3844 283.435 39.44 280.797 42.3808L264.737 60.1863C262.654 62.5027 260.038 64.2773 257.115 65.3569C254.193 66.4366 251.051 66.7888 247.962 66.3833" stroke="#2B3825" stroke-miterlimit="10"/>
<path d="M383.65 202.089C383.224 198.988 383.566 195.83 384.646 192.893C385.727 189.956 387.513 187.329 389.847 185.244L407.635 169.184C410.576 166.546 412.632 163.066 413.522 159.217C414.412 155.368 414.094 151.339 412.61 147.678C412.383 147.084 412.139 146.508 411.895 145.932C410.349 142.317 407.73 139.263 404.393 137.184C401.055 135.105 397.16 134.1 393.234 134.306L369.284 135.545C366.17 135.71 363.064 135.115 360.232 133.81C357.4 132.505 354.929 130.53 353.032 128.057" stroke="#2B3825" stroke-miterlimit="10"/>
<path d="M247.944 381.645C251.034 381.227 254.179 381.574 257.104 382.654C260.029 383.735 262.644 385.516 264.72 387.842L280.78 405.63C283.418 408.571 286.898 410.627 290.747 411.517C294.595 412.407 298.625 412.089 302.286 410.605L304.032 409.89C307.657 408.352 310.722 405.737 312.811 402.399C314.899 399.061 315.912 395.161 315.71 391.229L314.331 364.363C314.082 359.596 312.08 355.089 308.71 351.707L296.368 339.383C294.227 337.251 291.474 335.838 288.493 335.341C285.512 334.844 282.451 335.286 279.732 336.608C261.243 345.449 240.854 349.581 220.381 348.635C157.817 345.912 103.423 290.785 101.328 228.186C100.765 211.129 103.709 194.138 109.978 178.265C116.248 162.391 125.709 147.974 137.776 135.905C149.843 123.837 164.259 114.374 180.131 108.102C196.004 101.831 212.994 98.8845 230.052 99.4457C292.685 101.453 347.812 155.952 350.501 218.568C351.434 239.044 347.29 259.432 338.438 277.919C337.111 280.638 336.663 283.702 337.157 286.687C337.652 289.671 339.063 292.428 341.196 294.573L353.416 306.792C356.786 310.181 361.298 312.192 366.072 312.431L393.094 313.81C397.036 314.027 400.95 313.025 404.301 310.938C407.653 308.852 410.28 305.782 411.825 302.149C412.069 301.573 412.314 300.979 412.54 300.403C414.024 296.742 414.342 292.713 413.452 288.864C412.562 285.015 410.506 281.535 407.565 278.897L389.777 262.837C387.451 260.761 385.67 258.146 384.59 255.221C383.509 252.297 383.163 249.151 383.58 246.062" stroke="#2B3825" stroke-miterlimit="10"/>
</svg>
