<svg width="167" height="118" viewBox="0 0 167 118" fill="none" xmlns="http://www.w3.org/2000/svg">
<path d="M114.658 71.8833C115.207 70.5873 116.332 67.0769 116.446 63.4037C116.559 59.7366 118.582 57.0329 119.584 56.1341C119.587 56.1318 119.59 56.1328 119.591 56.136C120.396 58.6423 120.834 65.1028 116.159 70.951L123.065 66.6622C123.714 65.3041 124.98 61.8702 124.855 59.0005C124.73 56.1351 127.09 52.2975 128.291 50.7292C128.294 50.726 128.298 50.7267 128.299 50.7306C129.054 53.4052 129.421 60.0977 124.867 65.5435L132.373 60.8818C132.773 60.0879 133.6 57.7455 133.715 54.7266C133.829 51.7138 135.85 48.6318 136.852 47.4596C136.855 47.4565 136.859 47.4576 136.86 47.4617C137.263 49.6729 137.228 55.2504 133.875 59.9495L135.268 58.7917L135.826 58.3285C137.675 56.4983 143.205 53.4182 148.735 55.2143C148.739 55.2156 148.74 55.2213 148.736 55.2236C147.229 56.1581 143.636 58.0609 141.236 58.2436C139.526 58.3739 137.259 58.9329 135.569 59.422L134.748 59.9413C140.355 60.0255 143.793 62.7523 144.85 64.1787C144.852 64.1816 144.851 64.1858 144.847 64.1869C143.142 64.6969 139.651 64.9678 137.939 63.5662C135.823 61.833 134.257 61.2517 133.07 61.0023L126.013 65.4632C129.294 65.3564 134.823 66.1246 137.495 69.9723C137.497 69.9756 137.495 69.9804 137.492 69.9808C135.634 70.1757 131.455 70.2088 129.532 68.7873C127.949 67.617 125.513 67.0127 123.945 66.7706L117.323 70.9569C120.483 71.0875 125.863 72.1377 128.937 75.6959C128.94 75.6989 128.938 75.704 128.935 75.7047C127.376 75.9856 123.467 76.1495 120.224 74.5677C117.843 73.4065 116.232 72.6316 115.344 72.2081L109.988 75.5936L115.336 79.8205L115.336 79.8208C116.85 79.9 119.351 79.752 121.434 78.729C123.954 77.4913 127.888 78.6703 129.546 79.417C129.549 79.4183 129.549 79.4221 129.547 79.4249C127.993 81.3427 123.181 84.351 116.328 81.0811L121.748 86.7201C121.749 86.7209 121.749 86.7213 121.75 86.7214C123.255 86.8794 126.83 86.9229 129.112 85.8333C131.391 84.7449 135.063 86.084 136.622 86.893C136.625 86.8947 136.625 86.8994 136.622 86.9017C134.32 88.6012 128.446 91.2391 123.281 88.2579C123.277 88.2552 123.271 88.2619 123.275 88.2661L128.525 94.3836C128.526 94.3844 128.527 94.3849 128.528 94.3851C129.632 94.5191 132.376 94.615 134.538 93.927C136.697 93.2401 139.936 93.8397 141.294 94.2275C141.297 94.2286 141.298 94.2333 141.295 94.2361C139.691 95.7743 135.089 98.1623 129.45 95.4705C129.445 95.4683 129.44 95.4745 129.443 95.4786L131.539 98.2448L131.54 98.2456C133.797 99.9817 138.07 104.745 137.123 109.918C137.123 109.922 137.119 109.924 137.116 109.922C136.11 109.176 133.838 106.964 132.752 104.042C131.398 100.397 131.54 99.0729 129.604 96.6221C129.601 96.6177 129.593 96.6209 129.595 96.6263C130.296 98.3978 131.021 103.251 128.407 108.78C128.405 108.784 128.4 108.785 128.399 108.781C127.945 107.554 127.133 104.331 127.487 101.172C127.93 97.212 128.773 97.0975 128.077 95.0744C128.077 95.0738 128.077 95.0733 128.076 95.0728L122.654 88.6155C123.859 90.05 125.31 94.9856 121.483 103.255C121.481 103.259 121.476 103.259 121.475 103.256C120.87 101.713 119.877 97.785 120.711 94.3258C121.546 90.8612 121.451 88.2736 121.3 87.4113C121.299 87.4103 121.299 87.4095 121.298 87.4088L115.594 81.1578C115.591 81.1538 115.584 81.1578 115.586 81.163C116.691 84.0373 118.018 91.0035 114.557 96.0955C114.555 96.0989 114.55 96.0988 114.549 96.0949C114.095 94.5965 113.28 90.8284 113.634 87.6665C114.078 83.7064 114.979 83.147 114.522 79.7463L109.403 75.9634L109.259 76.0548C109.256 76.0563 109.254 76.0555 109.252 76.053L109.104 75.7418L109.704 75.3689L114.658 71.8833Z" fill="#2B3825"/>
<path d="M40.0094 44.5767C38.8795 45.4245 36.1308 47.9004 34.1756 51.0212C32.2235 54.1368 29.1071 55.4685 27.7858 55.7469C27.7824 55.7476 27.7799 55.745 27.7807 55.7417C28.3515 53.173 31.239 47.3665 38.2393 44.6356L30.0973 44.9064C28.8494 45.7582 26.018 48.0979 24.6757 50.6428C23.3354 53.1838 19.3534 55.328 17.5214 56.0864C17.5177 56.0879 17.5143 56.0851 17.5154 56.0813C18.2147 53.3918 21.2804 47.4198 27.9733 44.9771L19.1232 45.2715C18.3764 45.7594 16.4764 47.3736 14.8509 49.9279C13.2286 52.477 9.92272 54.1368 8.46337 54.6518C8.45947 54.6532 8.45631 54.6501 8.45772 54.6462C9.227 52.5327 12.0766 47.7253 17.3532 45.3304L15.5624 45.638L14.846 45.7611C12.3211 46.4235 5.98074 46.3342 2.10448 42.0265C2.10171 42.0234 2.10393 42.018 2.10832 42.0179C3.88431 41.96 7.95485 42.1035 10.1228 43.1402C11.6682 43.8793 13.9121 44.5248 15.6205 44.9428L16.5936 44.9027C11.7862 42.0378 10.1904 37.9669 9.99753 36.2068C9.99714 36.2033 10.0005 36.2004 10.004 36.2012C11.7368 36.6091 14.8936 38.1131 15.6656 40.1778C16.6202 42.731 17.681 44.0137 18.5817 44.8206L26.941 44.4757C24.049 42.9343 19.6547 39.5166 19.2888 34.8578C19.2885 34.8539 19.2925 34.8506 19.296 34.8521C21.0014 35.6086 24.6326 37.6606 25.5777 39.8481C26.3557 41.6488 28.1567 43.3842 29.391 44.3746L37.2355 44.0509C34.5681 42.3644 30.4451 38.7768 29.585 34.1682C29.5843 34.1643 29.5881 34.1606 29.5917 34.1619C31.082 34.695 34.546 36.4997 36.5518 39.483C38.0243 41.6731 39.026 43.1455 39.5803 43.9541L45.9242 43.6924L43.4357 37.3733L43.4356 37.3728C42.1659 36.5504 39.9278 35.433 37.609 35.2808C34.8035 35.0967 31.9967 32.1179 30.9399 30.6464C30.9381 30.6438 30.9394 30.6402 30.9427 30.6389C33.2567 29.7539 38.9397 29.5476 43.2148 35.7888L41.3773 28.2121C41.3771 28.2111 41.3766 28.2102 41.3757 28.2097C40.1545 27.3239 37.0835 25.5058 34.5588 25.3121C32.037 25.1186 29.5376 22.1318 28.5983 20.6558C28.5964 20.6527 28.5986 20.6486 28.6025 20.6481C31.4533 20.3246 37.8684 20.9679 40.8284 26.1184C40.8311 26.123 40.8389 26.1198 40.8379 26.1143L39.3891 18.2082C39.3889 18.2071 39.3883 18.2062 39.3875 18.2055C38.5007 17.5401 36.1755 16.0907 33.9575 15.6092C31.7428 15.1284 29.2441 12.9968 28.2653 11.985C28.2627 11.9824 28.2644 11.9778 28.2683 11.9769C30.434 11.4453 35.6215 11.6709 39.1391 16.8078C39.142 16.812 39.1492 16.809 39.1485 16.8038L38.7342 13.3674L38.7339 13.3663C37.6596 10.7408 36.3712 4.49272 39.8053 0.489085C39.8078 0.486166 39.8122 0.486147 39.8135 0.489331C40.307 1.63549 41.1539 4.68035 40.6157 7.74823C39.9441 11.5762 39.1522 12.6507 39.5876 15.7346C39.5883 15.7402 39.5966 15.7412 39.5975 15.7355C39.8872 13.8544 41.7135 9.29481 46.7698 5.81343C46.7735 5.81089 46.7782 5.81297 46.7774 5.8172C46.5496 7.1047 45.6229 10.2968 43.7193 12.8537C41.3337 16.0578 40.5469 15.7373 40.1261 17.8338C40.1259 17.8344 40.1259 17.835 40.126 17.8356L41.5515 26.1212C41.2349 24.2805 42.4748 19.2886 49.9656 14.0411C49.9692 14.0385 49.974 14.0405 49.9733 14.0447C49.7165 15.6797 48.5896 19.5724 46.1196 22.1495C43.6459 24.7307 42.4193 27.0159 42.1145 27.8374C42.1142 27.8383 42.1142 27.8392 42.1144 27.8401L43.8882 36.0879C43.8894 36.0931 43.8971 36.093 43.898 36.0874C44.3953 33.0509 46.7693 26.3642 52.3373 23.6829C52.3411 23.6811 52.345 23.6836 52.3441 23.6875C51.9794 25.2098 50.779 28.8749 48.874 31.4336C46.4881 34.6382 45.4261 34.6735 44.1023 37.8428L46.6172 43.6638L46.7886 43.6567C46.7914 43.6566 46.7934 43.6587 46.7932 43.6615L46.7645 44.0047L46.0565 44.0282L40.0094 44.5767Z" fill="#2B3825"/>
</svg>
