<svg width="1432" height="2092" viewBox="0 0 1432 2092" fill="none" xmlns="http://www.w3.org/2000/svg">
<g clip-path="url(#clip0_515_2)">
<path d="M1350.99 1212.56C1326.28 1214.03 1311.25 1207.5 1302.72 1199.77C1293.76 1191.63 1289.57 1179.21 1286.4 1167.53C1280.53 1145.91 1281.29 1113.31 1308.89 1081.94C1314.79 1075.25 1322.32 1070.29 1330.05 1065.84C1354.45 1051.81 1388.43 1028.67 1389.6 1013.21C1389.68 976.915 1404.02 910.747 1460.74 936.417C1480.14 945.48 1512.14 976.849 1493.76 1032.17C1491.6 1038.67 1489.34 1045.2 1488.85 1052.03C1487.24 1074.51 1490.83 1114.74 1512.6 1158.69C1519.5 1172.6 1525.91 1187.52 1523.75 1202.89C1519.04 1236.42 1495.43 1247.65 1473.63 1249.4C1458.18 1250.64 1444.1 1242.52 1430.65 1234.77L1430.09 1234.44C1409.85 1222.77 1380.41 1210.81 1350.99 1212.56Z" fill="#4F7344"/>
<path d="M1359.81 1194.42C1340.01 1196.05 1327.24 1191.57 1319.45 1185.7C1309.8 1178.43 1305.21 1165.94 1302.15 1154.24C1297.35 1135.88 1298.09 1109.24 1319.35 1082.95C1324.97 1075.99 1332.44 1070.87 1340.05 1066.19C1360.79 1053.43 1388.42 1033.3 1389.1 1020.14C1388.39 988.55 1399.44 930.675 1449.23 951.9C1466.1 959.339 1494.2 985.608 1480.3 1033.31C1478.38 1039.9 1476.26 1046.47 1476.02 1053.33C1475.36 1072.68 1479.38 1105.72 1497.58 1141.66C1504.59 1155.49 1511.65 1170.3 1509.16 1185.62C1505.03 1211.08 1487.41 1221.06 1470.12 1223.68C1454.62 1226.03 1440.13 1217.74 1426.24 1210.46C1408.57 1201.2 1384.05 1192.42 1359.81 1194.42Z" fill="#ACD1A1"/>
<path d="M1352.99 334.561C1328.28 336.029 1313.25 329.496 1304.72 321.765C1295.76 313.634 1291.57 301.209 1288.4 289.527C1282.53 267.915 1283.29 235.307 1310.89 203.941C1316.79 197.247 1324.32 192.285 1332.05 187.84C1356.45 173.806 1390.43 150.67 1391.6 135.208C1391.68 98.9151 1406.02 32.7468 1462.74 58.4175C1482.14 67.4797 1514.14 98.8489 1495.76 154.171C1493.6 160.669 1491.34 167.199 1490.85 174.029C1489.24 196.509 1492.83 236.737 1514.6 280.688C1521.5 294.599 1527.91 309.519 1525.75 324.894C1521.04 358.421 1497.43 369.653 1475.63 371.403C1460.18 372.644 1446.1 364.52 1432.65 356.766L1432.09 356.443C1411.85 344.77 1382.41 332.813 1352.99 334.561Z" fill="#4F7344"/>
<path d="M1361.81 316.42C1342.01 318.052 1329.24 313.569 1321.45 307.699C1311.8 300.433 1307.21 287.935 1304.15 276.237C1299.35 257.882 1300.09 231.244 1321.35 204.946C1326.97 197.993 1334.44 192.873 1342.05 188.191C1362.79 175.428 1390.42 155.297 1391.1 142.141C1390.39 110.55 1401.44 52.6747 1451.23 73.9001C1468.1 81.339 1496.2 107.608 1482.3 155.312C1480.38 161.898 1478.26 168.473 1478.02 175.329C1477.36 194.676 1481.38 227.723 1499.58 263.659C1506.59 277.491 1513.65 292.302 1511.16 307.616C1507.03 333.077 1489.41 343.058 1472.12 345.679C1456.62 348.03 1442.13 339.735 1428.24 332.46C1410.57 323.203 1386.05 314.423 1361.81 316.42Z" fill="#ACD1A1"/>
<path d="M1445.88 2078.62C1430.22 2097.8 1415.24 2104.43 1403.78 2105.47C1391.72 2106.56 1379.74 2101.23 1369 2095.65C1349.12 2085.32 1325.65 2062.68 1321.27 2021.13C1320.33 2012.26 1321.78 2003.36 1323.75 1994.66C1329.95 1967.2 1335.94 1926.54 1325.36 1915.2C1298.71 1890.56 1259.73 1835.2 1317.04 1810.85C1336.84 1802.72 1381.59 1800.42 1409.85 1851.41C1413.17 1857.4 1416.44 1863.48 1421.13 1868.47C1436.58 1884.88 1468.61 1909.48 1515.7 1923.23C1530.6 1927.58 1545.92 1932.97 1555.77 1944.97C1577.25 1971.14 1569.52 1996.12 1556.05 2013.34C1546.5 2025.55 1530.98 2030.41 1516.17 2035.05L1515.55 2035.24C1493.25 2042.23 1464.52 2055.79 1445.88 2078.62Z" fill="#4F7344"/>
<path d="M1438.5 2059.85C1426.29 2075.52 1414.35 2081.88 1404.75 2083.63C1392.88 2085.81 1380.57 2080.73 1369.89 2075.06C1353.13 2066.16 1334.04 2047.57 1329.09 2014.12C1327.78 2005.27 1329.07 1996.31 1330.78 1987.54C1335.44 1963.63 1339.34 1929.67 1330.12 1920.27C1306.4 1899.39 1271.29 1852.07 1320.63 1829.81C1337.54 1822.43 1375.89 1819.55 1401.57 1862.09C1405.12 1867.96 1408.52 1873.97 1413.4 1878.79C1427.19 1892.38 1454.22 1911.81 1492.99 1922.75C1507.92 1926.96 1523.59 1931.8 1533.18 1944C1549.11 1964.29 1544.52 1984.01 1534.74 1998.5C1525.97 2011.5 1510.06 2016.54 1495.3 2021.83C1476.52 2028.57 1453.45 2040.66 1438.5 2059.85Z" fill="#ACD1A1"/>
<path d="M-13.3244 1142.6C-37.5077 1152.94 -54.738 1151.56 -65.7823 1146.74C-76.8778 1141.9 -84.9718 1131.67 -91.9891 1121.81C-105.582 1102.7 -116.733 1070.05 -100.261 1028.96C-96.9433 1020.68 -91.5421 1013.47 -85.7588 1006.68C-66.7522 984.378 -41.2715 949.441 -45.5819 933.787C-58.2625 898.215 -67.4785 828.371 -2.89821 833.572C19.3327 835.635 61.8388 855.194 63.1004 916.161L63.113 916.774C63.249 923.419 63.3861 930.123 65.1554 936.527C71.4196 959.199 89.2518 997.908 126.711 1033.69C137.937 1044.41 148.937 1056.31 152.275 1071.47C160.108 1107.04 140.104 1126.67 118.854 1135.97C104.459 1142.27 88.2388 1139.26 72.7876 1136.4C48.7866 1131.95 15.2493 1130.39 -13.3244 1142.6Z" fill="#4F7344"/>
<path d="M-11.0634 1121.73C-30.3397 1130.5 -44.6403 1130.39 -54.3527 1127.15C-65.8108 1123.34 -74.3021 1113.17 -81.2332 1103.26C-92.6482 1086.94 -101.686 1060.16 -89.6891 1026.27C-86.7058 1017.84 -81.4204 1010.49 -75.829 1003.52C-59.9477 983.727 -39.6486 953.97 -43.6395 940.755C-55.4319 910.062 -64.9608 849.498 -8.73734 852.785C10.4587 854.141 47.3481 870.074 50.3353 922.005C50.7292 928.853 50.9609 935.758 53.0309 942.299C59.1375 961.593 74.8815 993.108 106.022 1022.29C117.336 1032.9 128.884 1044.47 131.934 1059.69C137.43 1087.1 122.961 1103.44 106.403 1112.07C92.5007 1119.32 76.1122 1116.47 60.5923 1114.23C39.9195 1111.24 12.3348 1111.09 -11.0634 1121.73Z" fill="#ACD1A1"/>
<path d="M1426.99 1059.37C1424.14 1062.75 1417.61 1072.28 1414.27 1083.43C1410.94 1094.57 1402.09 1100.64 1398.08 1102.29C1398.07 1102.29 1398.07 1102.29 1398.07 1102.29C1397.44 1093.72 1401.2 1073.4 1421.3 1060.58L1395.14 1066.15C1391.91 1069.61 1384.97 1078.75 1383.07 1087.7C1381.17 1096.64 1370.29 1105.83 1365.08 1109.31C1365.08 1109.31 1365.08 1109.31 1365.08 1109.31C1364.75 1100.28 1368.93 1079.32 1388.31 1067.6L1359.87 1073.66C1357.91 1075.65 1353.3 1081.93 1350.49 1091.07C1347.68 1100.2 1338.53 1107.45 1334.3 1109.93C1334.29 1109.94 1334.29 1109.93 1334.29 1109.93C1334.74 1102.71 1339.35 1085.61 1354.18 1074.87L1348.66 1076.89L1346.46 1077.7C1338.9 1081.28 1318.22 1084.66 1301.47 1073.05C1301.47 1073.04 1301.47 1073.04 1301.47 1073.04C1307.17 1071.83 1320.55 1069.93 1328.6 1072.01C1334.33 1073.49 1342.23 1074.27 1348.18 1074.62L1351.3 1073.93C1332.91 1067.5 1323.81 1055.34 1321.49 1049.81C1321.49 1049.8 1321.5 1049.8 1321.5 1049.8C1327.51 1050.1 1339.23 1053.11 1343.73 1059.3C1349.29 1066.94 1353.97 1070.45 1357.67 1072.52L1384.47 1066.59C1373.6 1063.31 1356.02 1054.87 1350.35 1040.11C1350.35 1040.1 1350.35 1040.1 1350.36 1040.1C1356.61 1041.54 1370.4 1046.04 1375.59 1052.52C1379.85 1057.85 1387.37 1062.38 1392.33 1064.85L1417.48 1059.28C1407.19 1055.41 1390.33 1046.26 1383.1 1031.95C1383.1 1031.95 1383.1 1031.94 1383.11 1031.94C1388.45 1032.79 1401.45 1036.58 1410.85 1045.01C1417.75 1051.2 1422.42 1055.34 1425 1057.62L1445.34 1053.12L1431.16 1034.27L1431.16 1034.27C1426.25 1032.36 1417.9 1030.06 1410.23 1030.91C1400.94 1031.94 1388.94 1023.99 1384.1 1019.87C1384.1 1019.87 1384.1 1019.87 1384.1 1019.87C1390.75 1015.69 1409.01 1011.73 1428.92 1029.31L1415.64 1006.04C1415.64 1006.04 1415.64 1006.04 1415.64 1006.04C1410.82 1003.9 1399.1 999.835 1390.71 1000.67C1382.33 1001.51 1371.32 993.341 1366.86 989.148C1366.86 989.145 1366.86 989.141 1366.86 989.14C1375.8 986.449 1397.31 984.799 1411.89 999.693C1411.9 999.697 1411.9 999.693 1411.9 999.688L1399.54 975.072C1399.54 975.071 1399.54 975.07 1399.53 975.07C1396.02 973.446 1387.07 970.133 1379.4 969.867C1371.74 969.601 1361.55 964.185 1357.41 961.506C1357.41 961.504 1357.41 961.499 1357.41 961.497C1363.92 958.535 1381.01 956.246 1397.42 970.759C1397.42 970.762 1397.43 970.758 1397.42 970.753L1392.74 959.912L1392.74 959.911C1386.72 952.1 1376.5 932.772 1383.8 917.934C1383.81 917.931 1383.81 917.93 1383.81 917.933C1386.51 921.316 1392.21 930.614 1393.43 940.787C1394.95 953.497 1393.4 957.391 1397.83 967.095C1397.83 967.1 1397.84 967.1 1397.84 967.094C1396.94 960.939 1398.43 945.164 1411.55 931.006C1411.56 931.003 1411.56 931.004 1411.56 931.008C1412.07 935.256 1412.15 946.062 1408.43 955.387C1403.78 967.051 1400.91 966.475 1401.57 973.451C1401.57 973.451 1401.57 973.452 1401.57 973.452L1414.19 999.232C1411.39 993.504 1410.6 976.754 1429.86 955.575C1429.87 955.572 1429.87 955.573 1429.87 955.578C1430.62 960.96 1430.73 974.131 1425.19 983.845C1419.65 993.563 1417.87 1001.61 1417.67 1004.42C1417.67 1004.42 1417.67 1004.42 1417.67 1004.42L1431.42 1029.94C1431.42 1029.94 1431.43 1029.94 1431.43 1029.93C1430.1 1019.93 1431.33 997.007 1446.87 985.166C1446.87 985.164 1446.87 985.165 1446.87 985.169C1447.16 990.253 1446.8 1002.73 1443.08 1012.06C1438.43 1023.73 1435.02 1024.45 1433.78 1035.39L1447.56 1052.63L1448.12 1052.5C1448.12 1052.5 1448.12 1052.5 1448.12 1052.51L1448.36 1053.64L1446.09 1054.12L1426.99 1059.37Z" fill="#2B3825"/>
<path d="M1428.99 181.372C1426.14 184.746 1419.61 194.281 1416.27 205.428C1412.94 216.57 1404.09 222.645 1400.08 224.293C1400.07 224.294 1400.07 224.292 1400.07 224.289C1399.44 215.722 1403.2 195.398 1423.3 182.582L1397.14 188.151C1393.91 191.606 1386.97 200.751 1385.07 209.696C1383.17 218.637 1372.29 227.828 1367.08 231.312C1367.08 231.314 1367.08 231.312 1367.08 231.308C1366.75 222.281 1370.93 201.317 1390.31 189.604L1361.87 195.657C1359.91 197.654 1355.3 203.933 1352.49 213.071C1349.68 222.204 1340.53 229.448 1336.3 231.934C1336.29 231.936 1336.29 231.933 1336.29 231.929C1336.74 224.712 1341.35 207.611 1356.18 196.867L1350.66 198.888L1348.46 199.697C1340.9 203.282 1320.22 206.656 1303.47 195.045C1303.47 195.043 1303.47 195.037 1303.47 195.036C1309.17 193.826 1322.55 191.928 1330.6 194.009C1336.33 195.489 1344.23 196.267 1350.18 196.623L1353.3 195.932C1334.91 189.503 1325.81 177.338 1323.49 171.806C1323.49 171.802 1323.5 171.799 1323.5 171.799C1329.51 172.104 1341.23 175.11 1345.73 181.299C1351.29 188.945 1355.97 192.451 1359.67 194.521L1386.47 188.59C1375.6 185.309 1358.02 176.866 1352.35 162.108C1352.35 162.105 1352.35 162.101 1352.36 162.102C1358.61 163.541 1372.4 168.036 1377.59 174.52C1381.85 179.852 1389.37 184.384 1394.33 186.851L1419.48 181.285C1409.19 177.408 1392.33 168.263 1385.1 153.952C1385.1 153.948 1385.1 153.944 1385.11 153.945C1390.45 154.79 1403.45 158.583 1412.85 167.014C1419.75 173.196 1424.42 177.344 1427 179.621L1447.34 175.119L1433.16 156.267L1433.16 156.267C1428.25 154.359 1419.9 152.064 1412.23 152.914C1402.94 153.942 1390.94 145.985 1386.1 141.874C1386.1 141.872 1386.1 141.868 1386.1 141.866C1392.75 137.687 1411.01 133.728 1430.92 151.309L1417.64 128.042C1417.64 128.041 1417.64 128.04 1417.64 128.04C1412.82 125.901 1401.1 121.835 1392.71 122.67C1384.33 123.505 1373.32 115.341 1368.86 111.148C1368.86 111.146 1368.86 111.141 1368.86 111.14C1377.8 108.449 1399.31 106.799 1413.89 121.693C1413.9 121.697 1413.9 121.693 1413.9 121.688L1401.54 97.0722C1401.54 97.0712 1401.54 97.0704 1401.53 97.07C1398.02 95.4459 1389.07 92.1328 1381.4 91.8669C1373.74 91.6011 1363.55 86.1853 1359.41 83.5058C1359.41 83.5037 1359.41 83.4991 1359.41 83.4974C1365.92 80.5346 1383.01 78.2456 1399.42 92.7588C1399.42 92.7624 1399.43 92.7583 1399.42 92.7533L1394.74 81.9117L1394.74 81.9106C1388.72 74.0999 1378.5 54.7721 1385.8 39.9339C1385.81 39.9307 1385.81 39.9299 1385.81 39.9327C1388.51 43.3165 1394.21 52.614 1395.43 62.7873C1396.95 75.4969 1395.4 79.3908 1399.83 89.0949C1399.83 89.1002 1399.84 89.1 1399.84 89.0943C1398.94 82.9391 1400.43 67.164 1413.55 53.0057C1413.56 53.0026 1413.56 53.0038 1413.56 53.008C1414.07 57.2565 1414.15 68.0622 1410.43 77.3867C1405.78 89.0513 1402.91 88.4751 1403.57 95.4508C1403.57 95.4514 1403.57 95.452 1403.57 95.4525L1416.19 121.232C1413.39 115.504 1412.6 98.7539 1431.86 77.5755C1431.87 77.5724 1431.87 77.5734 1431.87 77.5776C1432.62 82.96 1432.73 96.1315 1427.19 105.845C1421.65 115.563 1419.87 123.61 1419.67 126.42C1419.67 126.421 1419.67 126.422 1419.67 126.423L1433.42 151.935C1433.42 151.94 1433.43 151.939 1433.43 151.933C1432.1 141.926 1433.33 119.007 1448.87 107.166C1448.87 107.164 1448.87 107.165 1448.87 107.169C1449.16 112.254 1448.8 124.734 1445.08 134.061C1440.43 145.726 1437.02 146.452 1435.78 157.391L1449.56 174.627L1450.12 174.503C1450.12 174.502 1450.12 174.504 1450.12 174.507L1450.36 175.637L1448.09 176.121L1428.99 181.372Z" fill="#2B3825"/>
<path d="M1441.13 1508.87C1439.91 1512.57 1437.69 1522.5 1438.61 1532.7C1439.54 1542.9 1434.29 1550.76 1431.55 1553.43C1431.55 1553.43 1431.55 1553.43 1431.54 1553.43C1428.22 1546.63 1424.65 1528.78 1436.88 1511.73L1417.31 1524.85C1415.8 1528.73 1413.13 1538.47 1414.51 1546.41C1415.88 1554.34 1410 1565.41 1406.88 1569.97C1406.88 1569.97 1406.87 1569.97 1406.87 1569.97C1403.65 1562.69 1400.2 1544.19 1412.21 1528.27L1390.94 1542.53C1390 1544.8 1388.28 1551.44 1388.98 1559.83C1389.67 1568.22 1384.56 1577.14 1381.92 1580.55C1381.91 1580.56 1381.91 1580.56 1381.91 1580.55C1379.91 1574.51 1378.08 1559.02 1386.69 1545.38L1382.84 1548.84L1381.3 1550.22C1376.29 1555.63 1360.49 1565.16 1343.01 1561.15C1343 1561.15 1343 1561.14 1343 1561.14C1347.26 1558.28 1357.58 1552.35 1364.84 1551.42C1370.01 1550.75 1376.72 1548.8 1381.7 1547.14L1384.03 1545.56C1366.89 1546.32 1355.47 1539.36 1351.76 1535.6C1351.76 1535.59 1351.76 1535.59 1351.77 1535.59C1356.78 1533.87 1367.34 1532.49 1373.05 1536.08C1380.1 1540.5 1385.07 1541.84 1388.78 1542.32L1408.74 1528.69C1398.77 1529.57 1381.65 1528.43 1372.18 1518.22C1372.17 1518.22 1372.18 1518.21 1372.18 1518.21C1377.77 1517.34 1390.51 1516.5 1396.87 1520.1C1402.1 1523.07 1409.73 1524.31 1414.59 1524.7L1433.33 1511.92C1423.65 1512.12 1406.88 1510.16 1396.28 1500.83C1396.28 1500.83 1396.28 1500.82 1396.28 1500.82C1400.92 1499.76 1412.8 1498.61 1423.24 1502.42C1430.9 1505.22 1436.08 1507.08 1438.93 1508.1L1454.08 1497.76L1436.32 1486.99L1436.32 1486.99C1431.68 1487.04 1424.11 1487.89 1418.12 1491.1C1410.86 1494.98 1398.45 1492.4 1393.14 1490.63C1393.14 1490.63 1393.14 1490.62 1393.14 1490.62C1397.21 1485.03 1410.83 1475.82 1432.87 1483.67L1414.4 1468.99C1414.39 1468.99 1414.39 1468.99 1414.39 1468.99C1409.76 1468.82 1398.84 1469.34 1392.26 1472.77C1385.68 1476.19 1374.01 1473.12 1368.99 1471.16C1368.98 1471.16 1368.98 1471.15 1368.99 1471.15C1375.41 1466.02 1392.45 1457.63 1409.25 1465.03C1409.25 1465.03 1409.26 1465.03 1409.25 1465.02L1391.09 1448.95C1391.09 1448.95 1391.09 1448.95 1391.09 1448.95C1387.68 1448.77 1379.28 1449 1372.93 1451.29C1366.58 1453.58 1356.48 1452.49 1352.21 1451.65C1352.21 1451.65 1352.21 1451.65 1352.21 1451.65C1356.56 1447.09 1369.78 1439.63 1387.94 1446.12C1387.95 1446.12 1387.95 1446.11 1387.95 1446.11L1380.57 1438.78L1380.57 1438.78C1373.09 1434.37 1358.41 1421.91 1359.52 1407.4C1359.52 1407.39 1359.53 1407.39 1359.53 1407.39C1362.85 1409.27 1370.55 1415.01 1374.87 1422.92C1380.27 1432.82 1380.28 1436.51 1387.08 1442.99C1387.08 1442.99 1387.09 1442.99 1387.09 1442.98C1384.34 1438.24 1380.4 1424.86 1386.49 1408.99C1386.49 1408.99 1386.49 1408.99 1386.49 1408.99C1388.3 1412.3 1391.9 1421.11 1391.91 1429.95C1391.93 1441.01 1389.4 1441.47 1392.22 1446.96C1392.22 1446.96 1392.22 1446.96 1392.22 1446.96L1410.98 1463.9C1406.81 1460.14 1400.68 1446.71 1409.5 1423.08C1409.5 1423.08 1409.51 1423.08 1409.51 1423.08C1411.88 1427.24 1416.28 1437.97 1414.93 1447.72C1413.58 1457.48 1414.77 1464.64 1415.53 1467C1415.53 1467 1415.53 1467 1415.53 1467.01L1435.11 1483.36C1435.12 1483.36 1435.13 1483.36 1435.12 1483.35C1430.76 1475.61 1424.27 1456.47 1433.08 1441.71C1433.09 1441.7 1433.09 1441.7 1433.09 1441.71C1434.99 1445.77 1438.79 1456.09 1438.8 1464.93C1438.82 1475.99 1436.26 1477.7 1438.83 1487.05L1455.74 1496.63L1456.16 1496.34C1456.16 1496.34 1456.16 1496.34 1456.16 1496.34L1456.73 1497.19L1455.03 1498.33L1441.13 1508.87Z" fill="#2B3825"/>
<path d="M1437.13 643.874C1435.91 647.565 1433.69 657.498 1434.61 667.703C1435.54 677.902 1430.29 685.765 1427.55 688.427C1427.55 688.429 1427.55 688.428 1427.54 688.425C1424.22 681.628 1420.65 663.782 1432.88 646.726L1413.31 659.846C1411.8 663.727 1409.13 673.473 1410.51 681.408C1411.88 689.338 1406 700.413 1402.88 704.966C1402.88 704.969 1402.87 704.969 1402.87 704.965C1399.65 697.694 1396.2 679.189 1408.21 663.268L1386.94 677.529C1386 679.801 1384.28 686.443 1384.98 694.834C1385.67 703.219 1380.56 712.136 1377.92 715.554C1377.91 715.558 1377.91 715.557 1377.91 715.553C1375.91 709.505 1374.08 694.019 1382.69 680.381L1378.84 683.839L1377.3 685.222C1372.29 690.628 1356.49 700.157 1339.01 696.148C1339 696.147 1339 696.142 1339 696.139C1343.26 693.285 1353.58 687.355 1360.84 686.42C1366.01 685.754 1372.72 683.801 1377.7 682.145L1380.03 680.559C1362.89 681.323 1351.47 674.361 1347.76 670.596C1347.76 670.593 1347.76 670.589 1347.77 670.588C1352.78 668.868 1363.34 667.49 1369.05 671.075C1376.1 675.505 1381.07 676.838 1384.78 677.318L1404.74 663.694C1394.77 664.574 1377.65 663.427 1368.18 653.221C1368.17 653.218 1368.18 653.213 1368.18 653.213C1373.77 652.341 1386.51 651.5 1392.87 655.104C1398.1 658.067 1405.73 659.309 1410.59 659.702L1429.33 646.917C1419.65 647.117 1402.88 645.16 1392.28 635.83C1392.28 635.827 1392.28 635.822 1392.28 635.821C1396.92 634.764 1408.8 633.607 1419.24 637.421C1426.9 640.217 1432.08 642.079 1434.93 643.095L1450.08 632.756L1432.32 621.986L1432.32 621.986C1427.68 622.036 1420.11 622.891 1414.12 626.098C1406.86 629.981 1394.45 627.404 1389.14 625.629C1389.14 625.628 1389.14 625.624 1389.14 625.622C1393.21 620.029 1406.83 610.816 1428.87 618.668L1410.4 603.995C1410.39 603.994 1410.39 603.994 1410.39 603.994C1405.76 603.823 1394.84 604.338 1388.26 607.765C1381.68 611.192 1370.01 608.123 1364.99 606.157C1364.98 606.155 1364.98 606.151 1364.99 606.149C1371.41 601.022 1388.45 592.634 1405.25 600.03C1405.25 600.033 1405.26 600.026 1405.25 600.022L1387.09 583.951C1387.09 583.951 1387.09 583.95 1387.09 583.95C1383.68 583.774 1375.28 583.996 1368.93 586.289C1362.58 588.58 1352.48 587.488 1348.21 586.654C1348.21 586.653 1348.21 586.649 1348.21 586.646C1352.56 582.093 1365.78 574.627 1383.94 581.119C1383.95 581.121 1383.95 581.114 1383.95 581.111L1376.57 573.783L1376.57 573.782C1369.09 569.369 1354.41 556.914 1355.52 542.395C1355.52 542.391 1355.53 542.389 1355.53 542.391C1358.85 544.272 1366.55 550.006 1370.87 557.924C1376.27 567.816 1376.28 571.505 1383.08 577.986C1383.08 577.99 1383.09 577.986 1383.09 577.981C1380.34 573.241 1376.4 559.861 1382.49 543.995C1382.49 543.991 1382.49 543.99 1382.49 543.994C1384.3 547.302 1387.9 556.109 1387.91 564.948C1387.93 576.006 1385.4 576.473 1388.22 581.96C1388.22 581.96 1388.22 581.961 1388.22 581.961L1406.98 598.903C1402.81 595.138 1396.68 581.705 1405.5 558.085C1405.5 558.081 1405.51 558.08 1405.51 558.083C1407.88 562.24 1412.28 572.971 1410.93 582.724C1409.58 592.482 1410.77 599.642 1411.53 602.003C1411.53 602.004 1411.53 602.005 1411.53 602.005L1431.11 618.358C1431.12 618.362 1431.13 618.358 1431.12 618.353C1426.76 610.605 1420.27 591.471 1429.08 576.707C1429.09 576.704 1429.09 576.704 1429.09 576.707C1430.99 580.77 1434.79 591.088 1434.8 599.93C1434.82 610.989 1432.26 612.7 1434.83 622.048L1451.74 631.626L1452.16 631.342C1452.16 631.34 1452.16 631.341 1452.16 631.343L1452.73 632.187L1451.03 633.328L1437.13 643.874Z" fill="#2B3825"/>
<path d="M1422.47 1929.26C1418.83 1931.76 1410.01 1939.24 1403.86 1949.11C1397.7 1958.98 1387.57 1962.51 1383.26 1963.04C1383.26 1963.04 1383.26 1963.04 1383.26 1963.04C1384.91 1954.61 1393.89 1935.99 1416.66 1928.93L1389.95 1927.4C1385.93 1929.88 1376.83 1936.88 1372.64 1945.01C1368.45 1953.13 1355.53 1959.13 1349.59 1961.12C1349.58 1961.12 1349.58 1961.11 1349.58 1961.11C1351.64 1952.32 1361.2 1933.19 1382.98 1927L1353.95 1925.35C1351.54 1926.76 1345.44 1931.6 1340.32 1939.67C1335.2 1947.74 1324.46 1952.32 1319.73 1953.6C1319.72 1953.6 1319.72 1953.6 1319.72 1953.59C1322.06 1946.75 1331.01 1931.47 1348.15 1925.01L1342.29 1925.51L1339.95 1925.71C1331.71 1927.17 1310.88 1924.98 1297.79 1909.36C1297.78 1909.36 1297.79 1909.36 1297.79 1909.36C1303.6 1909.69 1317.01 1911.39 1324.22 1915.51C1329.36 1918.45 1336.78 1921.29 1342.43 1923.2L1345.62 1923.35C1329.58 1912.31 1324 1898.17 1323.22 1892.22C1323.22 1892.22 1323.23 1892.22 1323.23 1892.22C1328.95 1894.1 1339.46 1900.09 1342.17 1907.24C1345.52 1916.08 1349.11 1920.7 1352.14 1923.67L1379.55 1925.02C1369.92 1918.98 1355.2 1906.21 1353.62 1890.48C1353.62 1890.47 1353.62 1890.47 1353.62 1890.47C1359.28 1893.51 1371.4 1901.48 1374.69 1909.1C1377.39 1915.37 1383.45 1921.72 1387.59 1925.41L1413.32 1926.67C1404.41 1920.22 1390.56 1906.95 1387.36 1891.24C1387.36 1891.24 1387.36 1891.23 1387.37 1891.24C1392.29 1893.46 1403.84 1900.55 1410.69 1911.16C1415.71 1918.94 1419.12 1924.17 1421.01 1927.05L1441.81 1928.06L1433.11 1906.14L1433.11 1906.14C1428.87 1903.01 1421.43 1898.59 1413.8 1897.39C1404.57 1895.93 1395.09 1885.1 1391.51 1879.85C1391.51 1879.85 1391.51 1879.85 1391.51 1879.85C1399.02 1877.57 1417.68 1878.56 1432.25 1900.77L1425.58 1874.82C1425.58 1874.82 1425.58 1874.82 1425.58 1874.82C1421.49 1871.49 1411.25 1864.48 1402.95 1863.07C1394.64 1861.67 1386.18 1850.89 1382.98 1845.67C1382.97 1845.67 1382.98 1845.66 1382.98 1845.66C1392.31 1845.42 1413.49 1849.5 1423.64 1867.71C1423.64 1867.72 1423.65 1867.71 1423.65 1867.71L1418.21 1840.71C1418.21 1840.7 1418.21 1840.7 1418.2 1840.7C1415.24 1838.21 1407.48 1832.65 1400.15 1830.38C1392.83 1828.1 1384.44 1820.19 1381.15 1816.51C1381.14 1816.51 1381.15 1816.51 1381.15 1816.51C1388.21 1815.36 1405.3 1817.66 1417.3 1835.99C1417.3 1835.99 1417.31 1835.99 1417.31 1835.98L1415.65 1824.29L1415.65 1824.29C1411.9 1815.17 1407.14 1793.83 1418.09 1781.44C1418.09 1781.44 1418.1 1781.44 1418.1 1781.44C1419.81 1785.42 1422.86 1795.89 1421.35 1806.02C1419.46 1818.68 1416.95 1822.03 1418.66 1832.56C1418.66 1832.57 1418.67 1832.57 1418.67 1832.56C1419.43 1826.39 1425.02 1811.56 1441.41 1801.36C1441.42 1801.36 1441.42 1801.37 1441.42 1801.37C1440.79 1805.6 1438.02 1816.05 1431.97 1824.06C1424.41 1834.09 1421.8 1832.77 1420.59 1839.68C1420.59 1839.68 1420.59 1839.68 1420.59 1839.68L1425.97 1867.87C1424.78 1861.61 1428.43 1845.24 1452.6 1829.89C1452.6 1829.89 1452.61 1829.89 1452.61 1829.9C1451.91 1835.29 1448.54 1848.02 1440.64 1855.93C1432.73 1863.84 1428.9 1871.14 1427.97 1873.8C1427.97 1873.8 1427.97 1873.8 1427.97 1873.8L1434.5 1902.03C1434.5 1902.04 1434.51 1902.04 1434.51 1902.03C1435.87 1892.03 1443.1 1870.25 1461.2 1862.92C1461.2 1862.92 1461.21 1862.92 1461.21 1862.92C1460.14 1867.9 1456.51 1879.85 1450.46 1887.86C1442.9 1897.89 1439.42 1897.69 1435.34 1907.92L1444.09 1928.18L1444.66 1928.2C1444.66 1928.2 1444.66 1928.21 1444.66 1928.21L1444.6 1929.36L1442.28 1929.23L1422.47 1929.26Z" fill="#2B3825"/>
<path d="M-5.14305 934.151C-6.43448 930.075 -10.8688 919.802 -18.2748 911.314C-25.6768 902.83 -26.0828 892.448 -25.3598 888.311C-25.3593 888.308 -25.3559 888.306 -25.3529 888.308C-18.0117 892.215 -3.31221 905.791 -3.19703 928.867L5.75463 904.565C4.59293 900.137 0.683916 889.737 -5.65854 883.561C-11.998 877.388 -13.9083 863.734 -14.0716 857.671C-14.0717 857.667 -14.0678 857.664 -14.0644 857.666C-6.50119 862.056 8.50624 876.306 8.08984 898.225L17.8199 871.809C17.1932 869.178 14.4319 862.161 8.40076 855.14C2.37349 848.123 1.16671 836.889 1.31654 832.139C1.31666 832.135 1.32089 832.133 1.32413 832.136C7.00139 836.231 18.6261 848.833 19.7659 866.526L20.9592 860.965L21.4365 858.741C22.4042 850.699 30.3203 832.022 48.4728 824.308C48.4768 824.307 48.4811 824.31 48.4796 824.314C46.5304 829.603 41.1758 841.537 35.3163 847.054C31.1455 850.981 26.4265 857.053 23.0633 861.74L22.0177 864.652C36.7759 852.916 51.4404 851.741 57.1648 852.703C57.1684 852.703 57.1699 852.707 57.1678 852.71C53.8135 857.477 45.302 865.518 37.9093 866.009C28.7765 866.615 23.489 868.637 19.8816 870.6L10.9001 895.609C19.2045 888.394 35.1907 878.365 50.2053 881.339C50.2093 881.34 50.211 881.345 50.2082 881.348C45.799 885.727 34.998 894.698 27.0116 895.595C20.4443 896.332 12.85 900.149 8.26778 902.938L-0.160645 926.408C8.32737 919.983 24.5188 910.904 39.9719 912.371C39.9759 912.371 39.9781 912.376 39.9754 912.379C36.5269 916.314 26.7043 925.006 14.9463 928.35C6.32576 930.802 0.51583 932.486 -2.67992 933.422L-9.49605 952.402L13.2602 950.529L13.2607 950.529C17.3605 947.49 23.5479 941.844 26.8144 935.122C30.7697 926.982 43.4795 921.268 49.3465 919.426C49.3497 919.425 49.3527 919.427 49.3527 919.43C49.3433 927.031 43.1568 944.026 18.4794 951.252L44.3875 952.395C44.3885 952.395 44.3895 952.395 44.3904 952.394C48.6285 949.555 58.0131 942.053 61.658 934.756C65.3017 927.462 77.6719 922.664 83.4099 921.173C83.4136 921.172 83.4167 921.176 83.4157 921.179C81.0022 929.89 71.2504 948.349 51.5225 952.604C51.5169 952.605 51.5171 952.614 51.5228 952.614L78.0634 955.199C78.0645 955.199 78.0656 955.199 78.0665 955.199C81.2129 953.157 88.5469 947.539 92.7234 941.399C96.8979 935.261 106.591 929.718 110.924 927.71C110.928 927.708 110.932 927.711 110.931 927.715C109.997 934.574 103.044 949.753 82.6917 955.689C82.6866 955.691 82.6867 955.698 82.692 955.699L93.9864 957.464L93.9876 957.464C103.493 956.566 124.595 958.181 132.976 971.82C132.978 971.823 132.977 971.828 132.973 971.828C128.806 972.294 118.25 972.161 109.292 967.902C98.1018 962.581 95.7111 959.305 85.4779 957.922C85.4722 957.921 85.4679 957.928 85.4731 957.931C90.9777 960.374 103.125 969.739 107.942 987.795C107.943 987.799 107.94 987.803 107.936 987.801C104.196 986.021 95.307 980.506 89.592 972.645C82.4427 962.812 84.3929 960.765 78.3414 957.701C78.3409 957.701 78.3403 957.701 78.3397 957.701L50.7124 954.724C56.8512 955.386 70.9754 963.387 78.368 990.102C78.3691 990.106 78.3654 990.11 78.3616 990.108C73.5685 987.94 62.7283 981.225 57.6346 971.674C52.5384 962.118 46.8661 956.509 44.6657 954.898C44.6649 954.897 44.6641 954.897 44.6631 954.897L16.6744 952.979C16.6689 952.978 16.6661 952.985 16.6711 952.988C25.5525 957.068 43.683 969.909 45.3587 988.743C45.359 988.747 45.3551 988.75 45.3516 988.748C41.04 986.358 31.0041 979.621 25.2879 971.759C18.1382 961.926 19.3058 958.756 10.9886 952.092L-10.2406 954.475L-10.4284 954.998C-10.4294 955.001 -10.4323 955.002 -10.4349 955.001L-11.484 954.615L-10.7056 952.502L-5.14305 934.151Z" fill="#2B3825"/>
<path d="M-33.5476 1459.33C-33.2856 1455.06 -33.7254 1443.88 -37.5802 1433.29C-41.433 1422.72 -38.0754 1412.88 -35.9118 1409.28C-35.91 1409.28 -35.9062 1409.28 -35.904 1409.28C-30.4611 1415.57 -21.6328 1433.53 -29.8305 1455.1L-12.7321 1435.65C-12.2223 1431.1 -12.1265 1419.99 -15.8211 1411.94C-19.5139 1403.9 -16.3824 1390.47 -14.3523 1384.76C-14.351 1384.75 -14.3465 1384.75 -14.3441 1384.76C-8.86766 1391.58 0.00570019 1410.27 -8.27164 1430.57L10.3136 1409.43C10.6757 1406.75 10.6249 1399.21 7.52504 1390.49C4.42712 1381.77 7.34432 1370.85 9.19342 1366.48C9.19498 1366.47 9.19967 1366.47 9.20185 1366.48C13.0246 1372.34 19.3348 1388.28 14.0307 1405.2L17.1452 1400.44L18.391 1398.54C22.1882 1391.38 36.2958 1376.81 56.0081 1376.14C56.0124 1376.14 56.0153 1376.15 56.0124 1376.15C52.2904 1380.38 42.9994 1389.59 35.5471 1392.63C30.2425 1394.79 23.6541 1398.76 18.8293 1401.92L16.806 1404.26C34.799 1398.62 48.9039 1402.8 53.8983 1405.76C53.9015 1405.76 53.9015 1405.77 53.8984 1405.77C49.0535 1409.01 38.2182 1413.45 31.1443 1411.25C22.4054 1408.52 16.7443 1408.51 12.6723 1409.04L-4.7082 1429.14C5.63622 1425.4 24.1608 1421.8 37.0988 1429.97C37.1022 1429.98 37.1022 1429.98 37.0985 1429.98C31.4085 1432.48 18.1026 1436.97 10.3288 1434.93C3.93625 1433.25 -4.5231 1434.08 -9.80208 1435.03L-26.1123 1453.9C-15.8809 1450.96 2.49323 1448.31 16.3827 1455.24C16.3863 1455.25 16.3868 1455.25 16.3832 1455.25C11.7494 1457.68 -0.543136 1462.26 -12.7169 1461.15C-21.6423 1460.33 -27.6687 1459.81 -30.9875 1459.53L-44.1777 1474.79L-22.2724 1481.23L-22.272 1481.23C-17.353 1479.87 -9.5481 1476.83 -4.08119 1471.73C2.53857 1465.56 16.4533 1464.81 22.5901 1465.2C22.5935 1465.2 22.5955 1465.2 22.5943 1465.21C19.8498 1472.29 7.96138 1485.92 -17.6628 1483.78L6.09752 1494.18C6.09849 1494.18 6.09952 1494.18 6.10056 1494.18C11.0767 1493.05 22.5324 1489.43 28.5591 1483.93C34.5837 1478.44 47.8521 1478.42 53.7418 1479.09C53.7457 1479.09 53.7475 1479.09 53.7452 1479.1C48.3584 1486.36 32.6165 1500.07 12.6792 1496.94C12.6735 1496.94 12.6707 1496.95 12.6758 1496.95L36.5075 1508.91C36.5086 1508.91 36.5096 1508.91 36.5107 1508.91C40.1813 1508.14 49.0454 1505.54 55.152 1501.31C61.2558 1497.09 72.2946 1495.41 77.0602 1495.09C77.0642 1495.09 77.0667 1495.09 77.0648 1495.1C73.7243 1501.16 61.7744 1512.82 40.6494 1511.03C40.6441 1511.03 40.6415 1511.04 40.6461 1511.04L50.5484 1516.76L50.5495 1516.76C59.7413 1519.34 78.8482 1528.44 81.7587 1544.18C81.7593 1544.19 81.7564 1544.19 81.7528 1544.19C77.6975 1543.12 67.8964 1539.2 61.072 1532C52.5464 1523.01 51.4951 1519.09 42.4455 1514.12C42.4404 1514.12 42.4337 1514.12 42.4378 1514.13C46.6941 1518.39 54.6573 1531.5 52.653 1550.08C52.6525 1550.08 52.6476 1550.08 52.6447 1550.08C49.7961 1547.07 43.4878 1538.73 40.9848 1529.34C37.8535 1517.59 40.4097 1516.38 35.8665 1511.35C35.8661 1511.35 35.8655 1511.35 35.865 1511.35L11.1603 1498.62C16.6497 1501.45 26.9477 1514 24.2303 1541.58C24.2298 1541.59 24.225 1541.59 24.222 1541.59C20.5305 1537.84 12.8332 1527.67 11.5184 1516.93C10.2029 1506.18 6.9295 1498.91 5.45649 1496.61C5.45597 1496.61 5.45529 1496.61 5.45443 1496.61L-19.9684 1484.75C-19.9734 1484.74 -19.9787 1484.75 -19.9748 1484.75C-13.1571 1491.76 -0.863252 1510.26 -6.07813 1528.44C-6.07924 1528.44 -6.08397 1528.44 -6.08654 1528.44C-9.24897 1524.66 -16.1878 1514.76 -18.6915 1505.37C-21.8229 1493.62 -19.5927 1491.08 -24.9543 1481.87L-45.6185 1476.46L-45.982 1476.88C-45.9838 1476.88 -45.987 1476.88 -45.9891 1476.88L-46.8288 1476.14L-45.342 1474.45L-33.5476 1459.33Z" fill="#2B3825"/>
<path d="M107.129 1902.99C143.363 1932.48 151.014 1960.91 149.248 1979.79C148.148 1991.55 143.438 2002.85 139.222 2013.88C126.136 2048.13 89.9254 2095.35 14.7814 2102.19C5.63552 2103.02 -3.55387 2101.76 -12.51 2099.72C-54.5366 2090.19 -122.968 2079.97 -141.063 2097.92C-178.304 2140.7 -262.422 2203.81 -300.962 2113.94C-314.107 2082.25 -318.472 2009.36 -235.847 1963.42C-229.805 1960.06 -223.815 1956.52 -218.767 1951.79C-192.646 1927.35 -149.28 1869.77 -129.236 1783.17C-125.815 1768.38 -120.422 1753.72 -110.055 1742.64C-61.4532 1690.69 -13.3533 1712.08 15.016 1739.74C26.0684 1750.51 31.1738 1765.55 35.1469 1780.47C44.7815 1816.64 66.9236 1870.26 107.129 1902.99Z" fill="#4F7344"/>
<path d="M78.4812 1915.15C109.057 1938.89 116.985 1962.36 116.614 1978.76C116.347 1990.55 111.853 2002.04 107.651 2013.07C96.3743 2042.68 66.2203 2082.31 3.86279 2090.29C-5.27219 2091.46 -14.5044 2090.39 -23.5305 2088.62C-60.329 2081.38 -118.263 2074.51 -133.388 2090.26C-164.925 2128.31 -236.788 2185.08 -271.951 2107.74C-283.896 2080.61 -289.07 2017.86 -219.432 1976.05C-213.491 1972.48 -207.561 1968.8 -202.666 1963.9C-180.651 1941.83 -145.522 1892.17 -129.663 1819.04C-126.45 1804.22 -121.523 1789.39 -111.174 1778.29C-71.7813 1736.04 -31.7883 1751.13 -6.83327 1773.13C4.70874 1783.31 10.0524 1798.31 14.5162 1813.05C23.9536 1844.2 44.0289 1888.41 78.4812 1915.15Z" fill="#ACD1A1"/>
<path d="M90.6918 145.705C131.691 168.105 144.394 194.671 146.096 213.552C147.156 225.318 144.582 237.28 142.446 248.899C135.818 284.959 108.815 337.989 36.173 358.395C27.3316 360.879 18.0659 361.311 8.88955 360.945C-34.1703 359.227 -103.318 361.644 -117.842 382.584C-146.667 431.437 -217.884 508.807 -272.148 427.461C-290.846 398.694 -308.414 327.821 -235.539 267.6C-230.21 263.197 -224.965 258.622 -220.862 253.058C-199.631 224.264 -167.477 159.753 -163.545 70.9442C-162.873 55.7841 -160.242 40.3838 -152.066 27.5995C-113.74 -32.3316 -62.5483 -20.0611 -29.6162 1.96441C-16.7861 10.5454 -9.0263 24.4057 -2.40292 38.3476C13.6585 72.156 45.1976 120.849 90.6918 145.705Z" fill="#4F7344"/>
<path d="M64.739 162.888C99.126 180.655 111.197 202.291 113.82 218.486C115.705 230.126 113.378 242.241 111.257 253.853C105.561 285.022 83.131 329.485 23.2702 348.69C14.501 351.503 5.22845 352.133 -3.96999 352.032C-41.4708 351.62 -99.6884 355.411 -111.691 373.655C-135.769 416.814 -196.09 485.722 -244.751 416.085C-261.438 391.586 -277.957 330.82 -217.099 277.03C-211.907 272.441 -206.746 267.74 -202.827 262.024C-185.2 236.317 -159.703 181.091 -157.431 106.29C-156.971 91.1389 -154.828 75.6538 -146.674 62.8549C-115.636 14.138 -73.5627 21.6926 -45.0178 38.7792C-31.8155 46.6819 -23.8278 60.464 -16.7547 74.1397C-1.8006 103.053 25.9918 142.868 64.739 162.888Z" fill="#ACD1A1"/>
<path d="M-3.96635 1886.62C-4.01137 1882.36 -5.24975 1871.26 -9.84301 1861.01C-14.4339 1850.76 -11.7975 1840.74 -9.90284 1837C-9.90131 1837 -9.89758 1837 -9.89517 1837C-4.02966 1842.87 6.03972 1860.1 -0.57116 1882.15L15.0467 1861.57C15.228 1857.01 14.5277 1845.95 10.2757 1838.21C6.02576 1830.47 8.1797 1816.89 9.78995 1811.06C9.79099 1811.05 9.79544 1811.05 9.79811 1811.06C15.7349 1817.45 25.902 1835.41 19.1209 1856.2L36.0969 1833.83C36.2652 1831.14 35.6746 1823.64 31.9658 1815.19C28.2594 1806.74 30.3799 1795.67 31.9061 1791.18C31.9073 1791.18 31.912 1791.18 31.9144 1791.18C36.1377 1796.74 43.5575 1812.15 39.4921 1829.36L42.2499 1824.4L43.353 1822.42C46.6184 1815.03 59.6099 1799.52 79.174 1797.45C79.1783 1797.45 79.1815 1797.45 79.1788 1797.45C75.779 1801.93 67.1949 1811.76 59.9983 1815.31C54.8757 1817.85 48.6051 1822.26 44.0315 1825.76L42.1861 1828.23C59.6834 1821.33 74.0157 1824.48 79.1965 1827.07C79.1998 1827.07 79.2001 1827.07 79.1972 1827.07C74.6091 1830.64 64.1471 1835.84 56.9515 1834.15C48.0623 1832.07 42.4289 1832.46 38.4159 1833.28L22.5638 1854.52C32.5874 1850.06 50.7592 1845.15 64.217 1852.36C64.2206 1852.36 64.2209 1852.37 64.2173 1852.37C58.7354 1855.26 45.8185 1860.67 37.9384 1859.2C31.4585 1857.99 23.1017 1859.42 17.9179 1860.75L3.04197 1880.69C13.0106 1877.03 31.1016 1873.08 45.4166 1878.98C45.4203 1878.98 45.4211 1878.99 45.4176 1878.99C40.9816 1881.74 29.0795 1887.17 16.8883 1886.94C7.95007 1886.77 1.91711 1886.68 -1.40446 1886.64L-13.4347 1902.77L8.82019 1907.61L8.82064 1907.61C13.6171 1905.9 21.1643 1902.32 26.2383 1896.86C32.3823 1890.24 46.1718 1888.49 52.3054 1888.44C52.3087 1888.44 52.311 1888.45 52.31 1888.45C50.0872 1895.7 39.2357 1910.11 13.589 1909.82L37.9724 1918.45C37.9734 1918.45 37.9744 1918.45 37.9754 1918.45C42.8456 1916.98 53.9834 1912.55 59.5858 1906.65C65.1861 1900.76 78.3849 1899.78 84.293 1900.03C84.2968 1900.03 84.2989 1900.04 84.2968 1900.04C79.4574 1907.65 64.7781 1922.42 44.7184 1920.73C44.7127 1920.73 44.7105 1920.74 44.7157 1920.74L69.2826 1930.94C69.2837 1930.94 69.2848 1930.94 69.2858 1930.94C72.8823 1929.9 81.5149 1926.68 87.2876 1922.04C93.0577 1917.4 103.92 1914.93 108.638 1914.28C108.642 1914.28 108.645 1914.28 108.643 1914.29C105.754 1920.56 94.7005 1933.01 73.5554 1932.75C73.5501 1932.75 73.548 1932.76 73.5529 1932.76L83.8136 1937.73L83.8148 1937.73C93.1446 1939.65 112.806 1947.33 116.829 1962.78C116.83 1962.79 116.827 1962.79 116.824 1962.79C112.713 1962.02 102.681 1958.82 95.3756 1952.15C86.2494 1943.81 84.9229 1939.99 75.5634 1935.69C75.5581 1935.69 75.5518 1935.69 75.5562 1935.7C80.096 1939.63 88.9573 1952.1 88.294 1970.73C88.2939 1970.74 88.2892 1970.74 88.286 1970.74C85.2366 1967.95 78.3629 1960.1 75.2 1950.94C71.2433 1939.47 73.7 1938.09 68.8192 1933.4C68.8188 1933.4 68.8182 1933.4 68.8177 1933.4L43.328 1922.52C48.9918 1924.93 60.136 1936.68 59.4082 1964.32C59.4081 1964.32 59.4034 1964.33 59.4003 1964.32C55.4591 1960.86 47.073 1951.3 44.9953 1940.7C42.9166 1930.1 39.1389 1923.1 37.509 1920.92C37.5084 1920.92 37.5077 1920.92 37.5068 1920.92L11.3642 1910.94C11.359 1910.94 11.3542 1910.94 11.3583 1910.95C18.6429 1917.42 32.1993 1934.96 28.3129 1953.41C28.312 1953.41 28.3074 1953.42 28.3046 1953.41C24.8875 1949.88 17.2752 1940.53 14.1116 1931.36C10.1547 1919.9 12.1918 1917.22 6.19784 1908.44L-14.7489 1904.53L-15.0804 1904.97C-15.082 1904.97 -15.0852 1904.97 -15.0874 1904.97L-15.9757 1904.3L-14.6176 1902.51L-3.96635 1886.62Z" fill="#2B3825"/>
<path d="M-2.96635 117.621C-3.01137 113.357 -4.24975 102.264 -8.84301 92.01C-13.4339 81.761 -10.7975 71.7385 -8.90284 68.0019C-8.90131 67.9988 -8.89758 67.9983 -8.89517 68.0007C-3.02966 73.8664 7.03972 91.0992 0.42884 113.148L16.0467 92.5699C16.228 88.0073 15.5277 76.9474 11.2757 69.2081C7.02576 61.4725 9.1797 47.891 10.7899 42.0585C10.791 42.0547 10.7954 42.0536 10.7981 42.0565C16.7349 48.4472 26.902 66.412 20.1209 87.2018L37.0969 64.8347C37.2652 62.1423 36.6746 54.6438 32.9658 46.1887C29.2594 37.7391 31.3799 26.6705 32.9061 22.1832C32.9073 22.1794 32.912 22.1787 32.9144 22.1819C37.1377 27.7427 44.5575 43.1507 40.4921 60.3613L43.2499 55.4041L44.353 53.4212C47.6184 46.0311 60.6099 30.5184 80.174 28.4463C80.1783 28.4458 80.1815 28.4504 80.1788 28.4539C76.779 32.9315 68.1949 42.7574 60.9983 46.3137C55.8757 48.8452 49.6051 53.2643 45.0315 56.7563L43.1861 59.2292C60.6834 52.3316 75.0157 55.481 80.1965 58.0663C80.1998 58.0679 80.2001 58.0721 80.1972 58.0744C75.6091 61.6446 65.1471 66.8371 57.9515 65.1521C49.0623 63.0706 43.4289 63.4601 39.4159 64.2816L23.5638 85.5245C33.5874 81.0604 51.7592 76.1483 65.217 83.3588C65.2206 83.3607 65.2209 83.3656 65.2173 83.3674C59.7354 86.2616 46.8185 91.674 38.9384 90.2033C32.4585 88.9938 24.1017 90.4242 18.9179 91.7504L4.04197 111.685C14.0106 108.028 32.1016 104.082 46.4166 109.983C46.4203 109.984 46.4211 109.989 46.4176 109.991C41.9816 112.741 30.0795 118.172 17.8883 117.938C8.95007 117.767 2.91711 117.681 -0.404463 117.644L-12.4347 133.765L9.82019 138.606L9.82064 138.606C14.6171 136.901 22.1643 133.317 27.2383 127.855C33.3823 121.242 47.1718 119.492 53.3054 119.443C53.3087 119.443 53.311 119.446 53.31 119.449C51.0872 126.698 40.2357 141.109 14.589 140.815L38.9724 149.452C38.9734 149.452 38.9744 149.452 38.9754 149.452C43.8456 147.977 54.9834 143.553 60.5858 137.654C66.1861 131.757 79.3849 130.782 85.293 131.031C85.2968 131.031 85.2989 131.035 85.2968 131.039C80.4574 138.645 65.7781 153.416 45.7184 151.729C45.7127 151.729 45.7105 151.737 45.7157 151.739L70.2826 161.935C70.2837 161.935 70.2848 161.935 70.2858 161.935C73.8823 160.903 82.5149 157.68 88.2876 153.039C94.0577 148.399 104.92 145.934 109.638 145.28C109.642 145.28 109.645 145.283 109.643 145.287C106.754 151.558 95.7005 164.015 74.5554 163.75C74.5501 163.75 74.548 163.757 74.5529 163.76L84.8136 168.733L84.8148 168.733C94.1446 170.645 113.806 178.331 117.829 193.784C117.83 193.788 117.827 193.791 117.824 193.791C113.713 193.022 103.681 189.82 96.3756 183.148C87.2494 174.813 85.9229 170.991 76.5634 166.691C76.5581 166.689 76.5518 166.695 76.5562 166.699C81.096 170.633 89.9573 183.105 89.294 201.733C89.2939 201.737 89.2892 201.74 89.286 201.737C86.2366 198.949 79.3629 191.099 76.2 181.936C72.2433 170.473 74.7 169.088 69.8192 164.403C69.8188 164.402 69.8182 164.402 69.8177 164.402L44.328 153.516C49.9918 155.935 61.136 167.682 60.4082 195.32C60.4081 195.325 60.4034 195.327 60.4003 195.325C56.4591 191.86 48.073 182.297 45.9953 171.702C43.9166 161.102 40.1389 154.098 38.509 151.92C38.5084 151.919 38.5077 151.919 38.5068 151.919L12.3642 141.937C12.359 141.935 12.3542 141.941 12.3583 141.945C19.6429 148.424 33.1993 165.955 29.3129 184.411C29.312 184.415 29.3074 184.416 29.3046 184.414C25.8875 180.877 18.2752 171.528 15.1116 162.363C11.1547 150.899 13.1918 148.215 7.19784 139.436L-13.7489 135.526L-14.0804 135.971C-14.082 135.973 -14.0852 135.973 -14.0874 135.972L-14.9757 135.297L-13.6176 133.508L-2.96635 117.621Z" fill="#2B3825"/>
<path d="M-23.9664 603.621C-24.0114 599.357 -25.2497 588.264 -29.843 578.01C-34.4339 567.761 -31.7975 557.739 -29.9028 554.002C-29.9013 553.999 -29.8976 553.998 -29.8952 554.001C-24.0297 559.866 -13.9603 577.099 -20.5712 599.148L-4.95329 578.57C-4.77197 574.007 -5.47232 562.947 -9.72429 555.208C-13.9742 547.472 -11.8203 533.891 -10.2101 528.058C-10.209 528.055 -10.2046 528.054 -10.2019 528.056C-4.26512 534.447 5.90199 552.412 -0.879057 573.202L16.0969 550.835C16.2652 548.142 15.6746 540.644 11.9658 532.189C8.25943 523.739 10.3799 512.67 11.9061 508.183C11.9073 508.179 11.912 508.179 11.9144 508.182C16.1377 513.743 23.5575 529.151 19.4921 546.361L22.2499 541.404L23.353 539.421C26.6184 532.031 39.6099 516.518 59.174 514.446C59.1783 514.446 59.1815 514.45 59.1788 514.454C55.779 518.931 47.1949 528.757 39.9983 532.314C34.8757 534.845 28.6051 539.264 24.0315 542.756L22.1861 545.229C39.6834 538.332 54.0157 541.481 59.1965 544.066C59.1998 544.068 59.2001 544.072 59.1972 544.074C54.6091 547.645 44.1471 552.837 36.9515 551.152C28.0623 549.071 22.4289 549.46 18.4159 550.282L2.56382 571.525C12.5874 567.06 30.7592 562.148 44.217 569.359C44.2206 569.361 44.2209 569.366 44.2173 569.367C38.7354 572.262 25.8185 577.674 17.9384 576.203C11.4585 574.994 3.10165 576.424 -2.08211 577.75L-16.958 597.685C-6.9894 594.028 11.1016 590.082 25.4166 595.983C25.4203 595.984 25.4211 595.989 25.4176 595.991C20.9816 598.741 9.07946 604.172 -3.11174 603.938C-12.0499 603.767 -18.0829 603.681 -21.4045 603.644L-33.4347 619.765L-11.1798 624.606L-11.1794 624.606C-6.38292 622.901 1.16431 619.317 6.23833 613.855C12.3823 607.242 26.1718 605.492 32.3054 605.443C32.3087 605.443 32.311 605.446 32.31 605.449C30.0872 612.698 19.2357 627.109 -6.41096 626.815L17.9724 635.452C17.9734 635.452 17.9744 635.452 17.9754 635.452C22.8456 633.977 33.9834 629.553 39.5858 623.654C45.1861 617.757 58.3849 616.782 64.293 617.031C64.2968 617.031 64.2989 617.035 64.2968 617.039C59.4574 624.645 44.7781 639.416 24.7184 637.729C24.7127 637.729 24.7105 637.737 24.7157 637.739L49.2826 647.935C49.2837 647.935 49.2848 647.935 49.2858 647.935C52.8823 646.903 61.5149 643.68 67.2876 639.039C73.0577 634.399 83.9196 631.934 88.6384 631.28C88.6423 631.28 88.6451 631.283 88.6434 631.287C85.7543 637.558 74.7005 650.015 53.5554 649.75C53.5501 649.75 53.548 649.757 53.5529 649.76L63.8136 654.733L63.8148 654.733C73.1446 656.645 92.8058 664.331 96.829 679.784C96.8299 679.788 96.8272 679.791 96.8236 679.791C92.7127 679.022 82.6806 675.82 75.3756 669.148C66.2494 660.813 64.9229 656.991 55.5634 652.691C55.5581 652.689 55.5518 652.695 55.5562 652.699C60.096 656.633 68.9573 669.105 68.294 687.733C68.2939 687.737 68.2892 687.74 68.286 687.737C65.2366 684.949 58.3629 677.099 55.2 667.936C51.2433 656.473 53.7 655.088 48.8192 650.403C48.8188 650.402 48.8182 650.402 48.8177 650.402L23.328 639.516C28.9918 641.935 40.136 653.682 39.4082 681.32C39.4081 681.325 39.4034 681.327 39.4003 681.325C35.4591 677.86 27.073 668.297 24.9953 657.702C22.9166 647.102 19.1389 640.098 17.509 637.92C17.5084 637.919 17.5077 637.919 17.5068 637.919L-8.63583 627.937C-8.64102 627.935 -8.64581 627.941 -8.64167 627.945C-1.35713 634.424 12.1993 651.955 8.31287 670.411C8.31205 670.415 8.30743 670.416 8.30464 670.414C4.88746 666.877 -2.72482 657.528 -5.88839 648.363C-9.84527 636.899 -7.80816 634.215 -13.8022 625.436L-34.7489 621.526L-35.0804 621.971C-35.082 621.973 -35.0852 621.973 -35.0874 621.972L-35.9757 621.297L-34.6176 619.508L-23.9664 603.621Z" fill="#2B3825"/>
</g>
<defs>
<clipPath id="clip0_515_2">
<rect width="1440" height="2495" fill="white" transform="translate(0 -219)"/>
</clipPath>
</defs>
</svg>
