<svg width="1327" height="2092" viewBox="0 0 1327 2092" fill="none" xmlns="http://www.w3.org/2000/svg">
<g clip-path="url(#clip0_515_2)">
<path d="M-13.3244 1142.6C-37.5077 1152.94 -54.738 1151.56 -65.7823 1146.74C-76.8778 1141.9 -84.9718 1131.67 -91.9891 1121.81C-105.582 1102.7 -116.733 1070.05 -100.261 1028.96C-96.9433 1020.68 -91.5421 1013.47 -85.7588 1006.68C-66.7522 984.378 -41.2715 949.441 -45.5819 933.787C-58.2625 898.215 -67.4785 828.371 -2.89821 833.572C19.3327 835.635 61.8388 855.194 63.1004 916.161L63.113 916.774C63.249 923.419 63.3861 930.123 65.1554 936.527C71.4196 959.199 89.2518 997.908 126.711 1033.69C137.937 1044.41 148.937 1056.31 152.275 1071.47C160.108 1107.04 140.104 1126.67 118.854 1135.97C104.459 1142.27 88.2388 1139.26 72.7876 1136.4C48.7866 1131.95 15.2493 1130.39 -13.3244 1142.6Z" fill="#4F7344"/>
<path d="M-11.0634 1121.73C-30.3397 1130.5 -44.6403 1130.39 -54.3527 1127.15C-65.8108 1123.34 -74.3021 1113.17 -81.2332 1103.26C-92.6482 1086.94 -101.686 1060.16 -89.6891 1026.27C-86.7058 1017.84 -81.4204 1010.49 -75.829 1003.52C-59.9477 983.727 -39.6486 953.97 -43.6395 940.755C-55.4319 910.062 -64.9608 849.498 -8.73734 852.785C10.4587 854.141 47.3481 870.074 50.3353 922.005C50.7292 928.853 50.9609 935.758 53.0309 942.299C59.1375 961.593 74.8815 993.108 106.022 1022.29C117.336 1032.9 128.884 1044.47 131.934 1059.69C137.43 1087.1 122.961 1103.44 106.403 1112.07C92.5007 1119.32 76.1122 1116.47 60.5923 1114.23C39.9195 1111.24 12.3348 1111.09 -11.0634 1121.73Z" fill="#ACD1A1"/>
<path d="M1235.99 334.561C1211.28 336.029 1196.25 329.496 1187.72 321.765C1178.76 313.634 1174.57 301.209 1171.4 289.527C1165.53 267.915 1166.29 235.307 1193.89 203.941C1199.79 197.247 1207.32 192.285 1215.05 187.84C1239.45 173.806 1273.43 150.67 1274.6 135.208C1274.68 98.9151 1289.02 32.7468 1345.74 58.4175C1365.14 67.4797 1397.14 98.8489 1378.76 154.171C1376.6 160.669 1374.34 167.199 1373.85 174.029C1372.24 196.509 1375.83 236.737 1397.6 280.688C1404.5 294.599 1410.91 309.519 1408.75 324.894C1404.04 358.421 1380.43 369.653 1358.63 371.403C1343.18 372.644 1329.1 364.52 1315.65 356.766L1315.09 356.443C1294.85 344.77 1265.41 332.813 1235.99 334.561Z" fill="#4F7344"/>
<path d="M1244.81 316.42C1225.01 318.052 1212.24 313.569 1204.45 307.699C1194.8 300.433 1190.21 287.935 1187.15 276.237C1182.35 257.882 1183.09 231.244 1204.35 204.946C1209.97 197.993 1217.44 192.873 1225.05 188.191C1245.79 175.428 1273.42 155.297 1274.1 142.141C1273.39 110.55 1284.44 52.6747 1334.23 73.9001C1351.1 81.339 1379.2 107.608 1365.3 155.312C1363.38 161.898 1361.26 168.473 1361.02 175.329C1360.36 194.676 1364.38 227.723 1382.58 263.659C1389.59 277.491 1396.65 292.302 1394.16 307.616C1390.03 333.077 1372.41 343.058 1355.12 345.679C1339.62 348.03 1325.13 339.735 1311.24 332.46C1293.57 323.203 1269.05 314.423 1244.81 316.42Z" fill="#ACD1A1"/>
<path d="M1328.88 2078.62C1313.22 2097.8 1298.24 2104.43 1286.78 2105.47C1274.72 2106.56 1262.74 2101.23 1252 2095.65C1232.12 2085.32 1208.65 2062.68 1204.27 2021.13C1203.33 2012.26 1204.78 2003.36 1206.75 1994.66C1212.95 1967.2 1218.94 1926.54 1208.36 1915.2C1181.71 1890.56 1142.73 1835.2 1200.04 1810.85C1219.84 1802.72 1264.59 1800.42 1292.85 1851.41C1296.17 1857.4 1299.44 1863.48 1304.13 1868.47C1319.58 1884.88 1351.61 1909.48 1398.7 1923.23C1413.6 1927.58 1428.92 1932.97 1438.77 1944.97C1460.25 1971.14 1452.52 1996.12 1439.05 2013.34C1429.5 2025.55 1413.98 2030.41 1399.17 2035.05L1398.55 2035.24C1376.25 2042.23 1347.52 2055.79 1328.88 2078.62Z" fill="#4F7344"/>
<path d="M1321.5 2059.85C1309.29 2075.52 1297.35 2081.88 1287.75 2083.63C1275.88 2085.81 1263.57 2080.73 1252.89 2075.06C1236.13 2066.16 1217.04 2047.57 1212.09 2014.12C1210.78 2005.27 1212.07 1996.31 1213.78 1987.54C1218.44 1963.63 1222.34 1929.67 1213.12 1920.27C1189.4 1899.39 1154.29 1852.07 1203.63 1829.81C1220.54 1822.43 1258.89 1819.55 1284.57 1862.09C1288.12 1867.96 1291.52 1873.97 1296.4 1878.79C1310.19 1892.38 1337.22 1911.81 1375.99 1922.75C1390.92 1926.96 1406.59 1931.8 1416.18 1944C1432.11 1964.29 1427.52 1984.01 1417.74 1998.5C1408.97 2011.5 1393.06 2016.54 1378.3 2021.83C1359.52 2028.57 1336.45 2040.66 1321.5 2059.85Z" fill="#ACD1A1"/>
<path d="M1311.99 181.372C1309.14 184.746 1302.61 194.281 1299.27 205.428C1295.94 216.57 1287.09 222.645 1283.08 224.293C1283.07 224.294 1283.07 224.292 1283.07 224.289C1282.44 215.722 1286.2 195.398 1306.3 182.582L1280.14 188.151C1276.91 191.606 1269.97 200.751 1268.07 209.696C1266.17 218.637 1255.29 227.828 1250.08 231.312C1250.08 231.314 1250.08 231.312 1250.08 231.308C1249.75 222.281 1253.93 201.317 1273.31 189.604L1244.87 195.657C1242.91 197.654 1238.3 203.933 1235.49 213.071C1232.68 222.204 1223.53 229.448 1219.3 231.934C1219.29 231.936 1219.29 231.933 1219.29 231.929C1219.74 224.712 1224.35 207.611 1239.18 196.867L1233.66 198.888L1231.46 199.697C1223.9 203.282 1203.22 206.656 1186.47 195.045C1186.47 195.043 1186.47 195.037 1186.47 195.036C1192.17 193.826 1205.55 191.928 1213.6 194.009C1219.33 195.489 1227.23 196.267 1233.18 196.623L1236.3 195.932C1217.91 189.503 1208.81 177.338 1206.49 171.806C1206.49 171.802 1206.5 171.799 1206.5 171.799C1212.51 172.104 1224.23 175.11 1228.73 181.299C1234.29 188.945 1238.97 192.451 1242.67 194.521L1269.47 188.59C1258.6 185.309 1241.02 176.866 1235.35 162.108C1235.35 162.105 1235.35 162.101 1235.36 162.102C1241.61 163.541 1255.4 168.036 1260.59 174.52C1264.85 179.852 1272.37 184.384 1277.33 186.851L1302.48 181.285C1292.19 177.408 1275.33 168.263 1268.1 153.952C1268.1 153.948 1268.1 153.944 1268.11 153.945C1273.45 154.79 1286.45 158.583 1295.85 167.014C1302.75 173.196 1307.42 177.344 1310 179.621L1330.34 175.119L1316.16 156.267L1316.16 156.267C1311.25 154.359 1302.9 152.064 1295.23 152.914C1285.94 153.942 1273.94 145.985 1269.1 141.874C1269.1 141.872 1269.1 141.868 1269.1 141.866C1275.75 137.687 1294.01 133.728 1313.92 151.309L1300.64 128.042C1300.64 128.041 1300.64 128.04 1300.64 128.04C1295.82 125.901 1284.1 121.835 1275.71 122.67C1267.33 123.505 1256.32 115.341 1251.86 111.148C1251.86 111.146 1251.86 111.141 1251.86 111.14C1260.8 108.449 1282.31 106.799 1296.89 121.693C1296.9 121.697 1296.9 121.693 1296.9 121.688L1284.54 97.0722C1284.54 97.0712 1284.54 97.0704 1284.53 97.07C1281.02 95.4459 1272.07 92.1328 1264.4 91.8669C1256.74 91.6011 1246.55 86.1853 1242.41 83.5058C1242.41 83.5037 1242.41 83.4991 1242.41 83.4974C1248.92 80.5346 1266.01 78.2456 1282.42 92.7588C1282.42 92.7624 1282.43 92.7583 1282.42 92.7533L1277.74 81.9117L1277.74 81.9106C1271.72 74.0999 1261.5 54.7721 1268.8 39.9339C1268.81 39.9307 1268.81 39.9299 1268.81 39.9327C1271.51 43.3165 1277.21 52.614 1278.43 62.7873C1279.95 75.4969 1278.4 79.3908 1282.83 89.0949C1282.83 89.1002 1282.84 89.1 1282.84 89.0943C1281.94 82.9391 1283.43 67.164 1296.55 53.0057C1296.56 53.0026 1296.56 53.0038 1296.56 53.008C1297.07 57.2565 1297.15 68.0622 1293.43 77.3867C1288.78 89.0513 1285.91 88.4751 1286.57 95.4508C1286.57 95.4514 1286.57 95.452 1286.57 95.4525L1299.19 121.232C1296.39 115.504 1295.6 98.7539 1314.86 77.5755C1314.87 77.5724 1314.87 77.5734 1314.87 77.5776C1315.62 82.96 1315.73 96.1315 1310.19 105.845C1304.65 115.563 1302.87 123.61 1302.67 126.42C1302.67 126.421 1302.67 126.422 1302.67 126.423L1316.42 151.935C1316.42 151.94 1316.43 151.939 1316.43 151.933C1315.1 141.926 1316.33 119.007 1331.87 107.166C1331.87 107.164 1331.87 107.165 1331.87 107.169C1332.16 112.254 1331.8 124.734 1328.08 134.061C1323.43 145.726 1320.02 146.452 1318.78 157.391L1332.56 174.627L1333.12 174.503C1333.12 174.502 1333.12 174.504 1333.12 174.507L1333.36 175.637L1331.09 176.121L1311.99 181.372Z" fill="#2B3825"/>
<path d="M1324.13 1508.87C1322.91 1512.57 1320.69 1522.5 1321.61 1532.7C1322.54 1542.9 1317.29 1550.76 1314.55 1553.43C1314.55 1553.43 1314.55 1553.43 1314.54 1553.43C1311.22 1546.63 1307.65 1528.78 1319.88 1511.73L1300.31 1524.85C1298.8 1528.73 1296.13 1538.47 1297.51 1546.41C1298.88 1554.34 1293 1565.41 1289.88 1569.97C1289.88 1569.97 1289.87 1569.97 1289.87 1569.97C1286.65 1562.69 1283.2 1544.19 1295.21 1528.27L1273.94 1542.53C1273 1544.8 1271.28 1551.44 1271.98 1559.83C1272.67 1568.22 1267.56 1577.14 1264.92 1580.55C1264.91 1580.56 1264.91 1580.56 1264.91 1580.55C1262.91 1574.51 1261.08 1559.02 1269.69 1545.38L1265.84 1548.84L1264.3 1550.22C1259.29 1555.63 1243.49 1565.16 1226.01 1561.15C1226 1561.15 1226 1561.14 1226 1561.14C1230.26 1558.28 1240.58 1552.35 1247.84 1551.42C1253.01 1550.75 1259.72 1548.8 1264.7 1547.14L1267.03 1545.56C1249.89 1546.32 1238.47 1539.36 1234.76 1535.6C1234.76 1535.59 1234.76 1535.59 1234.77 1535.59C1239.78 1533.87 1250.34 1532.49 1256.05 1536.08C1263.1 1540.5 1268.07 1541.84 1271.78 1542.32L1291.74 1528.69C1281.77 1529.57 1264.65 1528.43 1255.18 1518.22C1255.17 1518.22 1255.18 1518.21 1255.18 1518.21C1260.77 1517.34 1273.51 1516.5 1279.87 1520.1C1285.1 1523.07 1292.73 1524.31 1297.59 1524.7L1316.33 1511.92C1306.65 1512.12 1289.88 1510.16 1279.28 1500.83C1279.28 1500.83 1279.28 1500.82 1279.28 1500.82C1283.92 1499.76 1295.8 1498.61 1306.24 1502.42C1313.9 1505.22 1319.08 1507.08 1321.93 1508.1L1337.08 1497.76L1319.32 1486.99L1319.32 1486.99C1314.68 1487.04 1307.11 1487.89 1301.12 1491.1C1293.86 1494.98 1281.45 1492.4 1276.14 1490.63C1276.14 1490.63 1276.14 1490.62 1276.14 1490.62C1280.21 1485.03 1293.83 1475.82 1315.87 1483.67L1297.4 1468.99C1297.39 1468.99 1297.39 1468.99 1297.39 1468.99C1292.76 1468.82 1281.84 1469.34 1275.26 1472.77C1268.68 1476.19 1257.01 1473.12 1251.99 1471.16C1251.98 1471.16 1251.98 1471.15 1251.99 1471.15C1258.41 1466.02 1275.45 1457.63 1292.25 1465.03C1292.25 1465.03 1292.26 1465.03 1292.25 1465.02L1274.09 1448.95C1274.09 1448.95 1274.09 1448.95 1274.09 1448.95C1270.68 1448.77 1262.28 1449 1255.93 1451.29C1249.58 1453.58 1239.48 1452.49 1235.21 1451.65C1235.21 1451.65 1235.21 1451.65 1235.21 1451.65C1239.56 1447.09 1252.78 1439.63 1270.94 1446.12C1270.95 1446.12 1270.95 1446.11 1270.95 1446.11L1263.57 1438.78L1263.57 1438.78C1256.09 1434.37 1241.41 1421.91 1242.52 1407.4C1242.52 1407.39 1242.53 1407.39 1242.53 1407.39C1245.85 1409.27 1253.55 1415.01 1257.87 1422.92C1263.27 1432.82 1263.28 1436.51 1270.08 1442.99C1270.08 1442.99 1270.09 1442.99 1270.09 1442.98C1267.34 1438.24 1263.4 1424.86 1269.49 1408.99C1269.49 1408.99 1269.49 1408.99 1269.49 1408.99C1271.3 1412.3 1274.9 1421.11 1274.91 1429.95C1274.93 1441.01 1272.4 1441.47 1275.22 1446.96C1275.22 1446.96 1275.22 1446.96 1275.22 1446.96L1293.98 1463.9C1289.81 1460.14 1283.68 1446.71 1292.5 1423.08C1292.5 1423.08 1292.51 1423.08 1292.51 1423.08C1294.88 1427.24 1299.28 1437.97 1297.93 1447.72C1296.58 1457.48 1297.77 1464.64 1298.53 1467C1298.53 1467 1298.53 1467 1298.53 1467.01L1318.11 1483.36C1318.12 1483.36 1318.13 1483.36 1318.12 1483.35C1313.76 1475.61 1307.27 1456.47 1316.08 1441.71C1316.09 1441.7 1316.09 1441.7 1316.09 1441.71C1317.99 1445.77 1321.79 1456.09 1321.8 1464.93C1321.82 1475.99 1319.26 1477.7 1321.83 1487.05L1338.74 1496.63L1339.16 1496.34C1339.16 1496.34 1339.16 1496.34 1339.16 1496.34L1339.73 1497.19L1338.03 1498.33L1324.13 1508.87Z" fill="#2B3825"/>
<path d="M1320.13 643.874C1318.91 647.565 1316.69 657.498 1317.61 667.703C1318.54 677.902 1313.29 685.765 1310.55 688.427C1310.55 688.429 1310.55 688.428 1310.54 688.425C1307.22 681.628 1303.65 663.782 1315.88 646.726L1296.31 659.846C1294.8 663.727 1292.13 673.473 1293.51 681.408C1294.88 689.338 1289 700.413 1285.88 704.966C1285.88 704.969 1285.87 704.969 1285.87 704.965C1282.65 697.694 1279.2 679.189 1291.21 663.268L1269.94 677.529C1269 679.801 1267.28 686.443 1267.98 694.834C1268.67 703.219 1263.56 712.136 1260.92 715.554C1260.91 715.558 1260.91 715.557 1260.91 715.553C1258.91 709.505 1257.08 694.019 1265.69 680.381L1261.84 683.839L1260.3 685.222C1255.29 690.628 1239.49 700.157 1222.01 696.148C1222 696.147 1222 696.142 1222 696.139C1226.26 693.285 1236.58 687.355 1243.84 686.42C1249.01 685.754 1255.72 683.801 1260.7 682.145L1263.03 680.559C1245.89 681.323 1234.47 674.361 1230.76 670.596C1230.76 670.593 1230.76 670.589 1230.77 670.588C1235.78 668.868 1246.34 667.49 1252.05 671.075C1259.1 675.505 1264.07 676.838 1267.78 677.318L1287.74 663.694C1277.77 664.574 1260.65 663.427 1251.18 653.221C1251.17 653.218 1251.18 653.213 1251.18 653.213C1256.77 652.341 1269.51 651.5 1275.87 655.104C1281.1 658.067 1288.73 659.309 1293.59 659.702L1312.33 646.917C1302.65 647.117 1285.88 645.16 1275.28 635.83C1275.28 635.827 1275.28 635.822 1275.28 635.821C1279.92 634.764 1291.8 633.607 1302.24 637.421C1309.9 640.217 1315.08 642.079 1317.93 643.095L1333.08 632.756L1315.32 621.986L1315.32 621.986C1310.68 622.036 1303.11 622.891 1297.12 626.098C1289.86 629.981 1277.45 627.404 1272.14 625.629C1272.14 625.628 1272.14 625.624 1272.14 625.622C1276.21 620.029 1289.83 610.816 1311.87 618.668L1293.4 603.995C1293.39 603.994 1293.39 603.994 1293.39 603.994C1288.76 603.823 1277.84 604.338 1271.26 607.765C1264.68 611.192 1253.01 608.123 1247.99 606.157C1247.98 606.155 1247.98 606.151 1247.99 606.149C1254.41 601.022 1271.45 592.634 1288.25 600.03C1288.25 600.033 1288.26 600.026 1288.25 600.022L1270.09 583.951C1270.09 583.951 1270.09 583.95 1270.09 583.95C1266.68 583.774 1258.28 583.996 1251.93 586.289C1245.58 588.58 1235.48 587.488 1231.21 586.654C1231.21 586.653 1231.21 586.649 1231.21 586.646C1235.56 582.093 1248.78 574.627 1266.94 581.119C1266.95 581.121 1266.95 581.114 1266.95 581.111L1259.57 573.783L1259.57 573.782C1252.09 569.369 1237.41 556.914 1238.52 542.395C1238.52 542.391 1238.53 542.389 1238.53 542.391C1241.85 544.272 1249.55 550.006 1253.87 557.924C1259.27 567.816 1259.28 571.505 1266.08 577.986C1266.08 577.99 1266.09 577.986 1266.09 577.981C1263.34 573.241 1259.4 559.861 1265.49 543.995C1265.49 543.991 1265.49 543.99 1265.49 543.994C1267.3 547.302 1270.9 556.109 1270.91 564.948C1270.93 576.006 1268.4 576.473 1271.22 581.96C1271.22 581.96 1271.22 581.961 1271.22 581.961L1289.98 598.903C1285.81 595.138 1279.68 581.705 1288.5 558.085C1288.5 558.081 1288.51 558.08 1288.51 558.083C1290.88 562.24 1295.28 572.971 1293.93 582.724C1292.58 592.482 1293.77 599.642 1294.53 602.003C1294.53 602.004 1294.53 602.005 1294.53 602.005L1314.11 618.358C1314.12 618.362 1314.13 618.358 1314.12 618.353C1309.76 610.605 1303.27 591.471 1312.08 576.707C1312.09 576.704 1312.09 576.704 1312.09 576.707C1313.99 580.77 1317.79 591.088 1317.8 599.93C1317.82 610.989 1315.26 612.7 1317.83 622.048L1334.74 631.626L1335.16 631.342C1335.16 631.34 1335.16 631.341 1335.16 631.343L1335.73 632.187L1334.03 633.328L1320.13 643.874Z" fill="#2B3825"/>
<path d="M1305.47 1929.26C1301.83 1931.76 1293.01 1939.24 1286.86 1949.11C1280.7 1958.98 1270.57 1962.51 1266.26 1963.04C1266.26 1963.04 1266.26 1963.04 1266.26 1963.04C1267.91 1954.61 1276.89 1935.99 1299.66 1928.93L1272.95 1927.4C1268.93 1929.88 1259.83 1936.88 1255.64 1945.01C1251.45 1953.13 1238.53 1959.13 1232.59 1961.12C1232.58 1961.12 1232.58 1961.11 1232.58 1961.11C1234.64 1952.32 1244.2 1933.19 1265.98 1927L1236.95 1925.35C1234.54 1926.76 1228.44 1931.6 1223.32 1939.67C1218.2 1947.74 1207.46 1952.32 1202.73 1953.6C1202.72 1953.6 1202.72 1953.6 1202.72 1953.59C1205.06 1946.75 1214.01 1931.47 1231.15 1925.01L1225.29 1925.51L1222.95 1925.71C1214.71 1927.17 1193.88 1924.98 1180.79 1909.36C1180.78 1909.36 1180.79 1909.36 1180.79 1909.36C1186.6 1909.69 1200.01 1911.39 1207.22 1915.51C1212.36 1918.45 1219.78 1921.29 1225.43 1923.2L1228.62 1923.35C1212.58 1912.31 1207 1898.17 1206.22 1892.22C1206.22 1892.22 1206.23 1892.22 1206.23 1892.22C1211.95 1894.1 1222.46 1900.09 1225.17 1907.24C1228.52 1916.08 1232.11 1920.7 1235.14 1923.67L1262.55 1925.02C1252.92 1918.98 1238.2 1906.21 1236.62 1890.48C1236.62 1890.47 1236.62 1890.47 1236.62 1890.47C1242.28 1893.51 1254.4 1901.48 1257.69 1909.1C1260.39 1915.37 1266.45 1921.72 1270.59 1925.41L1296.32 1926.67C1287.41 1920.22 1273.56 1906.95 1270.36 1891.24C1270.36 1891.24 1270.36 1891.23 1270.37 1891.24C1275.29 1893.46 1286.84 1900.55 1293.69 1911.16C1298.71 1918.94 1302.12 1924.17 1304.01 1927.05L1324.81 1928.06L1316.11 1906.14L1316.11 1906.14C1311.87 1903.01 1304.43 1898.59 1296.8 1897.39C1287.57 1895.93 1278.09 1885.1 1274.51 1879.85C1274.51 1879.85 1274.51 1879.85 1274.51 1879.85C1282.02 1877.57 1300.68 1878.56 1315.25 1900.77L1308.58 1874.82C1308.58 1874.82 1308.58 1874.82 1308.58 1874.82C1304.49 1871.49 1294.25 1864.48 1285.95 1863.07C1277.64 1861.67 1269.18 1850.89 1265.98 1845.67C1265.97 1845.67 1265.98 1845.66 1265.98 1845.66C1275.31 1845.42 1296.49 1849.5 1306.64 1867.71C1306.64 1867.72 1306.65 1867.71 1306.65 1867.71L1301.21 1840.71C1301.21 1840.7 1301.21 1840.7 1301.2 1840.7C1298.24 1838.21 1290.48 1832.65 1283.15 1830.38C1275.83 1828.1 1267.44 1820.19 1264.15 1816.51C1264.14 1816.51 1264.15 1816.51 1264.15 1816.51C1271.21 1815.36 1288.3 1817.66 1300.3 1835.99C1300.3 1835.99 1300.31 1835.99 1300.31 1835.98L1298.65 1824.29L1298.65 1824.29C1294.9 1815.17 1290.14 1793.83 1301.09 1781.44C1301.09 1781.44 1301.1 1781.44 1301.1 1781.44C1302.81 1785.42 1305.86 1795.89 1304.35 1806.02C1302.46 1818.68 1299.95 1822.03 1301.66 1832.56C1301.66 1832.57 1301.67 1832.57 1301.67 1832.56C1302.43 1826.39 1308.02 1811.56 1324.41 1801.36C1324.42 1801.36 1324.42 1801.37 1324.42 1801.37C1323.79 1805.6 1321.02 1816.05 1314.97 1824.06C1307.41 1834.09 1304.8 1832.77 1303.59 1839.68C1303.59 1839.68 1303.59 1839.68 1303.59 1839.68L1308.97 1867.87C1307.78 1861.61 1311.43 1845.24 1335.6 1829.89C1335.6 1829.89 1335.61 1829.89 1335.61 1829.9C1334.91 1835.29 1331.54 1848.02 1323.64 1855.93C1315.73 1863.84 1311.9 1871.14 1310.97 1873.8C1310.97 1873.8 1310.97 1873.8 1310.97 1873.8L1317.5 1902.03C1317.5 1902.04 1317.51 1902.04 1317.51 1902.03C1318.87 1892.03 1326.1 1870.25 1344.2 1862.92C1344.2 1862.92 1344.21 1862.92 1344.21 1862.92C1343.14 1867.9 1339.51 1879.85 1333.46 1887.86C1325.9 1897.89 1322.42 1897.69 1318.34 1907.92L1327.09 1928.18L1327.66 1928.2C1327.66 1928.2 1327.66 1928.21 1327.66 1928.21L1327.6 1929.36L1325.28 1929.23L1305.47 1929.26Z" fill="#2B3825"/>
<path d="M1233.99 1212.56C1209.28 1214.03 1194.25 1207.5 1185.72 1199.77C1176.76 1191.63 1172.57 1179.21 1169.4 1167.53C1163.53 1145.91 1164.29 1113.31 1191.89 1081.94C1197.79 1075.25 1205.32 1070.29 1213.05 1065.84C1237.45 1051.81 1271.43 1028.67 1272.6 1013.21C1272.68 976.915 1287.02 910.747 1343.74 936.417C1363.14 945.48 1395.14 976.849 1376.76 1032.17C1374.6 1038.67 1372.34 1045.2 1371.85 1052.03C1370.24 1074.51 1373.83 1114.74 1395.6 1158.69C1402.5 1172.6 1408.91 1187.52 1406.75 1202.89C1402.04 1236.42 1378.43 1247.65 1356.63 1249.4C1341.18 1250.64 1327.1 1242.52 1313.65 1234.77L1313.09 1234.44C1292.85 1222.77 1263.41 1210.81 1233.99 1212.56Z" fill="#4F7344"/>
<path d="M1242.81 1194.42C1223.01 1196.05 1210.24 1191.57 1202.45 1185.7C1192.8 1178.43 1188.21 1165.94 1185.15 1154.24C1180.35 1135.88 1181.09 1109.24 1202.35 1082.95C1207.97 1075.99 1215.44 1070.87 1223.05 1066.19C1243.79 1053.43 1271.42 1033.3 1272.1 1020.14C1271.39 988.55 1282.44 930.675 1332.23 951.9C1349.1 959.339 1377.2 985.608 1363.3 1033.31C1361.38 1039.9 1359.26 1046.47 1359.02 1053.33C1358.36 1072.68 1362.38 1105.72 1380.58 1141.66C1387.59 1155.49 1394.65 1170.3 1392.16 1185.62C1388.03 1211.08 1370.41 1221.06 1353.12 1223.68C1337.62 1226.03 1323.13 1217.74 1309.24 1210.46C1291.57 1201.2 1267.05 1192.42 1242.81 1194.42Z" fill="#ACD1A1"/>
<path d="M1309.54 1062.37C1306.69 1065.75 1300.16 1075.28 1296.82 1086.43C1293.49 1097.57 1284.64 1103.64 1280.62 1105.29C1280.62 1105.29 1280.62 1105.29 1280.62 1105.29C1279.99 1096.72 1283.75 1076.4 1303.85 1063.58L1277.68 1069.15C1274.45 1072.61 1267.52 1081.75 1265.62 1090.7C1263.72 1099.64 1252.84 1108.83 1247.63 1112.31C1247.63 1112.31 1247.63 1112.31 1247.63 1112.31C1247.29 1103.28 1251.48 1082.32 1270.86 1070.6L1242.41 1076.66C1240.46 1078.65 1235.85 1084.93 1233.04 1094.07C1230.23 1103.2 1221.08 1110.45 1216.85 1112.93C1216.84 1112.94 1216.84 1112.93 1216.84 1112.93C1217.29 1105.71 1221.9 1088.61 1236.73 1077.87L1231.21 1079.89L1229 1080.7C1221.44 1084.28 1200.76 1087.66 1184.02 1076.05C1184.02 1076.04 1184.02 1076.04 1184.02 1076.04C1189.72 1074.83 1203.1 1072.93 1211.14 1075.01C1216.87 1076.49 1224.78 1077.27 1230.73 1077.62L1233.85 1076.93C1215.46 1070.5 1206.36 1058.34 1204.04 1052.81C1204.04 1052.8 1204.04 1052.8 1204.05 1052.8C1210.06 1053.1 1221.78 1056.11 1226.28 1062.3C1231.84 1069.94 1236.52 1073.45 1240.22 1075.52L1267.02 1069.59C1256.14 1066.31 1238.57 1057.87 1232.9 1043.11C1232.9 1043.1 1232.9 1043.1 1232.9 1043.1C1239.16 1044.54 1252.95 1049.04 1258.13 1055.52C1262.4 1060.85 1269.92 1065.38 1274.88 1067.85L1300.03 1062.28C1289.74 1058.41 1272.88 1049.26 1265.65 1034.95C1265.65 1034.95 1265.65 1034.94 1265.66 1034.94C1270.99 1035.79 1284 1039.58 1293.4 1048.01C1300.29 1054.2 1304.97 1058.34 1307.54 1060.62L1327.88 1056.12L1313.71 1037.27L1313.71 1037.27C1308.79 1035.36 1300.45 1033.06 1292.78 1033.91C1283.49 1034.94 1271.49 1026.99 1266.65 1022.87C1266.65 1022.87 1266.65 1022.87 1266.65 1022.87C1273.3 1018.69 1291.55 1014.73 1311.46 1032.31L1298.19 1009.04C1298.19 1009.04 1298.19 1009.04 1298.19 1009.04C1293.37 1006.9 1281.64 1002.83 1273.26 1003.67C1264.88 1004.51 1253.87 996.341 1249.41 992.148C1249.41 992.145 1249.41 992.141 1249.41 992.14C1258.35 989.449 1279.85 987.799 1294.44 1002.69C1294.45 1002.7 1294.45 1002.69 1294.45 1002.69L1282.08 978.072C1282.08 978.071 1282.08 978.07 1282.08 978.07C1278.56 976.446 1269.62 973.133 1261.95 972.867C1254.29 972.601 1244.1 967.185 1239.96 964.506C1239.96 964.504 1239.96 964.499 1239.96 964.497C1246.47 961.535 1263.56 959.246 1279.96 973.759C1279.97 973.762 1279.97 973.758 1279.97 973.753L1275.29 962.912L1275.29 962.911C1269.27 955.1 1259.05 935.772 1266.35 920.934C1266.35 920.931 1266.36 920.93 1266.36 920.933C1269.06 924.316 1274.76 933.614 1275.98 943.787C1277.49 956.497 1275.95 960.391 1280.38 970.095C1280.38 970.1 1280.39 970.1 1280.39 970.094C1279.49 963.939 1280.98 948.164 1294.1 934.006C1294.11 934.003 1294.11 934.004 1294.11 934.008C1294.62 938.256 1294.7 949.062 1290.98 958.387C1286.32 970.051 1283.46 969.475 1284.12 976.451C1284.12 976.451 1284.12 976.452 1284.12 976.452L1296.74 1002.23C1293.93 996.504 1293.14 979.754 1312.41 958.575C1312.42 958.572 1312.42 958.573 1312.42 958.578C1313.17 963.96 1313.27 977.131 1307.74 986.845C1302.19 996.563 1300.42 1004.61 1300.22 1007.42C1300.22 1007.42 1300.22 1007.42 1300.22 1007.42L1313.97 1032.94C1313.97 1032.94 1313.98 1032.94 1313.98 1032.93C1312.65 1022.93 1313.88 1000.01 1329.41 988.166C1329.42 988.164 1329.42 988.165 1329.42 988.169C1329.71 993.253 1329.35 1005.73 1325.63 1015.06C1320.98 1026.73 1317.57 1027.45 1316.33 1038.39L1330.11 1055.63L1330.67 1055.5C1330.67 1055.5 1330.67 1055.5 1330.67 1055.51L1330.91 1056.64L1328.64 1057.12L1309.54 1062.37Z" fill="#2B3825"/>
<path d="M-5.14305 934.151C-6.43448 930.075 -10.8688 919.802 -18.2748 911.314C-25.6768 902.83 -26.0828 892.448 -25.3598 888.311C-25.3593 888.308 -25.3559 888.306 -25.3529 888.308C-18.0117 892.215 -3.31221 905.791 -3.19703 928.867L5.75463 904.565C4.59293 900.137 0.683916 889.737 -5.65854 883.561C-11.998 877.388 -13.9083 863.734 -14.0716 857.671C-14.0717 857.667 -14.0678 857.664 -14.0644 857.666C-6.50119 862.056 8.50624 876.306 8.08984 898.225L17.8199 871.809C17.1932 869.178 14.4319 862.161 8.40076 855.14C2.37349 848.123 1.16671 836.889 1.31654 832.139C1.31666 832.135 1.32089 832.133 1.32413 832.136C7.00139 836.231 18.6261 848.833 19.7659 866.526L20.9592 860.965L21.4365 858.741C22.4042 850.699 30.3203 832.022 48.4728 824.308C48.4768 824.307 48.4811 824.31 48.4796 824.314C46.5304 829.603 41.1758 841.537 35.3163 847.054C31.1455 850.981 26.4265 857.053 23.0633 861.74L22.0177 864.652C36.7759 852.916 51.4404 851.741 57.1648 852.703C57.1684 852.703 57.1699 852.707 57.1678 852.71C53.8135 857.477 45.302 865.518 37.9093 866.009C28.7765 866.615 23.489 868.637 19.8816 870.6L10.9001 895.609C19.2045 888.394 35.1907 878.365 50.2053 881.339C50.2093 881.34 50.211 881.345 50.2082 881.348C45.799 885.727 34.998 894.698 27.0116 895.595C20.4443 896.332 12.85 900.149 8.26778 902.938L-0.160645 926.408C8.32737 919.983 24.5188 910.904 39.9719 912.371C39.9759 912.371 39.9781 912.376 39.9754 912.379C36.5269 916.314 26.7043 925.006 14.9463 928.35C6.32576 930.802 0.51583 932.486 -2.67992 933.422L-9.49605 952.402L13.2602 950.529L13.2607 950.529C17.3605 947.49 23.5479 941.844 26.8144 935.122C30.7697 926.982 43.4795 921.268 49.3465 919.426C49.3497 919.425 49.3527 919.427 49.3527 919.43C49.3433 927.031 43.1568 944.026 18.4794 951.252L44.3875 952.395C44.3885 952.395 44.3895 952.395 44.3904 952.394C48.6285 949.555 58.0131 942.053 61.658 934.756C65.3017 927.462 77.6719 922.664 83.4099 921.173C83.4136 921.172 83.4167 921.176 83.4157 921.179C81.0022 929.89 71.2504 948.349 51.5225 952.604C51.5169 952.605 51.5171 952.614 51.5228 952.614L78.0634 955.199C78.0645 955.199 78.0656 955.199 78.0665 955.199C81.2129 953.157 88.5469 947.539 92.7234 941.399C96.8979 935.261 106.591 929.718 110.924 927.71C110.928 927.708 110.932 927.711 110.931 927.715C109.997 934.574 103.044 949.753 82.6917 955.689C82.6866 955.691 82.6867 955.698 82.692 955.699L93.9864 957.464L93.9876 957.464C103.493 956.566 124.595 958.181 132.976 971.82C132.978 971.823 132.977 971.828 132.973 971.828C128.806 972.294 118.25 972.161 109.292 967.902C98.1018 962.581 95.7111 959.305 85.4779 957.922C85.4722 957.921 85.4679 957.928 85.4731 957.931C90.9777 960.374 103.125 969.739 107.942 987.795C107.943 987.799 107.94 987.803 107.936 987.801C104.196 986.021 95.307 980.506 89.592 972.645C82.4427 962.812 84.3929 960.765 78.3414 957.701C78.3409 957.701 78.3403 957.701 78.3397 957.701L50.7124 954.724C56.8512 955.386 70.9754 963.387 78.368 990.102C78.3691 990.106 78.3654 990.11 78.3616 990.108C73.5685 987.94 62.7283 981.225 57.6346 971.674C52.5384 962.118 46.8661 956.509 44.6657 954.898C44.6649 954.897 44.6641 954.897 44.6631 954.897L16.6744 952.979C16.6689 952.978 16.6661 952.985 16.6711 952.988C25.5525 957.068 43.683 969.909 45.3587 988.743C45.359 988.747 45.3551 988.75 45.3516 988.748C41.04 986.358 31.0041 979.621 25.2879 971.759C18.1382 961.926 19.3058 958.756 10.9886 952.092L-10.2406 954.475L-10.4284 954.998C-10.4294 955.001 -10.4323 955.002 -10.4349 955.001L-11.484 954.615L-10.7056 952.502L-5.14305 934.151Z" fill="#2B3825"/>
<path d="M-33.5476 1459.33C-33.2856 1455.06 -33.7254 1443.88 -37.5802 1433.29C-41.433 1422.72 -38.0754 1412.88 -35.9118 1409.28C-35.91 1409.28 -35.9062 1409.28 -35.904 1409.28C-30.4611 1415.57 -21.6328 1433.53 -29.8305 1455.1L-12.7321 1435.65C-12.2223 1431.1 -12.1265 1419.99 -15.8211 1411.94C-19.5139 1403.9 -16.3824 1390.47 -14.3523 1384.76C-14.351 1384.75 -14.3465 1384.75 -14.3441 1384.76C-8.86766 1391.58 0.00570019 1410.27 -8.27164 1430.57L10.3136 1409.43C10.6757 1406.75 10.6249 1399.21 7.52504 1390.49C4.42712 1381.77 7.34432 1370.85 9.19342 1366.48C9.19498 1366.47 9.19967 1366.47 9.20185 1366.48C13.0246 1372.34 19.3348 1388.28 14.0307 1405.2L17.1452 1400.44L18.391 1398.54C22.1882 1391.38 36.2958 1376.81 56.0081 1376.14C56.0124 1376.14 56.0153 1376.15 56.0124 1376.15C52.2904 1380.38 42.9994 1389.59 35.5471 1392.63C30.2425 1394.79 23.6541 1398.76 18.8293 1401.92L16.806 1404.26C34.799 1398.62 48.9039 1402.8 53.8983 1405.76C53.9015 1405.76 53.9015 1405.77 53.8984 1405.77C49.0535 1409.01 38.2182 1413.45 31.1443 1411.25C22.4054 1408.52 16.7443 1408.51 12.6723 1409.04L-4.7082 1429.14C5.63622 1425.4 24.1608 1421.8 37.0988 1429.97C37.1022 1429.98 37.1022 1429.98 37.0985 1429.98C31.4085 1432.48 18.1026 1436.97 10.3288 1434.93C3.93625 1433.25 -4.5231 1434.08 -9.80208 1435.03L-26.1123 1453.9C-15.8809 1450.96 2.49323 1448.31 16.3827 1455.24C16.3863 1455.25 16.3868 1455.25 16.3832 1455.25C11.7494 1457.68 -0.543136 1462.26 -12.7169 1461.15C-21.6423 1460.33 -27.6687 1459.81 -30.9875 1459.53L-44.1777 1474.79L-22.2724 1481.23L-22.272 1481.23C-17.353 1479.87 -9.5481 1476.83 -4.08119 1471.73C2.53857 1465.56 16.4533 1464.81 22.5901 1465.2C22.5935 1465.2 22.5955 1465.2 22.5943 1465.21C19.8498 1472.29 7.96138 1485.92 -17.6628 1483.78L6.09752 1494.18C6.09849 1494.18 6.09952 1494.18 6.10056 1494.18C11.0767 1493.05 22.5324 1489.43 28.5591 1483.93C34.5837 1478.44 47.8521 1478.42 53.7418 1479.09C53.7457 1479.09 53.7475 1479.09 53.7452 1479.1C48.3584 1486.36 32.6165 1500.07 12.6792 1496.94C12.6735 1496.94 12.6707 1496.95 12.6758 1496.95L36.5075 1508.91C36.5086 1508.91 36.5096 1508.91 36.5107 1508.91C40.1813 1508.14 49.0454 1505.54 55.152 1501.31C61.2558 1497.09 72.2946 1495.41 77.0602 1495.09C77.0642 1495.09 77.0667 1495.09 77.0648 1495.1C73.7243 1501.16 61.7744 1512.82 40.6494 1511.03C40.6441 1511.03 40.6415 1511.04 40.6461 1511.04L50.5484 1516.76L50.5495 1516.76C59.7413 1519.34 78.8482 1528.44 81.7587 1544.18C81.7593 1544.19 81.7564 1544.19 81.7528 1544.19C77.6975 1543.12 67.8964 1539.2 61.072 1532C52.5464 1523.01 51.4951 1519.09 42.4455 1514.12C42.4404 1514.12 42.4337 1514.12 42.4378 1514.13C46.6941 1518.39 54.6573 1531.5 52.653 1550.08C52.6525 1550.08 52.6476 1550.08 52.6447 1550.08C49.7961 1547.07 43.4878 1538.73 40.9848 1529.34C37.8535 1517.59 40.4097 1516.38 35.8665 1511.35C35.8661 1511.35 35.8655 1511.35 35.865 1511.35L11.1603 1498.62C16.6497 1501.45 26.9477 1514 24.2303 1541.58C24.2298 1541.59 24.225 1541.59 24.222 1541.59C20.5305 1537.84 12.8332 1527.67 11.5184 1516.93C10.2029 1506.18 6.9295 1498.91 5.45649 1496.61C5.45597 1496.61 5.45529 1496.61 5.45443 1496.61L-19.9684 1484.75C-19.9734 1484.74 -19.9787 1484.75 -19.9748 1484.75C-13.1571 1491.76 -0.863252 1510.26 -6.07813 1528.44C-6.07924 1528.44 -6.08397 1528.44 -6.08654 1528.44C-9.24897 1524.66 -16.1878 1514.76 -18.6915 1505.37C-21.8229 1493.62 -19.5927 1491.08 -24.9543 1481.87L-45.6185 1476.46L-45.982 1476.88C-45.9838 1476.88 -45.987 1476.88 -45.9891 1476.88L-46.8288 1476.14L-45.342 1474.45L-33.5476 1459.33Z" fill="#2B3825"/>
<path d="M107.129 1902.99C143.363 1932.48 151.014 1960.91 149.248 1979.79C148.148 1991.55 143.438 2002.85 139.222 2013.88C126.136 2048.13 89.9254 2095.35 14.7814 2102.19C5.63552 2103.02 -3.55387 2101.76 -12.51 2099.72C-54.5366 2090.19 -122.968 2079.97 -141.063 2097.92C-178.304 2140.7 -262.422 2203.81 -300.962 2113.94C-314.107 2082.25 -318.472 2009.36 -235.847 1963.42C-229.805 1960.06 -223.815 1956.52 -218.767 1951.79C-192.646 1927.35 -149.28 1869.77 -129.236 1783.17C-125.815 1768.38 -120.422 1753.72 -110.055 1742.64C-61.4532 1690.69 -13.3533 1712.08 15.016 1739.74C26.0684 1750.51 31.1738 1765.55 35.1469 1780.47C44.7815 1816.64 66.9236 1870.26 107.129 1902.99Z" fill="#4F7344"/>
<path d="M78.4812 1915.15C109.057 1938.89 116.985 1962.36 116.614 1978.76C116.347 1990.55 111.853 2002.04 107.651 2013.07C96.3743 2042.68 66.2203 2082.31 3.86279 2090.29C-5.27219 2091.46 -14.5044 2090.39 -23.5305 2088.62C-60.329 2081.38 -118.263 2074.51 -133.388 2090.26C-164.925 2128.31 -236.788 2185.08 -271.951 2107.74C-283.896 2080.61 -289.07 2017.86 -219.432 1976.05C-213.491 1972.48 -207.561 1968.8 -202.666 1963.9C-180.651 1941.83 -145.522 1892.17 -129.663 1819.04C-126.45 1804.22 -121.523 1789.39 -111.174 1778.29C-71.7813 1736.04 -31.7883 1751.13 -6.83327 1773.13C4.70874 1783.31 10.0524 1798.31 14.5162 1813.05C23.9536 1844.2 44.0289 1888.41 78.4812 1915.15Z" fill="#ACD1A1"/>
<path d="M90.6918 145.705C131.691 168.105 144.394 194.671 146.096 213.552C147.156 225.318 144.582 237.28 142.446 248.899C135.818 284.959 108.815 337.989 36.173 358.395C27.3316 360.879 18.0659 361.311 8.88955 360.945C-34.1703 359.227 -103.318 361.644 -117.842 382.584C-146.667 431.437 -217.884 508.807 -272.148 427.461C-290.846 398.694 -308.414 327.821 -235.539 267.6C-230.21 263.197 -224.965 258.622 -220.862 253.058C-199.631 224.264 -167.477 159.753 -163.545 70.9442C-162.873 55.7841 -160.242 40.3838 -152.066 27.5995C-113.74 -32.3316 -62.5483 -20.0611 -29.6162 1.96441C-16.7861 10.5454 -9.0263 24.4057 -2.40292 38.3476C13.6585 72.156 45.1976 120.849 90.6918 145.705Z" fill="#4F7344"/>
<path d="M64.739 162.888C99.126 180.655 111.197 202.291 113.82 218.486C115.705 230.126 113.378 242.241 111.257 253.853C105.561 285.022 83.131 329.485 23.2702 348.69C14.501 351.503 5.22845 352.133 -3.96999 352.032C-41.4708 351.62 -99.6884 355.411 -111.691 373.655C-135.769 416.814 -196.09 485.722 -244.751 416.085C-261.438 391.586 -277.957 330.82 -217.099 277.03C-211.907 272.441 -206.746 267.74 -202.827 262.024C-185.2 236.317 -159.703 181.091 -157.431 106.29C-156.971 91.1389 -154.828 75.6538 -146.674 62.8549C-115.636 14.138 -73.5627 21.6926 -45.0178 38.7792C-31.8155 46.6819 -23.8278 60.464 -16.7547 74.1397C-1.8006 103.053 25.9918 142.868 64.739 162.888Z" fill="#ACD1A1"/>
<path d="M-3.96635 1886.62C-4.01137 1882.36 -5.24975 1871.26 -9.84301 1861.01C-14.4339 1850.76 -11.7975 1840.74 -9.90284 1837C-9.90131 1837 -9.89758 1837 -9.89517 1837C-4.02966 1842.87 6.03972 1860.1 -0.57116 1882.15L15.0467 1861.57C15.228 1857.01 14.5277 1845.95 10.2757 1838.21C6.02576 1830.47 8.1797 1816.89 9.78995 1811.06C9.79099 1811.05 9.79544 1811.05 9.79811 1811.06C15.7349 1817.45 25.902 1835.41 19.1209 1856.2L36.0969 1833.83C36.2652 1831.14 35.6746 1823.64 31.9658 1815.19C28.2594 1806.74 30.3799 1795.67 31.9061 1791.18C31.9073 1791.18 31.912 1791.18 31.9144 1791.18C36.1377 1796.74 43.5575 1812.15 39.4921 1829.36L42.2499 1824.4L43.353 1822.42C46.6184 1815.03 59.6099 1799.52 79.174 1797.45C79.1783 1797.45 79.1815 1797.45 79.1788 1797.45C75.779 1801.93 67.1949 1811.76 59.9983 1815.31C54.8757 1817.85 48.6051 1822.26 44.0315 1825.76L42.1861 1828.23C59.6834 1821.33 74.0157 1824.48 79.1965 1827.07C79.1998 1827.07 79.2001 1827.07 79.1972 1827.07C74.6091 1830.64 64.1471 1835.84 56.9515 1834.15C48.0623 1832.07 42.4289 1832.46 38.4159 1833.28L22.5638 1854.52C32.5874 1850.06 50.7592 1845.15 64.217 1852.36C64.2206 1852.36 64.2209 1852.37 64.2173 1852.37C58.7354 1855.26 45.8185 1860.67 37.9384 1859.2C31.4585 1857.99 23.1017 1859.42 17.9179 1860.75L3.04197 1880.69C13.0106 1877.03 31.1016 1873.08 45.4166 1878.98C45.4203 1878.98 45.4211 1878.99 45.4176 1878.99C40.9816 1881.74 29.0795 1887.17 16.8883 1886.94C7.95007 1886.77 1.91711 1886.68 -1.40446 1886.64L-13.4347 1902.77L8.82019 1907.61L8.82064 1907.61C13.6171 1905.9 21.1643 1902.32 26.2383 1896.86C32.3823 1890.24 46.1718 1888.49 52.3054 1888.44C52.3087 1888.44 52.311 1888.45 52.31 1888.45C50.0872 1895.7 39.2357 1910.11 13.589 1909.82L37.9724 1918.45C37.9734 1918.45 37.9744 1918.45 37.9754 1918.45C42.8456 1916.98 53.9834 1912.55 59.5858 1906.65C65.1861 1900.76 78.3849 1899.78 84.293 1900.03C84.2968 1900.03 84.2989 1900.04 84.2968 1900.04C79.4574 1907.65 64.7781 1922.42 44.7184 1920.73C44.7127 1920.73 44.7105 1920.74 44.7157 1920.74L69.2826 1930.94C69.2837 1930.94 69.2848 1930.94 69.2858 1930.94C72.8823 1929.9 81.5149 1926.68 87.2876 1922.04C93.0577 1917.4 103.92 1914.93 108.638 1914.28C108.642 1914.28 108.645 1914.28 108.643 1914.29C105.754 1920.56 94.7005 1933.01 73.5554 1932.75C73.5501 1932.75 73.548 1932.76 73.5529 1932.76L83.8136 1937.73L83.8148 1937.73C93.1446 1939.65 112.806 1947.33 116.829 1962.78C116.83 1962.79 116.827 1962.79 116.824 1962.79C112.713 1962.02 102.681 1958.82 95.3756 1952.15C86.2494 1943.81 84.9229 1939.99 75.5634 1935.69C75.5581 1935.69 75.5518 1935.69 75.5562 1935.7C80.096 1939.63 88.9573 1952.1 88.294 1970.73C88.2939 1970.74 88.2892 1970.74 88.286 1970.74C85.2366 1967.95 78.3629 1960.1 75.2 1950.94C71.2433 1939.47 73.7 1938.09 68.8192 1933.4C68.8188 1933.4 68.8182 1933.4 68.8177 1933.4L43.328 1922.52C48.9918 1924.93 60.136 1936.68 59.4082 1964.32C59.4081 1964.32 59.4034 1964.33 59.4003 1964.32C55.4591 1960.86 47.073 1951.3 44.9953 1940.7C42.9166 1930.1 39.1389 1923.1 37.509 1920.92C37.5084 1920.92 37.5077 1920.92 37.5068 1920.92L11.3642 1910.94C11.359 1910.94 11.3542 1910.94 11.3583 1910.95C18.6429 1917.42 32.1993 1934.96 28.3129 1953.41C28.312 1953.41 28.3074 1953.42 28.3046 1953.41C24.8875 1949.88 17.2752 1940.53 14.1116 1931.36C10.1547 1919.9 12.1918 1917.22 6.19784 1908.44L-14.7489 1904.53L-15.0804 1904.97C-15.082 1904.97 -15.0852 1904.97 -15.0874 1904.97L-15.9757 1904.3L-14.6176 1902.51L-3.96635 1886.62Z" fill="#2B3825"/>
<path d="M-2.96635 117.621C-3.01137 113.357 -4.24975 102.264 -8.84301 92.01C-13.4339 81.761 -10.7975 71.7385 -8.90284 68.0019C-8.90131 67.9988 -8.89758 67.9983 -8.89517 68.0007C-3.02966 73.8664 7.03972 91.0992 0.42884 113.148L16.0467 92.5699C16.228 88.0073 15.5277 76.9474 11.2757 69.2081C7.02576 61.4725 9.1797 47.891 10.7899 42.0585C10.791 42.0547 10.7954 42.0536 10.7981 42.0565C16.7349 48.4472 26.902 66.412 20.1209 87.2018L37.0969 64.8347C37.2652 62.1423 36.6746 54.6438 32.9658 46.1887C29.2594 37.7391 31.3799 26.6705 32.9061 22.1832C32.9073 22.1794 32.912 22.1787 32.9144 22.1819C37.1377 27.7427 44.5575 43.1507 40.4921 60.3613L43.2499 55.4041L44.353 53.4212C47.6184 46.0311 60.6099 30.5184 80.174 28.4463C80.1783 28.4458 80.1815 28.4504 80.1788 28.4539C76.779 32.9315 68.1949 42.7574 60.9983 46.3137C55.8757 48.8452 49.6051 53.2643 45.0315 56.7563L43.1861 59.2292C60.6834 52.3316 75.0157 55.481 80.1965 58.0663C80.1998 58.0679 80.2001 58.0721 80.1972 58.0744C75.6091 61.6446 65.1471 66.8371 57.9515 65.1521C49.0623 63.0706 43.4289 63.4601 39.4159 64.2816L23.5638 85.5245C33.5874 81.0604 51.7592 76.1483 65.217 83.3588C65.2206 83.3607 65.2209 83.3656 65.2173 83.3674C59.7354 86.2616 46.8185 91.674 38.9384 90.2033C32.4585 88.9938 24.1017 90.4242 18.9179 91.7504L4.04197 111.685C14.0106 108.028 32.1016 104.082 46.4166 109.983C46.4203 109.984 46.4211 109.989 46.4176 109.991C41.9816 112.741 30.0795 118.172 17.8883 117.938C8.95007 117.767 2.91711 117.681 -0.404463 117.644L-12.4347 133.765L9.82019 138.606L9.82064 138.606C14.6171 136.901 22.1643 133.317 27.2383 127.855C33.3823 121.242 47.1718 119.492 53.3054 119.443C53.3087 119.443 53.311 119.446 53.31 119.449C51.0872 126.698 40.2357 141.109 14.589 140.815L38.9724 149.452C38.9734 149.452 38.9744 149.452 38.9754 149.452C43.8456 147.977 54.9834 143.553 60.5858 137.654C66.1861 131.757 79.3849 130.782 85.293 131.031C85.2968 131.031 85.2989 131.035 85.2968 131.039C80.4574 138.645 65.7781 153.416 45.7184 151.729C45.7127 151.729 45.7105 151.737 45.7157 151.739L70.2826 161.935C70.2837 161.935 70.2848 161.935 70.2858 161.935C73.8823 160.903 82.5149 157.68 88.2876 153.039C94.0577 148.399 104.92 145.934 109.638 145.28C109.642 145.28 109.645 145.283 109.643 145.287C106.754 151.558 95.7005 164.015 74.5554 163.75C74.5501 163.75 74.548 163.757 74.5529 163.76L84.8136 168.733L84.8148 168.733C94.1446 170.645 113.806 178.331 117.829 193.784C117.83 193.788 117.827 193.791 117.824 193.791C113.713 193.022 103.681 189.82 96.3756 183.148C87.2494 174.813 85.9229 170.991 76.5634 166.691C76.5581 166.689 76.5518 166.695 76.5562 166.699C81.096 170.633 89.9573 183.105 89.294 201.733C89.2939 201.737 89.2892 201.74 89.286 201.737C86.2366 198.949 79.3629 191.099 76.2 181.936C72.2433 170.473 74.7 169.088 69.8192 164.403C69.8188 164.402 69.8182 164.402 69.8177 164.402L44.328 153.516C49.9918 155.935 61.136 167.682 60.4082 195.32C60.4081 195.325 60.4034 195.327 60.4003 195.325C56.4591 191.86 48.073 182.297 45.9953 171.702C43.9166 161.102 40.1389 154.098 38.509 151.92C38.5084 151.919 38.5077 151.919 38.5068 151.919L12.3642 141.937C12.359 141.935 12.3542 141.941 12.3583 141.945C19.6429 148.424 33.1993 165.955 29.3129 184.411C29.312 184.415 29.3074 184.416 29.3046 184.414C25.8875 180.877 18.2752 171.528 15.1116 162.363C11.1547 150.899 13.1918 148.215 7.19784 139.436L-13.7489 135.526L-14.0804 135.971C-14.082 135.973 -14.0852 135.973 -14.0874 135.972L-14.9757 135.297L-13.6176 133.508L-2.96635 117.621Z" fill="#2B3825"/>
<path d="M-23.9664 603.621C-24.0114 599.357 -25.2497 588.264 -29.843 578.01C-34.4339 567.761 -31.7975 557.739 -29.9028 554.002C-29.9013 553.999 -29.8976 553.998 -29.8952 554.001C-24.0297 559.866 -13.9603 577.099 -20.5712 599.148L-4.95329 578.57C-4.77197 574.007 -5.47232 562.947 -9.72429 555.208C-13.9742 547.472 -11.8203 533.891 -10.2101 528.058C-10.209 528.055 -10.2046 528.054 -10.2019 528.056C-4.26512 534.447 5.90199 552.412 -0.879057 573.202L16.0969 550.835C16.2652 548.142 15.6746 540.644 11.9658 532.189C8.25943 523.739 10.3799 512.67 11.9061 508.183C11.9073 508.179 11.912 508.179 11.9144 508.182C16.1377 513.743 23.5575 529.151 19.4921 546.361L22.2499 541.404L23.353 539.421C26.6184 532.031 39.6099 516.518 59.174 514.446C59.1783 514.446 59.1815 514.45 59.1788 514.454C55.779 518.931 47.1949 528.757 39.9983 532.314C34.8757 534.845 28.6051 539.264 24.0315 542.756L22.1861 545.229C39.6834 538.332 54.0157 541.481 59.1965 544.066C59.1998 544.068 59.2001 544.072 59.1972 544.074C54.6091 547.645 44.1471 552.837 36.9515 551.152C28.0623 549.071 22.4289 549.46 18.4159 550.282L2.56382 571.525C12.5874 567.06 30.7592 562.148 44.217 569.359C44.2206 569.361 44.2209 569.366 44.2173 569.367C38.7354 572.262 25.8185 577.674 17.9384 576.203C11.4585 574.994 3.10165 576.424 -2.08211 577.75L-16.958 597.685C-6.9894 594.028 11.1016 590.082 25.4166 595.983C25.4203 595.984 25.4211 595.989 25.4176 595.991C20.9816 598.741 9.07946 604.172 -3.11174 603.938C-12.0499 603.767 -18.0829 603.681 -21.4045 603.644L-33.4347 619.765L-11.1798 624.606L-11.1794 624.606C-6.38292 622.901 1.16431 619.317 6.23833 613.855C12.3823 607.242 26.1718 605.492 32.3054 605.443C32.3087 605.443 32.311 605.446 32.31 605.449C30.0872 612.698 19.2357 627.109 -6.41096 626.815L17.9724 635.452C17.9734 635.452 17.9744 635.452 17.9754 635.452C22.8456 633.977 33.9834 629.553 39.5858 623.654C45.1861 617.757 58.3849 616.782 64.293 617.031C64.2968 617.031 64.2989 617.035 64.2968 617.039C59.4574 624.645 44.7781 639.416 24.7184 637.729C24.7127 637.729 24.7105 637.737 24.7157 637.739L49.2826 647.935C49.2837 647.935 49.2848 647.935 49.2858 647.935C52.8823 646.903 61.5149 643.68 67.2876 639.039C73.0577 634.399 83.9196 631.934 88.6384 631.28C88.6423 631.28 88.6451 631.283 88.6434 631.287C85.7543 637.558 74.7005 650.015 53.5554 649.75C53.5501 649.75 53.548 649.757 53.5529 649.76L63.8136 654.733L63.8148 654.733C73.1446 656.645 92.8058 664.331 96.829 679.784C96.8299 679.788 96.8272 679.791 96.8236 679.791C92.7127 679.022 82.6806 675.82 75.3756 669.148C66.2494 660.813 64.9229 656.991 55.5634 652.691C55.5581 652.689 55.5518 652.695 55.5562 652.699C60.096 656.633 68.9573 669.105 68.294 687.733C68.2939 687.737 68.2892 687.74 68.286 687.737C65.2366 684.949 58.3629 677.099 55.2 667.936C51.2433 656.473 53.7 655.088 48.8192 650.403C48.8188 650.402 48.8182 650.402 48.8177 650.402L23.328 639.516C28.9918 641.935 40.136 653.682 39.4082 681.32C39.4081 681.325 39.4034 681.327 39.4003 681.325C35.4591 677.86 27.073 668.297 24.9953 657.702C22.9166 647.102 19.1389 640.098 17.509 637.92C17.5084 637.919 17.5077 637.919 17.5068 637.919L-8.63583 627.937C-8.64102 627.935 -8.64581 627.941 -8.64167 627.945C-1.35713 634.424 12.1993 651.955 8.31287 670.411C8.31205 670.415 8.30743 670.416 8.30464 670.414C4.88746 666.877 -2.72482 657.528 -5.88839 648.363C-9.84527 636.899 -7.80816 634.215 -13.8022 625.436L-34.7489 621.526L-35.0804 621.971C-35.082 621.973 -35.0852 621.973 -35.0874 621.972L-35.9757 621.297L-34.6176 619.508L-23.9664 603.621Z" fill="#2B3825"/>
</g>
<defs>
<clipPath id="clip0_515_2">
<rect width="1440" height="2495" fill="white" transform="translate(0 -219)"/>
</clipPath>
</defs>
</svg>
