<svg width="1440" height="2495" viewBox="0 0 1440 2495" fill="none" xmlns="http://www.w3.org/2000/svg">
<g clip-path="url(#clip0_515_2)">
<path d="M1350.99 1431.56C1326.28 1433.03 1311.25 1426.5 1302.72 1418.77C1293.76 1410.63 1289.57 1398.21 1286.4 1386.53C1280.53 1364.91 1281.29 1332.31 1308.89 1300.94C1314.79 1294.25 1322.32 1289.29 1330.05 1284.84C1354.45 1270.81 1388.43 1247.67 1389.6 1232.21C1389.68 1195.92 1404.02 1129.75 1460.74 1155.42C1480.14 1164.48 1512.14 1195.85 1493.76 1251.17C1491.6 1257.67 1489.34 1264.2 1488.85 1271.03C1487.24 1293.51 1490.83 1333.74 1512.6 1377.69C1519.5 1391.6 1525.91 1406.52 1523.75 1421.89C1519.04 1455.42 1495.43 1466.65 1473.63 1468.4C1458.18 1469.64 1444.1 1461.52 1430.65 1453.77L1430.09 1453.44C1409.85 1441.77 1380.41 1429.81 1350.99 1431.56Z" fill="#4F7344"/>
<path d="M1359.81 1413.42C1340.01 1415.05 1327.24 1410.57 1319.45 1404.7C1309.8 1397.43 1305.21 1384.94 1302.15 1373.24C1297.35 1354.88 1298.09 1328.24 1319.35 1301.95C1324.97 1294.99 1332.44 1289.87 1340.05 1285.19C1360.79 1272.43 1388.42 1252.3 1389.1 1239.14C1388.39 1207.55 1399.44 1149.67 1449.23 1170.9C1466.1 1178.34 1494.2 1204.61 1480.3 1252.31C1478.38 1258.9 1476.26 1265.47 1476.02 1272.33C1475.36 1291.68 1479.38 1324.72 1497.58 1360.66C1504.59 1374.49 1511.65 1389.3 1509.16 1404.62C1505.03 1430.08 1487.41 1440.06 1470.12 1442.68C1454.62 1445.03 1440.13 1436.74 1426.24 1429.46C1408.57 1420.2 1384.05 1411.42 1359.81 1413.42Z" fill="#ACD1A1"/>
<path d="M1352.99 553.561C1328.28 555.029 1313.25 548.496 1304.72 540.765C1295.76 532.634 1291.57 520.209 1288.4 508.527C1282.53 486.915 1283.29 454.307 1310.89 422.941C1316.79 416.247 1324.32 411.285 1332.05 406.84C1356.45 392.806 1390.43 369.67 1391.6 354.208C1391.68 317.915 1406.02 251.747 1462.74 277.418C1482.14 286.48 1514.14 317.849 1495.76 373.171C1493.6 379.669 1491.34 386.199 1490.85 393.029C1489.24 415.509 1492.83 455.737 1514.6 499.688C1521.5 513.599 1527.91 528.519 1525.75 543.894C1521.04 577.421 1497.43 588.653 1475.63 590.403C1460.18 591.644 1446.1 583.52 1432.65 575.766L1432.09 575.443C1411.85 563.77 1382.41 551.813 1352.99 553.561Z" fill="#4F7344"/>
<path d="M1361.81 535.42C1342.01 537.052 1329.24 532.569 1321.45 526.699C1311.8 519.433 1307.21 506.935 1304.15 495.237C1299.35 476.882 1300.09 450.244 1321.35 423.946C1326.97 416.993 1334.44 411.873 1342.05 407.191C1362.79 394.428 1390.42 374.297 1391.1 361.141C1390.39 329.55 1401.44 271.675 1451.23 292.9C1468.1 300.339 1496.2 326.608 1482.3 374.312C1480.38 380.898 1478.26 387.473 1478.02 394.329C1477.36 413.676 1481.38 446.723 1499.58 482.659C1506.59 496.491 1513.65 511.302 1511.16 526.616C1507.03 552.077 1489.41 562.058 1472.12 564.679C1456.62 567.03 1442.13 558.735 1428.24 551.46C1410.57 542.203 1386.05 533.423 1361.81 535.42Z" fill="#ACD1A1"/>
<path d="M1445.88 2297.62C1430.22 2316.8 1415.24 2323.43 1403.78 2324.47C1391.72 2325.56 1379.74 2320.23 1369 2314.65C1349.12 2304.32 1325.65 2281.68 1321.27 2240.13C1320.33 2231.26 1321.78 2222.36 1323.75 2213.66C1329.95 2186.2 1335.94 2145.54 1325.36 2134.2C1298.71 2109.56 1259.73 2054.2 1317.04 2029.85C1336.84 2021.72 1381.59 2019.42 1409.85 2070.41C1413.17 2076.4 1416.44 2082.48 1421.13 2087.47C1436.58 2103.88 1468.61 2128.48 1515.7 2142.23C1530.6 2146.58 1545.92 2151.97 1555.77 2163.97C1577.25 2190.14 1569.52 2215.12 1556.05 2232.34C1546.5 2244.55 1530.98 2249.41 1516.17 2254.05L1515.55 2254.24C1493.25 2261.23 1464.52 2274.79 1445.88 2297.62Z" fill="#4F7344"/>
<path d="M1438.5 2278.85C1426.29 2294.52 1414.35 2300.88 1404.75 2302.63C1392.88 2304.81 1380.57 2299.73 1369.89 2294.06C1353.13 2285.16 1334.04 2266.57 1329.09 2233.12C1327.78 2224.27 1329.07 2215.31 1330.78 2206.54C1335.44 2182.63 1339.34 2148.67 1330.12 2139.27C1306.4 2118.39 1271.29 2071.07 1320.63 2048.81C1337.54 2041.43 1375.89 2038.55 1401.57 2081.09C1405.12 2086.96 1408.52 2092.97 1413.4 2097.79C1427.19 2111.38 1454.22 2130.81 1492.99 2141.75C1507.92 2145.96 1523.59 2150.8 1533.18 2163C1549.11 2183.29 1544.52 2203.01 1534.74 2217.5C1525.97 2230.5 1510.06 2235.54 1495.3 2240.83C1476.52 2247.57 1453.45 2259.66 1438.5 2278.85Z" fill="#ACD1A1"/>
<path d="M-13.3244 1361.6C-37.5077 1371.94 -54.738 1370.56 -65.7823 1365.74C-76.8778 1360.9 -84.9718 1350.67 -91.9891 1340.81C-105.582 1321.7 -116.733 1289.05 -100.261 1247.96C-96.9433 1239.68 -91.5421 1232.47 -85.7588 1225.68C-66.7522 1203.38 -41.2715 1168.44 -45.5819 1152.79C-58.2625 1117.21 -67.4785 1047.37 -2.89821 1052.57C19.3327 1054.63 61.8388 1074.19 63.1004 1135.16L63.113 1135.77C63.249 1142.42 63.3861 1149.12 65.1554 1155.53C71.4196 1178.2 89.2518 1216.91 126.711 1252.69C137.937 1263.41 148.937 1275.31 152.275 1290.47C160.108 1326.04 140.104 1345.67 118.854 1354.97C104.459 1361.27 88.2388 1358.26 72.7876 1355.4C48.7866 1350.95 15.2493 1349.39 -13.3244 1361.6Z" fill="#4F7344"/>
<path d="M-11.0634 1340.73C-30.3397 1349.5 -44.6403 1349.39 -54.3527 1346.15C-65.8108 1342.34 -74.3021 1332.17 -81.2332 1322.26C-92.6482 1305.94 -101.686 1279.16 -89.6891 1245.27C-86.7058 1236.84 -81.4204 1229.49 -75.829 1222.52C-59.9477 1202.73 -39.6486 1172.97 -43.6395 1159.75C-55.4319 1129.06 -64.9608 1068.5 -8.73734 1071.78C10.4587 1073.14 47.3481 1089.07 50.3353 1141C50.7292 1147.85 50.9609 1154.76 53.0309 1161.3C59.1375 1180.59 74.8815 1212.11 106.022 1241.29C117.336 1251.9 128.884 1263.47 131.934 1278.69C137.43 1306.1 122.961 1322.44 106.403 1331.07C92.5007 1338.32 76.1122 1335.47 60.5923 1333.23C39.9195 1330.24 12.3348 1330.09 -11.0634 1340.73Z" fill="#ACD1A1"/>
<path d="M1426.99 1278.37C1424.14 1281.75 1417.61 1291.28 1414.27 1302.43C1410.94 1313.57 1402.09 1319.64 1398.08 1321.29C1398.07 1321.29 1398.07 1321.29 1398.07 1321.29C1397.44 1312.72 1401.2 1292.4 1421.3 1279.58L1395.14 1285.15C1391.91 1288.61 1384.97 1297.75 1383.07 1306.7C1381.17 1315.64 1370.29 1324.83 1365.08 1328.31C1365.08 1328.31 1365.08 1328.31 1365.08 1328.31C1364.75 1319.28 1368.93 1298.32 1388.31 1286.6L1359.87 1292.66C1357.91 1294.65 1353.3 1300.93 1350.49 1310.07C1347.68 1319.2 1338.53 1326.45 1334.3 1328.93C1334.29 1328.94 1334.29 1328.93 1334.29 1328.93C1334.74 1321.71 1339.35 1304.61 1354.18 1293.87L1348.66 1295.89L1346.46 1296.7C1338.9 1300.28 1318.22 1303.66 1301.47 1292.05C1301.47 1292.04 1301.47 1292.04 1301.47 1292.04C1307.17 1290.83 1320.55 1288.93 1328.6 1291.01C1334.33 1292.49 1342.23 1293.27 1348.18 1293.62L1351.3 1292.93C1332.91 1286.5 1323.81 1274.34 1321.49 1268.81C1321.49 1268.8 1321.5 1268.8 1321.5 1268.8C1327.51 1269.1 1339.23 1272.11 1343.73 1278.3C1349.29 1285.94 1353.97 1289.45 1357.67 1291.52L1384.47 1285.59C1373.6 1282.31 1356.02 1273.87 1350.35 1259.11C1350.35 1259.1 1350.35 1259.1 1350.36 1259.1C1356.61 1260.54 1370.4 1265.04 1375.59 1271.52C1379.85 1276.85 1387.37 1281.38 1392.33 1283.85L1417.48 1278.28C1407.19 1274.41 1390.33 1265.26 1383.1 1250.95C1383.1 1250.95 1383.1 1250.94 1383.11 1250.94C1388.45 1251.79 1401.45 1255.58 1410.85 1264.01C1417.75 1270.2 1422.42 1274.34 1425 1276.62L1445.34 1272.12L1431.16 1253.27L1431.16 1253.27C1426.25 1251.36 1417.9 1249.06 1410.23 1249.91C1400.94 1250.94 1388.94 1242.99 1384.1 1238.87C1384.1 1238.87 1384.1 1238.87 1384.1 1238.87C1390.75 1234.69 1409.01 1230.73 1428.92 1248.31L1415.64 1225.04C1415.64 1225.04 1415.64 1225.04 1415.64 1225.04C1410.82 1222.9 1399.1 1218.83 1390.71 1219.67C1382.33 1220.51 1371.32 1212.34 1366.86 1208.15C1366.86 1208.15 1366.86 1208.14 1366.86 1208.14C1375.8 1205.45 1397.31 1203.8 1411.89 1218.69C1411.9 1218.7 1411.9 1218.69 1411.9 1218.69L1399.54 1194.07C1399.54 1194.07 1399.54 1194.07 1399.53 1194.07C1396.02 1192.45 1387.07 1189.13 1379.4 1188.87C1371.74 1188.6 1361.55 1183.19 1357.41 1180.51C1357.41 1180.5 1357.41 1180.5 1357.41 1180.5C1363.92 1177.53 1381.01 1175.25 1397.42 1189.76C1397.42 1189.76 1397.43 1189.76 1397.42 1189.75L1392.74 1178.91L1392.74 1178.91C1386.72 1171.1 1376.5 1151.77 1383.8 1136.93C1383.81 1136.93 1383.81 1136.93 1383.81 1136.93C1386.51 1140.32 1392.21 1149.61 1393.43 1159.79C1394.95 1172.5 1393.4 1176.39 1397.83 1186.09C1397.83 1186.1 1397.84 1186.1 1397.84 1186.09C1396.94 1179.94 1398.43 1164.16 1411.55 1150.01C1411.56 1150 1411.56 1150 1411.56 1150.01C1412.07 1154.26 1412.15 1165.06 1408.43 1174.39C1403.78 1186.05 1400.91 1185.48 1401.57 1192.45C1401.57 1192.45 1401.57 1192.45 1401.57 1192.45L1414.19 1218.23C1411.39 1212.5 1410.6 1195.75 1429.86 1174.58C1429.87 1174.57 1429.87 1174.57 1429.87 1174.58C1430.62 1179.96 1430.73 1193.13 1425.19 1202.84C1419.65 1212.56 1417.87 1220.61 1417.67 1223.42C1417.67 1223.42 1417.67 1223.42 1417.67 1223.42L1431.42 1248.94C1431.42 1248.94 1431.43 1248.94 1431.43 1248.93C1430.1 1238.93 1431.33 1216.01 1446.87 1204.17C1446.87 1204.16 1446.87 1204.17 1446.87 1204.17C1447.16 1209.25 1446.8 1221.73 1443.08 1231.06C1438.43 1242.73 1435.02 1243.45 1433.78 1254.39L1447.56 1271.63L1448.12 1271.5C1448.12 1271.5 1448.12 1271.5 1448.12 1271.51L1448.36 1272.64L1446.09 1273.12L1426.99 1278.37Z" fill="#2B3825"/>
<path d="M1428.99 400.372C1426.14 403.746 1419.61 413.281 1416.27 424.428C1412.94 435.57 1404.09 441.645 1400.08 443.293C1400.07 443.294 1400.07 443.292 1400.07 443.289C1399.44 434.722 1403.2 414.398 1423.3 401.582L1397.14 407.151C1393.91 410.606 1386.97 419.751 1385.07 428.696C1383.17 437.637 1372.29 446.828 1367.08 450.312C1367.08 450.314 1367.08 450.312 1367.08 450.308C1366.75 441.281 1370.93 420.317 1390.31 408.604L1361.87 414.657C1359.91 416.654 1355.3 422.933 1352.49 432.071C1349.68 441.204 1340.53 448.448 1336.3 450.934C1336.29 450.936 1336.29 450.933 1336.29 450.929C1336.74 443.712 1341.35 426.611 1356.18 415.867L1350.66 417.888L1348.46 418.697C1340.9 422.282 1320.22 425.656 1303.47 414.045C1303.47 414.043 1303.47 414.037 1303.47 414.036C1309.17 412.826 1322.55 410.928 1330.6 413.009C1336.33 414.489 1344.23 415.267 1350.18 415.623L1353.3 414.932C1334.91 408.503 1325.81 396.338 1323.49 390.806C1323.49 390.802 1323.5 390.799 1323.5 390.799C1329.51 391.104 1341.23 394.11 1345.73 400.299C1351.29 407.945 1355.97 411.451 1359.67 413.521L1386.47 407.59C1375.6 404.309 1358.02 395.866 1352.35 381.108C1352.35 381.105 1352.35 381.101 1352.36 381.102C1358.61 382.541 1372.4 387.036 1377.59 393.52C1381.85 398.852 1389.37 403.384 1394.33 405.851L1419.48 400.285C1409.19 396.408 1392.33 387.263 1385.1 372.952C1385.1 372.948 1385.1 372.944 1385.11 372.945C1390.45 373.79 1403.45 377.583 1412.85 386.014C1419.75 392.196 1424.42 396.344 1427 398.621L1447.34 394.119L1433.16 375.267L1433.16 375.267C1428.25 373.359 1419.9 371.064 1412.23 371.914C1402.94 372.942 1390.94 364.985 1386.1 360.874C1386.1 360.872 1386.1 360.868 1386.1 360.866C1392.75 356.687 1411.01 352.728 1430.92 370.309L1417.64 347.042C1417.64 347.041 1417.64 347.04 1417.64 347.04C1412.82 344.901 1401.1 340.835 1392.71 341.67C1384.33 342.505 1373.32 334.341 1368.86 330.148C1368.86 330.146 1368.86 330.141 1368.86 330.14C1377.8 327.449 1399.31 325.799 1413.89 340.693C1413.9 340.697 1413.9 340.693 1413.9 340.688L1401.54 316.072C1401.54 316.071 1401.54 316.07 1401.53 316.07C1398.02 314.446 1389.07 311.133 1381.4 310.867C1373.74 310.601 1363.55 305.185 1359.41 302.506C1359.41 302.504 1359.41 302.499 1359.41 302.497C1365.92 299.535 1383.01 297.246 1399.42 311.759C1399.42 311.762 1399.43 311.758 1399.42 311.753L1394.74 300.912L1394.74 300.911C1388.72 293.1 1378.5 273.772 1385.8 258.934C1385.81 258.931 1385.81 258.93 1385.81 258.933C1388.51 262.316 1394.21 271.614 1395.43 281.787C1396.95 294.497 1395.4 298.391 1399.83 308.095C1399.83 308.1 1399.84 308.1 1399.84 308.094C1398.94 301.939 1400.43 286.164 1413.55 272.006C1413.56 272.003 1413.56 272.004 1413.56 272.008C1414.07 276.256 1414.15 287.062 1410.43 296.387C1405.78 308.051 1402.91 307.475 1403.57 314.451C1403.57 314.451 1403.57 314.452 1403.57 314.453L1416.19 340.232C1413.39 334.504 1412.6 317.754 1431.86 296.575C1431.87 296.572 1431.87 296.573 1431.87 296.578C1432.62 301.96 1432.73 315.131 1427.19 324.845C1421.65 334.563 1419.87 342.61 1419.67 345.42C1419.67 345.421 1419.67 345.422 1419.67 345.423L1433.42 370.935C1433.42 370.94 1433.43 370.939 1433.43 370.933C1432.1 360.926 1433.33 338.007 1448.87 326.166C1448.87 326.164 1448.87 326.165 1448.87 326.169C1449.16 331.254 1448.8 343.734 1445.08 353.061C1440.43 364.726 1437.02 365.452 1435.78 376.391L1449.56 393.627L1450.12 393.503C1450.12 393.502 1450.12 393.504 1450.12 393.507L1450.36 394.637L1448.09 395.121L1428.99 400.372Z" fill="#2B3825"/>
<path d="M1441.13 1727.87C1439.91 1731.57 1437.69 1741.5 1438.61 1751.7C1439.54 1761.9 1434.29 1769.76 1431.55 1772.43C1431.55 1772.43 1431.55 1772.43 1431.54 1772.43C1428.22 1765.63 1424.65 1747.78 1436.88 1730.73L1417.31 1743.85C1415.8 1747.73 1413.13 1757.47 1414.51 1765.41C1415.88 1773.34 1410 1784.41 1406.88 1788.97C1406.88 1788.97 1406.87 1788.97 1406.87 1788.97C1403.65 1781.69 1400.2 1763.19 1412.21 1747.27L1390.94 1761.53C1390 1763.8 1388.28 1770.44 1388.98 1778.83C1389.67 1787.22 1384.56 1796.14 1381.92 1799.55C1381.91 1799.56 1381.91 1799.56 1381.91 1799.55C1379.91 1793.51 1378.08 1778.02 1386.69 1764.38L1382.84 1767.84L1381.3 1769.22C1376.29 1774.63 1360.49 1784.16 1343.01 1780.15C1343 1780.15 1343 1780.14 1343 1780.14C1347.26 1777.28 1357.58 1771.35 1364.84 1770.42C1370.01 1769.75 1376.72 1767.8 1381.7 1766.14L1384.03 1764.56C1366.89 1765.32 1355.47 1758.36 1351.76 1754.6C1351.76 1754.59 1351.76 1754.59 1351.77 1754.59C1356.78 1752.87 1367.34 1751.49 1373.05 1755.08C1380.1 1759.5 1385.07 1760.84 1388.78 1761.32L1408.74 1747.69C1398.77 1748.57 1381.65 1747.43 1372.18 1737.22C1372.17 1737.22 1372.18 1737.21 1372.18 1737.21C1377.77 1736.34 1390.51 1735.5 1396.87 1739.1C1402.1 1742.07 1409.73 1743.31 1414.59 1743.7L1433.33 1730.92C1423.65 1731.12 1406.88 1729.16 1396.28 1719.83C1396.28 1719.83 1396.28 1719.82 1396.28 1719.82C1400.92 1718.76 1412.8 1717.61 1423.24 1721.42C1430.9 1724.22 1436.08 1726.08 1438.93 1727.1L1454.08 1716.76L1436.32 1705.99L1436.32 1705.99C1431.68 1706.04 1424.11 1706.89 1418.12 1710.1C1410.86 1713.98 1398.45 1711.4 1393.14 1709.63C1393.14 1709.63 1393.14 1709.62 1393.14 1709.62C1397.21 1704.03 1410.83 1694.82 1432.87 1702.67L1414.4 1687.99C1414.39 1687.99 1414.39 1687.99 1414.39 1687.99C1409.76 1687.82 1398.84 1688.34 1392.26 1691.77C1385.68 1695.19 1374.01 1692.12 1368.99 1690.16C1368.98 1690.16 1368.98 1690.15 1368.99 1690.15C1375.41 1685.02 1392.45 1676.63 1409.25 1684.03C1409.25 1684.03 1409.26 1684.03 1409.25 1684.02L1391.09 1667.95C1391.09 1667.95 1391.09 1667.95 1391.09 1667.95C1387.68 1667.77 1379.28 1668 1372.93 1670.29C1366.58 1672.58 1356.48 1671.49 1352.21 1670.65C1352.21 1670.65 1352.21 1670.65 1352.21 1670.65C1356.56 1666.09 1369.78 1658.63 1387.94 1665.12C1387.95 1665.12 1387.95 1665.11 1387.95 1665.11L1380.57 1657.78L1380.57 1657.78C1373.09 1653.37 1358.41 1640.91 1359.52 1626.4C1359.52 1626.39 1359.53 1626.39 1359.53 1626.39C1362.85 1628.27 1370.55 1634.01 1374.87 1641.92C1380.27 1651.82 1380.28 1655.51 1387.08 1661.99C1387.08 1661.99 1387.09 1661.99 1387.09 1661.98C1384.34 1657.24 1380.4 1643.86 1386.49 1627.99C1386.49 1627.99 1386.49 1627.99 1386.49 1627.99C1388.3 1631.3 1391.9 1640.11 1391.91 1648.95C1391.93 1660.01 1389.4 1660.47 1392.22 1665.96C1392.22 1665.96 1392.22 1665.96 1392.22 1665.96L1410.98 1682.9C1406.81 1679.14 1400.68 1665.71 1409.5 1642.08C1409.5 1642.08 1409.51 1642.08 1409.51 1642.08C1411.88 1646.24 1416.28 1656.97 1414.93 1666.72C1413.58 1676.48 1414.77 1683.64 1415.53 1686C1415.53 1686 1415.53 1686 1415.53 1686.01L1435.11 1702.36C1435.12 1702.36 1435.13 1702.36 1435.12 1702.35C1430.76 1694.61 1424.27 1675.47 1433.08 1660.71C1433.09 1660.7 1433.09 1660.7 1433.09 1660.71C1434.99 1664.77 1438.79 1675.09 1438.8 1683.93C1438.82 1694.99 1436.26 1696.7 1438.83 1706.05L1455.74 1715.63L1456.16 1715.34C1456.16 1715.34 1456.16 1715.34 1456.16 1715.34L1456.73 1716.19L1455.03 1717.33L1441.13 1727.87Z" fill="#2B3825"/>
<path d="M1437.13 862.874C1435.91 866.565 1433.69 876.498 1434.61 886.703C1435.54 896.902 1430.29 904.765 1427.55 907.427C1427.55 907.429 1427.55 907.428 1427.54 907.425C1424.22 900.628 1420.65 882.782 1432.88 865.726L1413.31 878.846C1411.8 882.727 1409.13 892.473 1410.51 900.408C1411.88 908.338 1406 919.413 1402.88 923.966C1402.88 923.969 1402.87 923.969 1402.87 923.965C1399.65 916.694 1396.2 898.189 1408.21 882.268L1386.94 896.529C1386 898.801 1384.28 905.443 1384.98 913.834C1385.67 922.219 1380.56 931.136 1377.92 934.554C1377.91 934.558 1377.91 934.557 1377.91 934.553C1375.91 928.505 1374.08 913.019 1382.69 899.381L1378.84 902.839L1377.3 904.222C1372.29 909.628 1356.49 919.157 1339.01 915.148C1339 915.147 1339 915.142 1339 915.139C1343.26 912.285 1353.58 906.355 1360.84 905.42C1366.01 904.754 1372.72 902.801 1377.7 901.145L1380.03 899.559C1362.89 900.323 1351.47 893.361 1347.76 889.596C1347.76 889.593 1347.76 889.589 1347.77 889.588C1352.78 887.868 1363.34 886.49 1369.05 890.075C1376.1 894.505 1381.07 895.838 1384.78 896.318L1404.74 882.694C1394.77 883.574 1377.65 882.427 1368.18 872.221C1368.17 872.218 1368.18 872.213 1368.18 872.213C1373.77 871.341 1386.51 870.5 1392.87 874.104C1398.1 877.067 1405.73 878.309 1410.59 878.702L1429.33 865.917C1419.65 866.117 1402.88 864.16 1392.28 854.83C1392.28 854.827 1392.28 854.822 1392.28 854.821C1396.92 853.764 1408.8 852.607 1419.24 856.421C1426.9 859.217 1432.08 861.079 1434.93 862.095L1450.08 851.756L1432.32 840.986L1432.32 840.986C1427.68 841.036 1420.11 841.891 1414.12 845.098C1406.86 848.981 1394.45 846.404 1389.14 844.629C1389.14 844.628 1389.14 844.624 1389.14 844.622C1393.21 839.029 1406.83 829.816 1428.87 837.668L1410.4 822.995C1410.39 822.994 1410.39 822.994 1410.39 822.994C1405.76 822.823 1394.84 823.338 1388.26 826.765C1381.68 830.192 1370.01 827.123 1364.99 825.157C1364.98 825.155 1364.98 825.151 1364.99 825.149C1371.41 820.022 1388.45 811.634 1405.25 819.03C1405.25 819.033 1405.26 819.026 1405.25 819.022L1387.09 802.951C1387.09 802.951 1387.09 802.95 1387.09 802.95C1383.68 802.774 1375.28 802.996 1368.93 805.289C1362.58 807.58 1352.48 806.488 1348.21 805.654C1348.21 805.653 1348.21 805.649 1348.21 805.646C1352.56 801.093 1365.78 793.627 1383.94 800.119C1383.95 800.121 1383.95 800.114 1383.95 800.111L1376.57 792.783L1376.57 792.782C1369.09 788.369 1354.41 775.914 1355.52 761.395C1355.52 761.391 1355.53 761.389 1355.53 761.391C1358.85 763.272 1366.55 769.006 1370.87 776.924C1376.27 786.816 1376.28 790.505 1383.08 796.986C1383.08 796.99 1383.09 796.986 1383.09 796.981C1380.34 792.241 1376.4 778.861 1382.49 762.995C1382.49 762.991 1382.49 762.99 1382.49 762.994C1384.3 766.302 1387.9 775.109 1387.91 783.948C1387.93 795.006 1385.4 795.473 1388.22 800.96C1388.22 800.96 1388.22 800.961 1388.22 800.961L1406.98 817.903C1402.81 814.138 1396.68 800.705 1405.5 777.085C1405.5 777.081 1405.51 777.08 1405.51 777.083C1407.88 781.24 1412.28 791.971 1410.93 801.724C1409.58 811.482 1410.77 818.642 1411.53 821.003C1411.53 821.004 1411.53 821.005 1411.53 821.005L1431.11 837.358C1431.12 837.362 1431.13 837.358 1431.12 837.353C1426.76 829.605 1420.27 810.471 1429.08 795.707C1429.09 795.704 1429.09 795.704 1429.09 795.707C1430.99 799.77 1434.79 810.088 1434.8 818.93C1434.82 829.989 1432.26 831.7 1434.83 841.048L1451.74 850.626L1452.16 850.342C1452.16 850.34 1452.16 850.341 1452.16 850.343L1452.73 851.187L1451.03 852.328L1437.13 862.874Z" fill="#2B3825"/>
<path d="M1422.47 2148.26C1418.83 2150.76 1410.01 2158.24 1403.86 2168.11C1397.7 2177.98 1387.57 2181.51 1383.26 2182.04C1383.26 2182.04 1383.26 2182.04 1383.26 2182.04C1384.91 2173.61 1393.89 2154.99 1416.66 2147.93L1389.95 2146.4C1385.93 2148.88 1376.83 2155.88 1372.64 2164.01C1368.45 2172.13 1355.53 2178.13 1349.59 2180.12C1349.58 2180.12 1349.58 2180.11 1349.58 2180.11C1351.64 2171.32 1361.2 2152.19 1382.98 2146L1353.95 2144.35C1351.54 2145.76 1345.44 2150.6 1340.32 2158.67C1335.2 2166.74 1324.46 2171.32 1319.73 2172.6C1319.72 2172.6 1319.72 2172.6 1319.72 2172.59C1322.06 2165.75 1331.01 2150.47 1348.15 2144.01L1342.29 2144.51L1339.95 2144.71C1331.71 2146.17 1310.88 2143.98 1297.79 2128.36C1297.78 2128.36 1297.79 2128.36 1297.79 2128.36C1303.6 2128.69 1317.01 2130.39 1324.22 2134.51C1329.36 2137.45 1336.78 2140.29 1342.43 2142.2L1345.62 2142.35C1329.58 2131.31 1324 2117.17 1323.22 2111.22C1323.22 2111.22 1323.23 2111.22 1323.23 2111.22C1328.95 2113.1 1339.46 2119.09 1342.17 2126.24C1345.52 2135.08 1349.11 2139.7 1352.14 2142.67L1379.55 2144.02C1369.92 2137.98 1355.2 2125.21 1353.62 2109.48C1353.62 2109.47 1353.62 2109.47 1353.62 2109.47C1359.28 2112.51 1371.4 2120.48 1374.69 2128.1C1377.39 2134.37 1383.45 2140.72 1387.59 2144.41L1413.32 2145.67C1404.41 2139.22 1390.56 2125.95 1387.36 2110.24C1387.36 2110.24 1387.36 2110.23 1387.37 2110.24C1392.29 2112.46 1403.84 2119.55 1410.69 2130.16C1415.71 2137.94 1419.12 2143.17 1421.01 2146.05L1441.81 2147.06L1433.11 2125.14L1433.11 2125.14C1428.87 2122.01 1421.43 2117.59 1413.8 2116.39C1404.57 2114.93 1395.09 2104.1 1391.51 2098.85C1391.51 2098.85 1391.51 2098.85 1391.51 2098.85C1399.02 2096.57 1417.68 2097.56 1432.25 2119.77L1425.58 2093.82C1425.58 2093.82 1425.58 2093.82 1425.58 2093.82C1421.49 2090.49 1411.25 2083.48 1402.95 2082.07C1394.64 2080.67 1386.18 2069.89 1382.98 2064.67C1382.97 2064.67 1382.98 2064.66 1382.98 2064.66C1392.31 2064.42 1413.49 2068.5 1423.64 2086.71C1423.64 2086.72 1423.65 2086.71 1423.65 2086.71L1418.21 2059.71C1418.21 2059.7 1418.21 2059.7 1418.2 2059.7C1415.24 2057.21 1407.48 2051.65 1400.15 2049.38C1392.83 2047.1 1384.44 2039.19 1381.15 2035.51C1381.14 2035.51 1381.15 2035.51 1381.15 2035.51C1388.21 2034.36 1405.3 2036.66 1417.3 2054.99C1417.3 2054.99 1417.31 2054.99 1417.31 2054.98L1415.65 2043.29L1415.65 2043.29C1411.9 2034.17 1407.14 2012.83 1418.09 2000.44C1418.09 2000.44 1418.1 2000.44 1418.1 2000.44C1419.81 2004.42 1422.86 2014.89 1421.35 2025.02C1419.46 2037.68 1416.95 2041.03 1418.66 2051.56C1418.66 2051.57 1418.67 2051.57 1418.67 2051.56C1419.43 2045.39 1425.02 2030.56 1441.41 2020.36C1441.42 2020.36 1441.42 2020.37 1441.42 2020.37C1440.79 2024.6 1438.02 2035.05 1431.97 2043.06C1424.41 2053.09 1421.8 2051.77 1420.59 2058.68C1420.59 2058.68 1420.59 2058.68 1420.59 2058.68L1425.97 2086.87C1424.78 2080.61 1428.43 2064.24 1452.6 2048.89C1452.6 2048.89 1452.61 2048.89 1452.61 2048.9C1451.91 2054.29 1448.54 2067.02 1440.64 2074.93C1432.73 2082.84 1428.9 2090.14 1427.97 2092.8C1427.97 2092.8 1427.97 2092.8 1427.97 2092.8L1434.5 2121.03C1434.5 2121.04 1434.51 2121.04 1434.51 2121.03C1435.87 2111.03 1443.1 2089.25 1461.2 2081.92C1461.2 2081.92 1461.21 2081.92 1461.21 2081.92C1460.14 2086.9 1456.51 2098.85 1450.46 2106.86C1442.9 2116.89 1439.42 2116.69 1435.34 2126.92L1444.09 2147.18L1444.66 2147.2C1444.66 2147.2 1444.66 2147.21 1444.66 2147.21L1444.6 2148.36L1442.28 2148.23L1422.47 2148.26Z" fill="#2B3825"/>
<path d="M-5.14305 1153.15C-6.43448 1149.07 -10.8688 1138.8 -18.2748 1130.31C-25.6768 1121.83 -26.0828 1111.45 -25.3598 1107.31C-25.3593 1107.31 -25.3559 1107.31 -25.3529 1107.31C-18.0117 1111.21 -3.31221 1124.79 -3.19703 1147.87L5.75463 1123.56C4.59293 1119.14 0.683916 1108.74 -5.65854 1102.56C-11.998 1096.39 -13.9083 1082.73 -14.0716 1076.67C-14.0717 1076.67 -14.0678 1076.66 -14.0644 1076.67C-6.50119 1081.06 8.50624 1095.31 8.08984 1117.22L17.8199 1090.81C17.1932 1088.18 14.4319 1081.16 8.40076 1074.14C2.37349 1067.12 1.16671 1055.89 1.31654 1051.14C1.31666 1051.14 1.32089 1051.13 1.32413 1051.14C7.00139 1055.23 18.6261 1067.83 19.7659 1085.53L20.9592 1079.97L21.4365 1077.74C22.4042 1069.7 30.3203 1051.02 48.4728 1043.31C48.4768 1043.31 48.4811 1043.31 48.4796 1043.31C46.5304 1048.6 41.1758 1060.54 35.3163 1066.05C31.1455 1069.98 26.4265 1076.05 23.0633 1080.74L22.0177 1083.65C36.7759 1071.92 51.4404 1070.74 57.1648 1071.7C57.1684 1071.7 57.1699 1071.71 57.1678 1071.71C53.8135 1076.48 45.302 1084.52 37.9093 1085.01C28.7765 1085.61 23.489 1087.64 19.8816 1089.6L10.9001 1114.61C19.2045 1107.39 35.1907 1097.37 50.2053 1100.34C50.2093 1100.34 50.211 1100.34 50.2082 1100.35C45.799 1104.73 34.998 1113.7 27.0116 1114.59C20.4443 1115.33 12.85 1119.15 8.26778 1121.94L-0.160645 1145.41C8.32737 1138.98 24.5188 1129.9 39.9719 1131.37C39.9759 1131.37 39.9781 1131.38 39.9754 1131.38C36.5269 1135.31 26.7043 1144.01 14.9463 1147.35C6.32576 1149.8 0.51583 1151.49 -2.67992 1152.42L-9.49605 1171.4L13.2602 1169.53L13.2607 1169.53C17.3605 1166.49 23.5479 1160.84 26.8144 1154.12C30.7697 1145.98 43.4795 1140.27 49.3465 1138.43C49.3497 1138.42 49.3527 1138.43 49.3527 1138.43C49.3433 1146.03 43.1568 1163.03 18.4794 1170.25L44.3875 1171.4C44.3885 1171.4 44.3895 1171.39 44.3904 1171.39C48.6285 1168.55 58.0131 1161.05 61.658 1153.76C65.3017 1146.46 77.6719 1141.66 83.4099 1140.17C83.4136 1140.17 83.4167 1140.18 83.4157 1140.18C81.0022 1148.89 71.2504 1167.35 51.5225 1171.6C51.5169 1171.61 51.5171 1171.61 51.5228 1171.61L78.0634 1174.2C78.0645 1174.2 78.0656 1174.2 78.0665 1174.2C81.2129 1172.16 88.5469 1166.54 92.7234 1160.4C96.8979 1154.26 106.591 1148.72 110.924 1146.71C110.928 1146.71 110.932 1146.71 110.931 1146.71C109.997 1153.57 103.044 1168.75 82.6917 1174.69C82.6866 1174.69 82.6867 1174.7 82.692 1174.7L93.9864 1176.46L93.9876 1176.46C103.493 1175.57 124.595 1177.18 132.976 1190.82C132.978 1190.82 132.977 1190.83 132.973 1190.83C128.806 1191.29 118.25 1191.16 109.292 1186.9C98.1018 1181.58 95.7111 1178.3 85.4779 1176.92C85.4722 1176.92 85.4679 1176.93 85.4731 1176.93C90.9777 1179.37 103.125 1188.74 107.942 1206.79C107.943 1206.8 107.94 1206.8 107.936 1206.8C104.196 1205.02 95.307 1199.51 89.592 1191.65C82.4427 1181.81 84.3929 1179.77 78.3414 1176.7C78.3409 1176.7 78.3403 1176.7 78.3397 1176.7L50.7124 1173.72C56.8512 1174.39 70.9754 1182.39 78.368 1209.1C78.3691 1209.11 78.3654 1209.11 78.3616 1209.11C73.5685 1206.94 62.7283 1200.23 57.6346 1190.67C52.5384 1181.12 46.8661 1175.51 44.6657 1173.9C44.6649 1173.9 44.6641 1173.9 44.6631 1173.9L16.6744 1171.98C16.6689 1171.98 16.6661 1171.99 16.6711 1171.99C25.5525 1176.07 43.683 1188.91 45.3587 1207.74C45.359 1207.75 45.3551 1207.75 45.3516 1207.75C41.04 1205.36 31.0041 1198.62 25.2879 1190.76C18.1382 1180.93 19.3058 1177.76 10.9886 1171.09L-10.2406 1173.48L-10.4284 1174C-10.4294 1174 -10.4323 1174 -10.4349 1174L-11.484 1173.61L-10.7056 1171.5L-5.14305 1153.15Z" fill="#2B3825"/>
<path d="M-33.5476 1678.33C-33.2856 1674.06 -33.7254 1662.88 -37.5802 1652.29C-41.433 1641.72 -38.0754 1631.88 -35.9118 1628.28C-35.91 1628.28 -35.9062 1628.28 -35.904 1628.28C-30.4611 1634.57 -21.6328 1652.53 -29.8305 1674.1L-12.7321 1654.65C-12.2223 1650.1 -12.1265 1638.99 -15.8211 1630.94C-19.5139 1622.9 -16.3824 1609.47 -14.3523 1603.76C-14.351 1603.75 -14.3465 1603.75 -14.3441 1603.76C-8.86766 1610.58 0.00570019 1629.27 -8.27164 1649.57L10.3136 1628.43C10.6757 1625.75 10.6249 1618.21 7.52504 1609.49C4.42712 1600.77 7.34432 1589.85 9.19342 1585.48C9.19498 1585.47 9.19967 1585.47 9.20185 1585.48C13.0246 1591.34 19.3348 1607.28 14.0307 1624.2L17.1452 1619.44L18.391 1617.54C22.1882 1610.38 36.2958 1595.81 56.0081 1595.14C56.0124 1595.14 56.0153 1595.15 56.0124 1595.15C52.2904 1599.38 42.9994 1608.59 35.5471 1611.63C30.2425 1613.79 23.6541 1617.76 18.8293 1620.92L16.806 1623.26C34.799 1617.62 48.9039 1621.8 53.8983 1624.76C53.9015 1624.76 53.9015 1624.77 53.8984 1624.77C49.0535 1628.01 38.2182 1632.45 31.1443 1630.25C22.4054 1627.52 16.7443 1627.51 12.6723 1628.04L-4.7082 1648.14C5.63622 1644.4 24.1608 1640.8 37.0988 1648.97C37.1022 1648.98 37.1022 1648.98 37.0985 1648.98C31.4085 1651.48 18.1026 1655.97 10.3288 1653.93C3.93625 1652.25 -4.5231 1653.08 -9.80208 1654.03L-26.1123 1672.9C-15.8809 1669.96 2.49323 1667.31 16.3827 1674.24C16.3863 1674.25 16.3868 1674.25 16.3832 1674.25C11.7494 1676.68 -0.543136 1681.26 -12.7169 1680.15C-21.6423 1679.33 -27.6687 1678.81 -30.9875 1678.53L-44.1777 1693.79L-22.2724 1700.23L-22.272 1700.23C-17.353 1698.87 -9.5481 1695.83 -4.08119 1690.73C2.53857 1684.56 16.4533 1683.81 22.5901 1684.2C22.5935 1684.2 22.5955 1684.2 22.5943 1684.21C19.8498 1691.29 7.96138 1704.92 -17.6628 1702.78L6.09752 1713.18C6.09849 1713.18 6.09952 1713.18 6.10056 1713.18C11.0767 1712.05 22.5324 1708.43 28.5591 1702.93C34.5837 1697.44 47.8521 1697.42 53.7418 1698.09C53.7457 1698.09 53.7475 1698.09 53.7452 1698.1C48.3584 1705.36 32.6165 1719.07 12.6792 1715.94C12.6735 1715.94 12.6707 1715.95 12.6758 1715.95L36.5075 1727.91C36.5086 1727.91 36.5096 1727.91 36.5107 1727.91C40.1813 1727.14 49.0454 1724.54 55.152 1720.31C61.2558 1716.09 72.2946 1714.41 77.0602 1714.09C77.0642 1714.09 77.0667 1714.09 77.0648 1714.1C73.7243 1720.16 61.7744 1731.82 40.6494 1730.03C40.6441 1730.03 40.6415 1730.04 40.6461 1730.04L50.5484 1735.76L50.5495 1735.76C59.7413 1738.34 78.8482 1747.44 81.7587 1763.18C81.7593 1763.19 81.7564 1763.19 81.7528 1763.19C77.6975 1762.12 67.8964 1758.2 61.072 1751C52.5464 1742.01 51.4951 1738.09 42.4455 1733.12C42.4404 1733.12 42.4337 1733.12 42.4378 1733.13C46.6941 1737.39 54.6573 1750.5 52.653 1769.08C52.6525 1769.08 52.6476 1769.08 52.6447 1769.08C49.7961 1766.07 43.4878 1757.73 40.9848 1748.34C37.8535 1736.59 40.4097 1735.38 35.8665 1730.35C35.8661 1730.35 35.8655 1730.35 35.865 1730.35L11.1603 1717.62C16.6497 1720.45 26.9477 1733 24.2303 1760.58C24.2298 1760.59 24.225 1760.59 24.222 1760.59C20.5305 1756.84 12.8332 1746.67 11.5184 1735.93C10.2029 1725.18 6.9295 1717.91 5.45649 1715.61C5.45597 1715.61 5.45529 1715.61 5.45443 1715.61L-19.9684 1703.75C-19.9734 1703.74 -19.9787 1703.75 -19.9748 1703.75C-13.1571 1710.76 -0.863252 1729.26 -6.07813 1747.44C-6.07924 1747.44 -6.08397 1747.44 -6.08654 1747.44C-9.24897 1743.66 -16.1878 1733.76 -18.6915 1724.37C-21.8229 1712.62 -19.5927 1710.08 -24.9543 1700.87L-45.6185 1695.46L-45.982 1695.88C-45.9838 1695.88 -45.987 1695.88 -45.9891 1695.88L-46.8288 1695.14L-45.342 1693.45L-33.5476 1678.33Z" fill="#2B3825"/>
<path d="M107.129 2121.99C143.363 2151.48 151.014 2179.91 149.248 2198.79C148.148 2210.55 143.438 2221.85 139.222 2232.88C126.136 2267.13 89.9254 2314.35 14.7814 2321.19C5.63552 2322.02 -3.55387 2320.76 -12.51 2318.72C-54.5366 2309.19 -122.968 2298.97 -141.063 2316.92C-178.304 2359.7 -262.422 2422.81 -300.962 2332.94C-314.107 2301.25 -318.472 2228.36 -235.847 2182.42C-229.805 2179.06 -223.815 2175.52 -218.767 2170.79C-192.646 2146.35 -149.28 2088.77 -129.236 2002.17C-125.815 1987.38 -120.422 1972.72 -110.055 1961.64C-61.4532 1909.69 -13.3533 1931.08 15.016 1958.74C26.0684 1969.51 31.1738 1984.55 35.1469 1999.47C44.7815 2035.64 66.9236 2089.26 107.129 2121.99Z" fill="#4F7344"/>
<path d="M78.4812 2134.15C109.057 2157.89 116.985 2181.36 116.614 2197.76C116.347 2209.55 111.853 2221.04 107.651 2232.07C96.3743 2261.68 66.2203 2301.31 3.86279 2309.29C-5.27219 2310.46 -14.5044 2309.39 -23.5305 2307.62C-60.329 2300.38 -118.263 2293.51 -133.388 2309.26C-164.925 2347.31 -236.788 2404.08 -271.951 2326.74C-283.896 2299.61 -289.07 2236.86 -219.432 2195.05C-213.491 2191.48 -207.561 2187.8 -202.666 2182.9C-180.651 2160.83 -145.522 2111.17 -129.663 2038.04C-126.45 2023.22 -121.523 2008.39 -111.174 1997.29C-71.7813 1955.04 -31.7883 1970.13 -6.83327 1992.13C4.70874 2002.31 10.0524 2017.31 14.5162 2032.05C23.9536 2063.2 44.0289 2107.41 78.4812 2134.15Z" fill="#ACD1A1"/>
<path d="M90.6918 364.705C131.691 387.105 144.394 413.671 146.096 432.552C147.156 444.318 144.582 456.28 142.446 467.899C135.818 503.959 108.815 556.989 36.173 577.395C27.3316 579.879 18.0659 580.311 8.88955 579.945C-34.1703 578.227 -103.318 580.644 -117.842 601.584C-146.667 650.437 -217.884 727.807 -272.148 646.461C-290.846 617.694 -308.414 546.821 -235.539 486.6C-230.21 482.197 -224.965 477.622 -220.862 472.058C-199.631 443.264 -167.477 378.753 -163.545 289.944C-162.873 274.784 -160.242 259.384 -152.066 246.6C-113.74 186.668 -62.5483 198.939 -29.6162 220.964C-16.7861 229.545 -9.0263 243.406 -2.40292 257.348C13.6585 291.156 45.1976 339.849 90.6918 364.705Z" fill="#4F7344"/>
<path d="M64.739 381.888C99.126 399.655 111.197 421.291 113.82 437.486C115.705 449.126 113.378 461.241 111.257 472.853C105.561 504.022 83.131 548.485 23.2702 567.69C14.501 570.503 5.22845 571.133 -3.96999 571.032C-41.4708 570.62 -99.6884 574.411 -111.691 592.655C-135.769 635.814 -196.09 704.722 -244.751 635.085C-261.438 610.586 -277.957 549.82 -217.099 496.03C-211.907 491.441 -206.746 486.74 -202.827 481.024C-185.2 455.317 -159.703 400.091 -157.431 325.29C-156.971 310.139 -154.828 294.654 -146.674 281.855C-115.636 233.138 -73.5627 240.693 -45.0178 257.779C-31.8155 265.682 -23.8278 279.464 -16.7547 293.14C-1.8006 322.053 25.9918 361.868 64.739 381.888Z" fill="#ACD1A1"/>
<path d="M-3.96635 2105.62C-4.01137 2101.36 -5.24975 2090.26 -9.84301 2080.01C-14.4339 2069.76 -11.7975 2059.74 -9.90284 2056C-9.90131 2056 -9.89758 2056 -9.89517 2056C-4.02966 2061.87 6.03972 2079.1 -0.57116 2101.15L15.0467 2080.57C15.228 2076.01 14.5277 2064.95 10.2757 2057.21C6.02576 2049.47 8.1797 2035.89 9.78995 2030.06C9.79099 2030.05 9.79544 2030.05 9.79811 2030.06C15.7349 2036.45 25.902 2054.41 19.1209 2075.2L36.0969 2052.83C36.2652 2050.14 35.6746 2042.64 31.9658 2034.19C28.2594 2025.74 30.3799 2014.67 31.9061 2010.18C31.9073 2010.18 31.912 2010.18 31.9144 2010.18C36.1377 2015.74 43.5575 2031.15 39.4921 2048.36L42.2499 2043.4L43.353 2041.42C46.6184 2034.03 59.6099 2018.52 79.174 2016.45C79.1783 2016.45 79.1815 2016.45 79.1788 2016.45C75.779 2020.93 67.1949 2030.76 59.9983 2034.31C54.8757 2036.85 48.6051 2041.26 44.0315 2044.76L42.1861 2047.23C59.6834 2040.33 74.0157 2043.48 79.1965 2046.07C79.1998 2046.07 79.2001 2046.07 79.1972 2046.07C74.6091 2049.64 64.1471 2054.84 56.9515 2053.15C48.0623 2051.07 42.4289 2051.46 38.4159 2052.28L22.5638 2073.52C32.5874 2069.06 50.7592 2064.15 64.217 2071.36C64.2206 2071.36 64.2209 2071.37 64.2173 2071.37C58.7354 2074.26 45.8185 2079.67 37.9384 2078.2C31.4585 2076.99 23.1017 2078.42 17.9179 2079.75L3.04197 2099.69C13.0106 2096.03 31.1016 2092.08 45.4166 2097.98C45.4203 2097.98 45.4211 2097.99 45.4176 2097.99C40.9816 2100.74 29.0795 2106.17 16.8883 2105.94C7.95007 2105.77 1.91711 2105.68 -1.40446 2105.64L-13.4347 2121.77L8.82019 2126.61L8.82064 2126.61C13.6171 2124.9 21.1643 2121.32 26.2383 2115.86C32.3823 2109.24 46.1718 2107.49 52.3054 2107.44C52.3087 2107.44 52.311 2107.45 52.31 2107.45C50.0872 2114.7 39.2357 2129.11 13.589 2128.82L37.9724 2137.45C37.9734 2137.45 37.9744 2137.45 37.9754 2137.45C42.8456 2135.98 53.9834 2131.55 59.5858 2125.65C65.1861 2119.76 78.3849 2118.78 84.293 2119.03C84.2968 2119.03 84.2989 2119.04 84.2968 2119.04C79.4574 2126.65 64.7781 2141.42 44.7184 2139.73C44.7127 2139.73 44.7105 2139.74 44.7157 2139.74L69.2826 2149.94C69.2837 2149.94 69.2848 2149.94 69.2858 2149.94C72.8823 2148.9 81.5149 2145.68 87.2876 2141.04C93.0577 2136.4 103.92 2133.93 108.638 2133.28C108.642 2133.28 108.645 2133.28 108.643 2133.29C105.754 2139.56 94.7005 2152.01 73.5554 2151.75C73.5501 2151.75 73.548 2151.76 73.5529 2151.76L83.8136 2156.73L83.8148 2156.73C93.1446 2158.65 112.806 2166.33 116.829 2181.78C116.83 2181.79 116.827 2181.79 116.824 2181.79C112.713 2181.02 102.681 2177.82 95.3756 2171.15C86.2494 2162.81 84.9229 2158.99 75.5634 2154.69C75.5581 2154.69 75.5518 2154.69 75.5562 2154.7C80.096 2158.63 88.9573 2171.1 88.294 2189.73C88.2939 2189.74 88.2892 2189.74 88.286 2189.74C85.2366 2186.95 78.3629 2179.1 75.2 2169.94C71.2433 2158.47 73.7 2157.09 68.8192 2152.4C68.8188 2152.4 68.8182 2152.4 68.8177 2152.4L43.328 2141.52C48.9918 2143.93 60.136 2155.68 59.4082 2183.32C59.4081 2183.32 59.4034 2183.33 59.4003 2183.32C55.4591 2179.86 47.073 2170.3 44.9953 2159.7C42.9166 2149.1 39.1389 2142.1 37.509 2139.92C37.5084 2139.92 37.5077 2139.92 37.5068 2139.92L11.3642 2129.94C11.359 2129.94 11.3542 2129.94 11.3583 2129.95C18.6429 2136.42 32.1993 2153.96 28.3129 2172.41C28.312 2172.41 28.3074 2172.42 28.3046 2172.41C24.8875 2168.88 17.2752 2159.53 14.1116 2150.36C10.1547 2138.9 12.1918 2136.22 6.19784 2127.44L-14.7489 2123.53L-15.0804 2123.97C-15.082 2123.97 -15.0852 2123.97 -15.0874 2123.97L-15.9757 2123.3L-14.6176 2121.51L-3.96635 2105.62Z" fill="#2B3825"/>
<path d="M-2.96635 336.621C-3.01137 332.357 -4.24975 321.264 -8.84301 311.01C-13.4339 300.761 -10.7975 290.739 -8.90284 287.002C-8.90131 286.999 -8.89758 286.998 -8.89517 287.001C-3.02966 292.866 7.03972 310.099 0.42884 332.148L16.0467 311.57C16.228 307.007 15.5277 295.947 11.2757 288.208C7.02576 280.472 9.1797 266.891 10.7899 261.058C10.791 261.055 10.7954 261.054 10.7981 261.056C16.7349 267.447 26.902 285.412 20.1209 306.202L37.0969 283.835C37.2652 281.142 36.6746 273.644 32.9658 265.189C29.2594 256.739 31.3799 245.67 32.9061 241.183C32.9073 241.179 32.912 241.179 32.9144 241.182C37.1377 246.743 44.5575 262.151 40.4921 279.361L43.2499 274.404L44.353 272.421C47.6184 265.031 60.6099 249.518 80.174 247.446C80.1783 247.446 80.1815 247.45 80.1788 247.454C76.779 251.931 68.1949 261.757 60.9983 265.314C55.8757 267.845 49.6051 272.264 45.0315 275.756L43.1861 278.229C60.6834 271.332 75.0157 274.481 80.1965 277.066C80.1998 277.068 80.2001 277.072 80.1972 277.074C75.6091 280.645 65.1471 285.837 57.9515 284.152C49.0623 282.071 43.4289 282.46 39.4159 283.282L23.5638 304.525C33.5874 300.06 51.7592 295.148 65.217 302.359C65.2206 302.361 65.2209 302.366 65.2173 302.367C59.7354 305.262 46.8185 310.674 38.9384 309.203C32.4585 307.994 24.1017 309.424 18.9179 310.75L4.04197 330.685C14.0106 327.028 32.1016 323.082 46.4166 328.983C46.4203 328.984 46.4211 328.989 46.4176 328.991C41.9816 331.741 30.0795 337.172 17.8883 336.938C8.95007 336.767 2.91711 336.681 -0.404463 336.644L-12.4347 352.765L9.82019 357.606L9.82064 357.606C14.6171 355.901 22.1643 352.317 27.2383 346.855C33.3823 340.242 47.1718 338.492 53.3054 338.443C53.3087 338.443 53.311 338.446 53.31 338.449C51.0872 345.698 40.2357 360.109 14.589 359.815L38.9724 368.452C38.9734 368.452 38.9744 368.452 38.9754 368.452C43.8456 366.977 54.9834 362.553 60.5858 356.654C66.1861 350.757 79.3849 349.782 85.293 350.031C85.2968 350.031 85.2989 350.035 85.2968 350.039C80.4574 357.645 65.7781 372.416 45.7184 370.729C45.7127 370.729 45.7105 370.737 45.7157 370.739L70.2826 380.935C70.2837 380.935 70.2848 380.935 70.2858 380.935C73.8823 379.903 82.5149 376.68 88.2876 372.039C94.0577 367.399 104.92 364.934 109.638 364.28C109.642 364.28 109.645 364.283 109.643 364.287C106.754 370.558 95.7005 383.015 74.5554 382.75C74.5501 382.75 74.548 382.757 74.5529 382.76L84.8136 387.733L84.8148 387.733C94.1446 389.645 113.806 397.331 117.829 412.784C117.83 412.788 117.827 412.791 117.824 412.791C113.713 412.022 103.681 408.82 96.3756 402.148C87.2494 393.813 85.9229 389.991 76.5634 385.691C76.5581 385.689 76.5518 385.695 76.5562 385.699C81.096 389.633 89.9573 402.105 89.294 420.733C89.2939 420.737 89.2892 420.74 89.286 420.737C86.2366 417.949 79.3629 410.099 76.2 400.936C72.2433 389.473 74.7 388.088 69.8192 383.403C69.8188 383.402 69.8182 383.402 69.8177 383.402L44.328 372.516C49.9918 374.935 61.136 386.682 60.4082 414.32C60.4081 414.325 60.4034 414.327 60.4003 414.325C56.4591 410.86 48.073 401.297 45.9953 390.702C43.9166 380.102 40.1389 373.098 38.509 370.92C38.5084 370.919 38.5077 370.919 38.5068 370.919L12.3642 360.937C12.359 360.935 12.3542 360.941 12.3583 360.945C19.6429 367.424 33.1993 384.955 29.3129 403.411C29.312 403.415 29.3074 403.416 29.3046 403.414C25.8875 399.877 18.2752 390.528 15.1116 381.363C11.1547 369.899 13.1918 367.215 7.19784 358.436L-13.7489 354.526L-14.0804 354.971C-14.082 354.973 -14.0852 354.973 -14.0874 354.972L-14.9757 354.297L-13.6176 352.508L-2.96635 336.621Z" fill="#2B3825"/>
<path d="M-23.9664 822.621C-24.0114 818.357 -25.2497 807.264 -29.843 797.01C-34.4339 786.761 -31.7975 776.739 -29.9028 773.002C-29.9013 772.999 -29.8976 772.998 -29.8952 773.001C-24.0297 778.866 -13.9603 796.099 -20.5712 818.148L-4.95329 797.57C-4.77197 793.007 -5.47232 781.947 -9.72429 774.208C-13.9742 766.472 -11.8203 752.891 -10.2101 747.058C-10.209 747.055 -10.2046 747.054 -10.2019 747.056C-4.26512 753.447 5.90199 771.412 -0.879057 792.202L16.0969 769.835C16.2652 767.142 15.6746 759.644 11.9658 751.189C8.25943 742.739 10.3799 731.67 11.9061 727.183C11.9073 727.179 11.912 727.179 11.9144 727.182C16.1377 732.743 23.5575 748.151 19.4921 765.361L22.2499 760.404L23.353 758.421C26.6184 751.031 39.6099 735.518 59.174 733.446C59.1783 733.446 59.1815 733.45 59.1788 733.454C55.779 737.931 47.1949 747.757 39.9983 751.314C34.8757 753.845 28.6051 758.264 24.0315 761.756L22.1861 764.229C39.6834 757.332 54.0157 760.481 59.1965 763.066C59.1998 763.068 59.2001 763.072 59.1972 763.074C54.6091 766.645 44.1471 771.837 36.9515 770.152C28.0623 768.071 22.4289 768.46 18.4159 769.282L2.56382 790.525C12.5874 786.06 30.7592 781.148 44.217 788.359C44.2206 788.361 44.2209 788.366 44.2173 788.367C38.7354 791.262 25.8185 796.674 17.9384 795.203C11.4585 793.994 3.10165 795.424 -2.08211 796.75L-16.958 816.685C-6.9894 813.028 11.1016 809.082 25.4166 814.983C25.4203 814.984 25.4211 814.989 25.4176 814.991C20.9816 817.741 9.07946 823.172 -3.11174 822.938C-12.0499 822.767 -18.0829 822.681 -21.4045 822.644L-33.4347 838.765L-11.1798 843.606L-11.1794 843.606C-6.38292 841.901 1.16431 838.317 6.23833 832.855C12.3823 826.242 26.1718 824.492 32.3054 824.443C32.3087 824.443 32.311 824.446 32.31 824.449C30.0872 831.698 19.2357 846.109 -6.41096 845.815L17.9724 854.452C17.9734 854.452 17.9744 854.452 17.9754 854.452C22.8456 852.977 33.9834 848.553 39.5858 842.654C45.1861 836.757 58.3849 835.782 64.293 836.031C64.2968 836.031 64.2989 836.035 64.2968 836.039C59.4574 843.645 44.7781 858.416 24.7184 856.729C24.7127 856.729 24.7105 856.737 24.7157 856.739L49.2826 866.935C49.2837 866.935 49.2848 866.935 49.2858 866.935C52.8823 865.903 61.5149 862.68 67.2876 858.039C73.0577 853.399 83.9196 850.934 88.6384 850.28C88.6423 850.28 88.6451 850.283 88.6434 850.287C85.7543 856.558 74.7005 869.015 53.5554 868.75C53.5501 868.75 53.548 868.757 53.5529 868.76L63.8136 873.733L63.8148 873.733C73.1446 875.645 92.8058 883.331 96.829 898.784C96.8299 898.788 96.8272 898.791 96.8236 898.791C92.7127 898.022 82.6806 894.82 75.3756 888.148C66.2494 879.813 64.9229 875.991 55.5634 871.691C55.5581 871.689 55.5518 871.695 55.5562 871.699C60.096 875.633 68.9573 888.105 68.294 906.733C68.2939 906.737 68.2892 906.74 68.286 906.737C65.2366 903.949 58.3629 896.099 55.2 886.936C51.2433 875.473 53.7 874.088 48.8192 869.403C48.8188 869.402 48.8182 869.402 48.8177 869.402L23.328 858.516C28.9918 860.935 40.136 872.682 39.4082 900.32C39.4081 900.325 39.4034 900.327 39.4003 900.325C35.4591 896.86 27.073 887.297 24.9953 876.702C22.9166 866.102 19.1389 859.098 17.509 856.92C17.5084 856.919 17.5077 856.919 17.5068 856.919L-8.63583 846.937C-8.64102 846.935 -8.64581 846.941 -8.64167 846.945C-1.35713 853.424 12.1993 870.955 8.31287 889.411C8.31205 889.415 8.30743 889.416 8.30464 889.414C4.88746 885.877 -2.72482 876.528 -5.88839 867.363C-9.84527 855.899 -7.80816 853.215 -13.8022 844.436L-34.7489 840.526L-35.0804 840.971C-35.082 840.973 -35.0852 840.973 -35.0874 840.972L-35.9757 840.297L-34.6176 838.508L-23.9664 822.621Z" fill="#2B3825"/>
</g>
<defs>
<clipPath id="clip0_515_2">
<rect width="1440" height="2495" fill="white"/>
</clipPath>
</defs>
</svg>
